<?xml version="1.0" standalone="no"?>
<!DOCTYPE svg PUBLIC "-//W3C//DTD SVG 20010904//EN"
 "http://www.w3.org/TR/2001/REC-SVG-20010904/DTD/svg10.dtd">
<svg version="1.0" xmlns="http://www.w3.org/2000/svg"
 width="1200.000000pt" height="766.000000pt" viewBox="0 0 1200.000000 766.000000"
 preserveAspectRatio="xMidYMid meet">
<g transform="translate(0.000000,766.000000) scale(0.100000,-0.100000)"
fill="#000000" stroke="none">
<path d="M5258 7191 c-56 -38 -56 -38 -191 -44 -349 -17 -732 -107 -1066 -251
-313 -135 -589 -304 -851 -521 -128 -106 -322 -297 -426 -421 -107 -128 -244
-326 -244 -353 0 -19 -71 -91 -90 -91 -15 0 -42 -48 -46 -83 -4 -34 -24 -89
-35 -97 -9 -6 -93 -176 -126 -255 -172 -406 -272 -895 -272 -1335 0 -292 46
-620 132 -930 63 -226 180 -508 269 -649 23 -38 28 -56 28 -111 0 -59 3 -69
28 -92 15 -14 55 -42 90 -62 48 -29 67 -48 83 -80 11 -23 52 -85 91 -137 300
-397 691 -728 1148 -972 117 -62 313 -148 447 -196 190 -68 406 -121 654 -160
36 -6 106 -11 155 -11 77 0 96 -4 144 -28 30 -16 77 -41 103 -56 l48 -28 40
17 c22 10 53 28 70 41 17 12 56 32 87 45 31 12 77 37 102 55 25 17 61 41 80
52 19 11 91 52 160 92 69 40 139 80 155 90 28 16 201 118 395 233 47 27 99 58
115 67 17 10 54 31 83 49 29 17 55 31 58 31 3 0 18 8 32 19 23 16 79 49 310
182 17 11 49 28 70 40 20 12 42 25 47 29 6 4 82 49 170 100 221 128 395 229
550 320 144 85 223 125 230 118 10 -9 -136 -147 -155 -148 -9 0 -23 -12 -32
-27 -22 -37 -95 -113 -108 -113 -15 0 -60 -50 -60 -66 0 -17 -22 -18 -38 -2
-6 6 -15 9 -19 5 -4 -4 -1 -13 5 -19 17 -17 15 -31 -4 -24 -12 4 -14 1 -9 -13
8 -26 -15 -38 -31 -17 -14 19 -27 6 -18 -18 4 -9 -5 -25 -23 -40 -15 -14 -32
-26 -36 -26 -16 0 -39 -31 -34 -44 4 -10 0 -12 -14 -9 -18 5 -24 -4 -20 -34 1
-7 -15 -15 -34 -19 -25 -4 -40 -14 -48 -31 -6 -13 -25 -33 -44 -44 -18 -11
-33 -25 -33 -30 0 -5 -7 -9 -15 -9 -8 0 -19 -9 -26 -21 -8 -15 -18 -20 -36
-16 -20 4 -35 -5 -71 -39 -25 -24 -51 -44 -58 -44 -7 0 -18 -9 -24 -21 -9 -16
-17 -19 -40 -14 -20 4 -28 2 -27 -7 0 -7 -1 -21 -1 -32 -2 -14 -5 -16 -16 -7
-9 8 -21 8 -40 1 -14 -5 -26 -15 -26 -22 0 -14 -24 -31 -82 -60 -20 -10 -40
-22 -43 -28 -3 -5 -19 -10 -35 -10 -16 0 -31 -4 -35 -9 -8 -14 -65 -41 -84
-41 -9 0 -22 -9 -29 -20 -8 -14 -23 -20 -47 -20 -23 0 -35 -5 -35 -13 0 -14
-61 -37 -97 -37 -12 0 -37 -7 -56 -15 -20 -8 -49 -15 -64 -16 -27 0 -27 -1 -5
-9 12 -5 22 -12 22 -15 0 -3 -24 -3 -52 -1 -29 3 -45 3 -35 0 33 -10 17 -21
-40 -28 -116 -13 -138 -18 -150 -33 -7 -9 -19 -13 -27 -10 -8 3 -22 -3 -31
-13 -19 -21 -40 -17 -31 6 8 20 -12 17 -31 -5 -9 -11 -21 -17 -27 -15 -6 2
-38 -9 -71 -26 -32 -16 -67 -30 -77 -30 -10 0 -26 -4 -36 -9 -9 -5 -42 -17
-72 -26 -94 -30 -91 -36 15 -30 407 22 970 213 1380 468 116 72 360 248 430
309 33 29 96 85 140 124 146 129 410 439 471 554 21 40 42 63 78 85 26 17 67
44 90 60 41 31 41 32 44 100 2 64 9 82 77 220 105 211 198 467 250 689 33 140
59 283 76 416 18 138 19 622 1 745 -21 148 -80 438 -112 553 -59 211 -143 426
-236 600 -41 79 -54 113 -54 146 0 29 -7 52 -21 70 -11 14 -26 26 -33 26 -16
0 -86 72 -86 88 0 24 -145 226 -264 369 -91 109 -344 353 -465 449 -328 261
-670 448 -1054 575 -276 92 -628 157 -857 159 -81 0 -88 2 -148 40 -34 22 -68
40 -75 39 -7 0 -37 -17 -69 -38z m-128 -76 c-7 -8 -23 -21 -36 -28 -12 -6 -60
-34 -106 -62 -46 -27 -92 -54 -103 -60 -38 -21 -120 -69 -194 -113 -41 -24
-88 -52 -105 -62 -17 -10 -116 -68 -221 -130 -104 -62 -234 -138 -288 -169
-54 -31 -183 -107 -288 -168 -105 -62 -193 -113 -196 -113 -4 0 -14 -6 -22
-14 -9 -7 -36 -25 -61 -38 -25 -14 -85 -48 -134 -77 -49 -28 -90 -51 -92 -51
-1 0 -39 -23 -84 -51 -45 -28 -97 -59 -116 -70 -19 -10 -51 -29 -71 -40 -21
-12 -50 -30 -65 -40 -14 -11 -29 -19 -33 -19 -4 0 -20 -9 -36 -21 -17 -12 -60
-38 -97 -58 -37 -21 -85 -48 -107 -61 -90 -52 -121 -67 -147 -74 -16 -3 -28
-5 -28 -3 0 10 211 215 227 222 12 5 14 9 6 12 -7 3 -13 9 -13 15 0 6 12 8 31
4 26 -5 30 -4 20 8 -9 10 -9 16 -1 21 8 5 7 12 -2 23 -10 14 -10 15 2 5 8 -7
20 -13 28 -13 9 0 11 7 7 20 -7 22 -5 23 19 14 9 -3 16 -12 16 -20 0 -8 5 -14
10 -14 6 0 10 4 10 9 0 6 -4 13 -10 16 -15 9 -12 25 5 25 8 0 15 9 15 20 0 29
40 80 62 80 11 0 16 5 13 10 -7 11 47 70 63 70 6 0 13 -6 16 -12 3 -7 4 -1 1
13 -4 20 1 31 19 43 38 24 80 66 67 66 -6 0 -11 5 -11 10 0 6 6 10 13 10 8 0
22 9 32 20 10 12 25 18 32 16 7 -3 13 1 13 8 0 7 18 18 40 25 22 6 44 21 50
31 6 11 20 20 30 20 23 0 24 4 10 31 -12 21 -1 26 17 8 9 -9 19 -4 40 18 15
16 44 40 65 52 20 12 39 28 42 36 3 8 14 15 25 15 11 0 32 11 47 25 27 25 58
33 68 16 8 -12 46 -21 46 -10 0 5 -7 9 -15 9 -9 0 -26 9 -38 21 l-22 21 43 -7
c28 -4 42 -3 42 4 0 6 -4 11 -10 11 -21 0 -9 18 17 25 14 3 38 15 52 26 17 14
34 18 55 15 17 -3 25 -3 19 0 -19 8 -16 27 2 20 9 -3 18 1 22 9 4 12 9 13 19
4 9 -7 18 -7 31 0 16 9 16 10 1 11 -9 0 -20 5 -24 11 -5 8 6 9 36 4 33 -6 41
-4 38 6 -6 18 16 39 41 39 11 0 23 5 26 10 3 6 16 10 29 10 12 0 26 4 31 9 6
5 27 14 48 21 20 6 37 16 37 21 0 13 28 11 32 -3 3 -7 10 -8 17 -3 11 6 10 10
-4 17 -15 9 -13 12 12 25 15 8 39 12 52 10 22 -4 123 20 176 43 11 5 54 16 95
25 41 9 83 19 94 22 12 3 16 1 12 -6 -4 -6 0 -11 8 -11 9 0 16 4 16 9 0 14 79
40 135 45 28 2 74 14 103 25 29 12 60 21 70 21 9 0 44 11 77 25 33 13 68 25
79 25 15 0 16 -3 6 -15z m497 -9 c37 -13 93 -30 123 -36 30 -7 74 -21 97 -31
24 -11 54 -19 67 -19 14 0 29 -8 35 -17 8 -15 13 -16 30 -5 28 16 42 15 35 -3
-4 -10 0 -15 14 -15 11 0 22 -5 24 -12 3 -8 12 -9 34 -1 22 8 44 7 77 -1 25
-6 49 -15 53 -19 4 -4 29 -7 56 -7 49 0 57 -7 36 -28 -9 -9 -9 -12 3 -12 8 0
28 4 44 8 17 5 36 7 43 5 20 -7 3 -23 -24 -23 -16 0 -23 -4 -18 -11 4 -7 21
-9 42 -6 20 4 49 0 70 -8 19 -8 47 -15 63 -15 15 0 31 -4 34 -10 3 -5 13 -10
21 -10 8 0 32 -11 52 -25 20 -14 44 -25 53 -25 9 0 20 -7 23 -16 5 -12 14 -15
37 -10 23 4 35 1 52 -17 22 -23 126 -77 150 -77 6 0 25 -14 41 -30 16 -16 42
-35 57 -42 16 -7 29 -19 29 -25 0 -16 22 -17 38 -1 6 6 15 8 19 3 5 -4 2 -10
-4 -12 -17 -6 -16 -23 1 -23 19 0 57 -21 82 -45 42 -39 68 -55 92 -55 19 0 22
-3 13 -13 -16 -20 -3 -27 26 -16 21 8 24 6 19 -8 -3 -13 11 -30 47 -59 29 -23
73 -52 98 -65 25 -14 44 -29 42 -35 -4 -13 102 -124 120 -124 14 0 57 -44 57
-59 0 -5 16 -21 36 -36 23 -17 33 -32 30 -42 -9 -22 13 -45 35 -38 16 5 18 2
13 -24 -6 -29 -5 -31 23 -31 32 0 69 -32 59 -49 -4 -6 7 -17 24 -26 16 -8 30
-22 30 -30 0 -8 5 -15 10 -15 9 0 22 -12 78 -73 4 -4 25 -22 46 -40 55 -46 44
-63 -19 -32 -27 14 -71 37 -97 53 -25 15 -66 38 -90 51 -24 13 -83 48 -132 78
-49 31 -105 64 -123 74 -80 46 -101 58 -156 90 -33 19 -71 41 -85 50 -15 9
-70 41 -122 71 -52 31 -144 85 -205 120 -520 306 -494 291 -575 336 -25 14
-62 36 -82 49 -21 12 -40 23 -42 23 -3 0 -41 23 -86 50 -45 28 -84 50 -86 50
-3 0 -24 13 -47 29 -23 15 -62 39 -86 52 -24 13 -51 29 -61 34 -342 204 -458
275 -470 290 -17 21 -3 19 77 -9z m-302 -6 c3 -5 15 -10 25 -10 11 0 24 -9 30
-20 8 -15 17 -19 35 -14 18 4 27 1 31 -10 4 -11 13 -14 25 -11 12 4 21 1 25
-9 3 -9 12 -16 20 -16 7 0 30 -11 50 -25 20 -14 42 -25 49 -25 7 0 28 -16 48
-35 28 -27 42 -34 60 -30 28 7 57 -16 57 -46 0 -12 7 -19 20 -19 11 0 23 -7
26 -15 4 -8 13 -15 22 -15 8 0 24 -8 34 -17 13 -12 22 -13 29 -6 7 7 17 4 33
-12 13 -13 26 -31 30 -41 5 -13 9 -15 18 -6 16 16 28 15 28 -3 0 -8 7 -15 15
-15 8 0 15 -4 15 -10 0 -5 7 -10 15 -10 9 0 38 -16 66 -35 28 -19 56 -35 61
-35 6 0 6 -6 -1 -14 -16 -19 2 -30 33 -22 15 4 30 -1 43 -13 11 -10 29 -22 40
-25 12 -4 23 -13 26 -20 3 -8 28 -17 56 -21 34 -5 51 -12 51 -21 0 -8 -8 -18
-17 -21 -10 -4 -23 -13 -29 -21 -12 -16 -34 -8 -34 12 0 6 -16 18 -36 25 -27
10 -33 16 -24 26 8 9 5 14 -12 18 -12 4 -27 2 -33 -3 -7 -6 -15 -2 -23 11 -7
10 -18 19 -26 19 -7 0 -19 6 -25 14 -7 8 -25 18 -41 21 -18 4 -37 19 -50 41
-22 34 -44 47 -34 19 4 -8 10 -15 15 -15 5 0 9 -4 9 -10 0 -16 -18 -12 -40 10
-11 11 -30 20 -42 21 -21 0 -20 2 5 11 22 8 26 13 16 24 -9 11 -15 12 -26 3
-11 -10 -20 -8 -41 8 -15 11 -37 23 -48 27 -12 4 -29 15 -39 26 -10 11 -25 20
-34 20 -9 0 -34 7 -56 14 -27 10 -41 21 -43 35 -2 14 -11 21 -26 21 -13 0 -35
9 -49 20 -14 11 -29 20 -34 20 -5 0 -25 12 -44 26 -30 22 -40 25 -83 19 -34
-4 -57 -14 -72 -31 -13 -13 -30 -24 -38 -24 -10 0 -16 -15 -19 -52 -3 -29 -5
-69 -4 -88 0 -19 -1 -78 -2 -132 -2 -53 0 -101 3 -107 4 -6 4 -16 0 -23 -9
-15 -9 -57 0 -79 4 -8 2 -96 -3 -195 -6 -107 -6 -225 -1 -294 9 -106 5 -189
-16 -392 -5 -46 -3 -72 5 -82 9 -10 9 -36 0 -106 -7 -58 -8 -140 -3 -223 4
-73 8 -307 10 -522 1 -214 4 -433 6 -485 3 -82 7 -99 26 -120 12 -13 22 -36
22 -52 0 -15 5 -28 10 -28 6 0 10 9 10 21 0 14 5 19 18 17 9 -2 16 -10 15 -18
-3 -16 44 -43 52 -30 2 4 23 10 44 14 26 4 44 14 51 27 6 11 22 24 36 29 14 6
24 17 24 30 0 26 11 25 32 -4 17 -23 16 -25 -9 -50 -14 -14 -32 -26 -39 -26
-7 0 -18 -9 -24 -20 -6 -11 -20 -20 -31 -20 -12 0 -17 -4 -13 -11 3 -6 -10
-24 -30 -41 -42 -34 -47 -71 -16 -111 11 -14 20 -30 20 -36 0 -6 6 -11 13 -11
16 -1 57 -35 57 -49 0 -6 6 -11 14 -11 29 0 29 -23 0 -47 -34 -27 -44 -29 -44
-8 0 8 7 15 15 15 23 0 18 17 -7 23 -12 4 -28 1 -36 -6 -11 -9 -18 -7 -31 9
-23 28 -48 36 -65 19 -8 -8 -21 -15 -28 -15 -7 0 -19 -14 -27 -31 -7 -17 -24
-34 -37 -39 l-23 -9 -1 -408 c-1 -224 -2 -496 -3 -603 -1 -107 2 -226 7 -264
6 -51 6 -67 -3 -62 -6 4 -11 16 -11 27 0 11 -4 18 -9 15 -10 -7 -11 -116 -1
-116 4 0 11 10 15 23 7 21 8 21 12 -6 3 -16 -2 -48 -10 -71 -14 -42 -13 -129
3 -151 8 -13 5 -287 -5 -387 -6 -56 -5 -78 4 -78 7 0 11 -26 11 -75 0 -43 -4
-75 -10 -75 -6 0 -10 32 -10 75 0 41 -4 75 -8 75 -5 0 -8 -106 -8 -235 0 -129
4 -235 8 -235 4 0 8 15 8 34 0 19 5 38 10 41 6 4 10 -10 10 -34 0 -23 -4 -41
-9 -41 -5 0 -7 -70 -5 -162 3 -111 8 -164 16 -167 6 -2 21 -14 33 -27 12 -13
28 -24 36 -24 7 0 23 -12 35 -28 18 -22 25 -25 35 -14 7 6 28 12 47 12 29 0
33 3 27 20 -6 18 -3 20 19 14 20 -5 26 -2 26 10 0 10 9 16 25 16 14 0 25 5 25
10 0 17 36 11 61 -10 23 -18 23 -19 4 -20 -38 -1 -98 -27 -116 -51 -10 -13
-24 -24 -31 -25 -7 0 -24 -2 -37 -2 -16 -2 -21 -6 -17 -17 4 -10 -3 -19 -18
-25 -13 -5 -33 -18 -44 -30 -19 -21 -21 -21 -31 -3 -10 17 -11 17 -16 -2 -10
-32 -56 -48 -121 -39 -32 4 -58 12 -61 20 -3 8 -12 14 -20 14 -9 0 -32 10 -52
22 -20 13 -44 21 -53 20 -11 -2 -18 3 -18 12 0 10 9 16 22 16 12 0 18 3 14 7
-3 4 -24 6 -46 5 -23 -2 -40 2 -40 8 0 5 -8 10 -19 10 -10 0 -24 7 -31 15 -7
8 -21 15 -31 15 -11 0 -19 7 -19 15 0 11 -8 13 -32 8 -30 -6 -32 -5 -19 11 8
9 11 20 6 24 -4 4 -23 7 -43 7 -30 0 -37 4 -37 20 0 14 -8 21 -25 23 -13 2
-32 13 -42 24 -13 16 -21 18 -31 10 -10 -9 -20 -7 -38 5 -13 10 -33 26 -44 36
-11 10 -28 16 -38 13 -15 -4 -18 0 -14 15 3 11 0 19 -8 19 -7 0 -18 7 -25 15
-7 9 -24 14 -39 13 -22 -3 -26 1 -23 21 1 17 -2 22 -13 17 -9 -3 -19 3 -25 14
-7 14 -21 20 -44 20 -21 0 -42 9 -59 24 -14 13 -28 21 -31 18 -4 -3 -12 2 -19
10 -6 9 -21 18 -31 20 -10 1 -24 12 -30 23 -6 11 -18 24 -26 30 -28 18 -82 34
-97 28 -12 -5 -14 -1 -8 16 5 16 1 23 -17 30 -27 10 -39 4 -18 -9 25 -16 4
-21 -24 -6 -25 13 -26 15 -10 24 17 9 16 11 -9 23 -15 7 -27 16 -27 22 0 5
-11 6 -25 3 -17 -4 -30 0 -44 15 -24 26 -67 49 -93 49 -11 0 -22 8 -25 19 -6
24 -94 64 -119 54 -13 -5 -16 -3 -11 10 7 17 -8 31 -33 32 -18 0 -80 49 -80
62 0 5 -16 7 -35 5 -25 -3 -36 0 -41 12 -3 9 -12 16 -20 16 -8 0 -14 5 -14 10
0 6 5 10 11 10 5 0 7 5 3 12 -6 9 -9 9 -12 0 -5 -17 -32 -15 -32 3 0 8 -7 15
-15 15 -8 0 -15 5 -15 10 0 6 -9 10 -20 10 -11 0 -20 5 -20 11 0 6 -8 8 -18 5
-11 -4 -27 2 -40 14 -11 11 -29 20 -38 20 -14 0 -14 3 -4 15 20 24 0 38 -34
25 -43 -16 -53 -11 -26 12 25 21 25 21 2 15 -14 -3 -39 3 -63 16 -21 11 -39
24 -39 29 0 4 -5 8 -11 8 -6 0 -22 9 -36 20 -14 11 -36 20 -48 20 -12 0 -27 6
-33 13 -9 10 -6 18 10 31 17 15 25 16 40 7 10 -6 25 -11 34 -11 9 0 38 -18 65
-41 34 -29 49 -36 49 -25 0 9 7 16 15 16 18 0 20 -36 3 -43 -7 -3 2 -3 20 0
25 4 32 2 32 -10 0 -9 13 -18 31 -22 17 -4 33 -13 36 -21 3 -8 10 -14 17 -14
6 0 26 -13 44 -30 18 -16 39 -30 47 -30 8 0 16 -4 20 -9 3 -6 26 -13 51 -17
31 -4 44 -10 40 -19 -3 -8 2 -19 10 -25 11 -10 14 -9 14 4 0 9 7 16 16 16 10
0 14 -6 11 -15 -4 -8 -2 -17 3 -20 6 -4 10 -1 10 4 0 6 7 11 16 11 13 0 14 -3
5 -14 -10 -12 -6 -15 18 -21 17 -3 31 -14 34 -26 3 -13 14 -19 31 -19 16 0 26
-6 26 -14 0 -8 14 -19 30 -25 17 -5 30 -15 30 -20 0 -6 8 -11 18 -11 9 0 26
-7 36 -15 11 -8 26 -15 34 -15 8 0 23 -11 34 -25 11 -14 25 -25 33 -25 7 0 18
-7 25 -15 7 -8 25 -15 41 -15 34 0 80 -20 73 -31 -8 -13 -21 -11 -38 7 -9 8
-21 12 -27 9 -6 -5 -2 -13 13 -23 13 -9 27 -17 33 -18 5 0 17 -2 26 -2 9 -1
26 -11 39 -22 13 -11 32 -20 43 -20 13 0 17 -5 13 -16 -4 -12 -1 -14 13 -9 12
3 23 0 28 -8 11 -19 67 -29 82 -14 8 8 11 7 11 -4 0 -8 -6 -21 -12 -28 -11
-11 -8 -12 16 -7 27 7 28 6 15 -10 -12 -15 -11 -16 19 -10 20 5 32 4 32 -3 0
-5 -4 -13 -10 -16 -5 -3 -10 -13 -10 -22 0 -14 2 -14 19 1 24 22 50 15 85 -24
14 -17 35 -30 46 -30 12 0 30 -9 41 -19 11 -10 40 -24 65 -31 44 -13 55 -24
32 -33 -7 -2 -10 -7 -6 -11 3 -4 15 -2 27 5 11 7 24 9 28 5 4 -5 2 -11 -4 -13
-23 -8 -14 -19 15 -18 20 0 27 -5 26 -18 -1 -11 5 -17 21 -17 13 0 25 -6 28
-14 3 -7 18 -17 34 -20 15 -4 37 -16 48 -26 29 -26 66 -35 76 -19 6 10 9 8 9
-8 0 -13 6 -23 13 -23 7 0 28 -16 47 -35 19 -20 44 -35 56 -35 13 0 26 -5 29
-11 5 -6 12 -4 21 8 13 17 14 17 20 -4 5 -17 14 -23 36 -23 16 0 41 9 55 20
16 12 20 20 11 20 -8 0 -19 -5 -26 -12 -8 -8 -15 -9 -23 -1 -7 7 0 15 25 27
20 9 36 23 36 31 0 8 8 20 18 27 26 18 32 53 15 78 -10 14 -12 29 -6 48 6 22
7 372 1 850 0 34 0 100 0 147 0 47 1 95 1 108 0 12 2 180 6 372 3 217 2 358
-4 370 -5 11 -14 53 -20 94 -5 41 -15 77 -22 81 -6 5 -10 19 -7 34 6 30 -11
36 -19 6 -3 -11 -9 -17 -14 -14 -5 3 -7 10 -3 15 3 6 3 17 -1 26 -5 14 -10 11
-25 -15 -22 -36 -45 -43 -37 -12 3 13 0 20 -8 20 -20 0 -30 -21 -15 -30 15 -9
4 -50 -14 -50 -20 0 -55 -47 -50 -67 3 -10 -9 -40 -26 -66 -16 -26 -30 -54
-30 -61 0 -8 -8 -31 -17 -52 -9 -22 -15 -49 -14 -61 1 -13 -5 -35 -13 -50 -9
-16 -29 -68 -44 -116 -16 -48 -37 -98 -47 -109 -12 -15 -14 -23 -7 -26 7 -2
12 -10 12 -19 0 -10 -6 -12 -21 -8 -19 6 -20 4 -14 -23 3 -17 2 -33 -4 -36 -6
-4 -8 -13 -5 -21 3 -8 -1 -22 -10 -30 -9 -9 -16 -33 -16 -54 0 -25 -7 -44 -20
-56 -12 -11 -20 -31 -20 -51 0 -18 -4 -35 -9 -39 -5 -3 -12 -19 -16 -35 -4
-17 -11 -30 -16 -30 -5 0 -6 -12 -3 -26 l6 -25 -73 38 c-40 21 -80 46 -89 56
-16 19 -50 40 -92 58 -16 6 -28 14 -28 19 0 4 -9 10 -20 13 -11 3 -24 17 -30
31 -5 14 -13 26 -18 26 -9 0 -26 70 -37 155 -4 28 -11 55 -15 60 -5 6 -11 42
-14 80 -6 81 -15 125 -28 142 -6 8 -6 25 2 47 14 43 4 66 -16 39 -13 -17 -13
-17 -14 3 0 11 3 24 7 27 10 10 8 74 -3 89 -23 30 -33 67 -39 138 -7 85 -32
184 -56 218 -10 14 -22 20 -33 16 -9 -3 -16 -2 -16 4 0 6 4 12 10 14 6 2 6 8
0 18 -8 13 -10 12 -10 -3 0 -11 -5 -17 -12 -14 -7 2 -13 14 -12 26 0 11 -5 21
-13 21 -7 0 -13 -7 -13 -16 0 -11 -6 -14 -21 -9 -19 6 -21 4 -15 -19 5 -19 3
-26 -9 -26 -8 0 -15 7 -15 15 0 8 -4 15 -10 15 -5 0 -10 -8 -10 -19 0 -10 -6
-23 -13 -29 -7 -6 -19 -27 -27 -47 -7 -19 -18 -35 -23 -35 -5 0 -6 -7 -3 -16
3 -8 0 -33 -7 -55 -8 -26 -18 -39 -30 -39 -14 0 -16 -5 -11 -25 3 -14 2 -25
-3 -25 -6 0 -8 -21 -5 -48 3 -35 0 -51 -12 -61 -10 -9 -13 -22 -9 -42 3 -18 1
-29 -6 -29 -6 0 -11 5 -11 10 0 6 -4 10 -9 10 -4 0 -9 -27 -10 -59 0 -32 -8
-72 -16 -87 -8 -16 -15 -35 -15 -42 0 -7 -4 -20 -9 -30 -5 -9 -12 -25 -15 -36
-6 -17 -8 -18 -24 -2 -10 9 -28 16 -39 16 -11 0 -30 9 -43 20 -19 16 -26 18
-38 7 -13 -10 -15 -9 -9 6 5 12 1 17 -13 17 -11 0 -20 5 -20 11 0 7 -10 9 -24
7 -18 -4 -22 -1 -19 13 4 14 -3 20 -28 26 -20 5 -38 18 -44 31 -5 12 -15 22
-22 22 -7 0 -27 8 -45 18 -58 32 -148 25 -171 -14 -11 -19 -27 -18 -27 2 0 8
-5 12 -10 9 -6 -4 -9 -13 -8 -20 4 -20 -9 -17 -37 9 -21 20 -23 25 -9 30 8 3
29 6 45 6 16 0 29 5 29 10 0 6 15 10 33 10 27 1 29 2 14 11 -14 8 -16 14 -6
25 6 8 20 14 31 14 15 0 19 5 15 20 -6 23 -3 24 24 9 18 -9 19 -7 13 15 -5 20
-2 26 10 26 9 0 16 5 16 10 0 6 -5 10 -11 10 -7 0 -6 8 3 23 19 28 34 102 19
92 -7 -4 -11 5 -11 22 0 16 -5 34 -12 41 -6 6 -11 34 -10 62 0 27 -3 50 -7 50
-5 0 -12 34 -16 75 -4 41 -11 77 -16 81 -5 3 -9 20 -9 39 0 19 -4 36 -9 39 -5
3 -12 32 -16 63 -4 32 -13 69 -20 83 -7 14 -16 44 -20 68 -4 23 -11 42 -17 42
-7 0 -7 4 -1 13 7 8 7 35 -1 82 -6 39 -15 76 -19 83 -5 6 -6 16 -3 21 3 5 -1
28 -9 51 -8 23 -15 60 -15 81 0 28 -4 39 -15 39 -18 0 -19 12 -3 28 7 7 8 15
1 24 -17 24 -36 96 -30 120 3 12 2 42 -2 65 -5 23 -7 44 -4 46 2 2 26 0 53 -6
39 -7 50 -14 50 -28 0 -21 16 -26 22 -7 2 6 10 8 17 4 9 -6 9 -11 -1 -24 -12
-14 -8 -15 36 -9 41 6 47 5 37 -7 -10 -12 -8 -19 6 -33 11 -11 27 -55 38 -98
16 -68 17 -87 6 -138 -12 -58 -12 -60 14 -87 16 -17 23 -33 19 -43 -3 -10 1
-33 11 -53 9 -19 15 -41 12 -47 -2 -7 0 -35 5 -62 5 -28 17 -102 28 -165 10
-63 23 -135 29 -160 6 -25 10 -70 11 -100 0 -30 6 -67 14 -82 8 -15 12 -37 9
-48 -5 -19 -2 -20 23 -15 20 5 25 4 16 -3 -22 -15 -10 -47 16 -47 13 0 30 -8
37 -18 25 -35 78 1 114 76 13 27 30 51 37 54 9 3 12 14 8 29 -4 16 -1 26 10
30 12 5 14 15 10 47 -5 34 -2 46 16 65 12 12 20 33 18 45 -1 12 0 27 3 32 4 6
14 44 24 85 10 41 21 79 26 85 5 5 9 19 9 31 0 13 5 26 10 29 6 3 10 17 10 30
0 13 5 27 10 30 8 5 7 11 -1 21 -9 11 -9 20 -1 37 7 12 16 34 21 49 8 21 16
26 36 24 14 -1 28 -6 32 -9 3 -4 17 -7 31 -7 15 0 26 -7 29 -20 3 -11 14 -20
24 -20 11 0 22 -7 25 -15 4 -8 15 -15 26 -15 15 0 18 -5 13 -20 -5 -15 -3 -18
8 -14 8 3 18 1 22 -5 3 -6 15 -11 25 -11 24 0 50 -37 50 -71 0 -27 58 -149 71
-149 4 0 9 7 13 15 3 8 13 15 21 15 13 0 15 -6 10 -31 -7 -31 -7 -31 15 -16
12 8 28 13 36 10 11 -4 40 8 94 38 8 5 26 14 39 19 13 6 37 25 53 42 25 27 32
30 49 20 15 -10 23 -9 38 0 11 7 26 23 33 36 13 25 56 48 67 36 3 -4 0 -9 -7
-11 -10 -4 -10 -10 3 -29 15 -23 14 -24 -5 -24 -11 0 -20 -4 -20 -8 0 -12 -72
-42 -101 -42 -19 0 -21 -2 -9 -10 8 -5 12 -11 10 -13 -10 -7 -117 -57 -124
-57 -4 0 -26 -15 -48 -34 -22 -19 -55 -42 -74 -51 -19 -9 -34 -22 -34 -29 0
-8 -9 -20 -20 -27 -12 -8 -22 -25 -23 -39 0 -14 -5 -28 -9 -31 -4 -3 -3 -31 3
-63 6 -32 8 -65 5 -73 -3 -8 1 -24 9 -37 10 -15 16 -53 18 -108 1 -62 5 -84
14 -81 8 3 12 -5 12 -24 0 -15 4 -77 9 -137 6 -84 12 -111 25 -121 9 -7 17
-21 17 -31 0 -24 10 -39 33 -47 13 -5 16 -13 12 -26 -5 -17 -1 -19 37 -17 24
2 48 -1 54 -6 8 -6 17 7 30 42 10 27 24 50 31 50 18 0 36 45 40 103 1 26 9 60
16 75 8 15 17 47 21 71 4 24 16 55 27 69 15 20 17 27 7 33 -10 7 -11 12 0 29
6 11 12 27 12 35 0 21 18 19 22 -2 3 -10 3 15 2 55 -1 39 2 72 7 72 5 0 9 -4
9 -10 0 -5 3 -10 8 -10 4 0 7 21 8 48 0 26 9 66 19 90 15 34 24 42 46 42 14 0
32 -7 39 -15 7 -9 21 -13 35 -9 16 4 26 -1 39 -20 9 -14 23 -26 31 -26 8 0 18
-8 24 -17 7 -14 12 -15 24 -5 11 10 17 9 27 -3 7 -8 18 -15 26 -15 7 0 17 -7
22 -16 7 -12 17 -14 45 -9 32 6 36 10 31 30 -4 17 0 26 15 35 12 6 21 17 21
25 0 8 5 15 10 15 6 0 10 -7 10 -16 0 -8 5 -12 11 -8 8 4 10 82 7 254 l-3 248
-31 38 c-46 57 -84 62 -169 23 -11 -6 -31 -11 -44 -12 -14 -1 -26 -9 -29 -19
-2 -10 -13 -18 -24 -18 -15 0 -18 -5 -13 -20 7 -23 2 -25 -26 -10 -16 9 -19 7
-19 -10 0 -15 -7 -20 -25 -20 -14 0 -25 5 -25 10 0 6 5 10 11 10 7 0 9 10 5
25 -5 20 -1 27 24 40 16 9 30 20 30 26 0 6 6 9 14 6 16 -7 74 27 82 48 4 8 17
15 30 15 19 0 24 5 24 24 0 14 5 28 10 31 6 3 10 17 10 31 0 13 5 33 12 43 9
15 8 24 -5 45 -10 14 -26 26 -37 26 -12 0 -25 10 -32 25 -12 26 -57 61 -72 57
-5 -2 -16 4 -26 13 -10 9 -24 13 -35 9 -13 -5 -16 -3 -13 7 6 17 -15 39 -37
39 -9 0 -19 9 -22 20 -3 11 -7 20 -10 20 -2 0 -13 -5 -23 -10 -15 -8 -23 -6
-38 10 -12 13 -25 18 -36 14 -12 -5 -18 1 -22 25 -5 22 -10 29 -18 22 -8 -7
-16 -4 -23 9 -7 10 -30 21 -52 25 -25 4 -41 12 -41 21 0 7 -9 18 -20 24 -11 6
-20 17 -20 25 0 18 -12 19 -28 3 -10 -10 -14 -8 -18 10 -7 23 -10 25 -63 26
-37 1 -58 26 -22 26 12 0 21 5 21 11 0 6 -9 8 -20 4 -12 -4 -26 0 -36 9 -17
18 -50 21 -59 6 -11 -18 -26 -10 -20 10 5 14 2 20 -9 20 -9 0 -16 7 -16 15 0
8 -7 15 -15 15 -8 0 -15 5 -15 10 0 6 -7 10 -15 10 -16 0 -49 17 -77 38 -9 8
-25 11 -35 8 -22 -7 -48 8 -39 23 4 7 -1 11 -12 11 -11 0 -22 6 -25 14 -3 8
-21 20 -41 27 -19 7 -40 23 -47 36 -10 19 -18 23 -38 18 -20 -4 -28 -1 -36 17
-6 13 -20 24 -32 26 -13 2 -23 8 -23 14 0 6 -9 8 -20 5 -17 -4 -19 -2 -14 20
6 24 5 25 -20 19 -21 -5 -37 2 -81 34 -30 22 -58 40 -62 40 -4 0 -21 11 -37
24 l-30 23 23 12 c20 11 26 10 46 -9 13 -12 28 -19 34 -15 6 3 11 1 11 -5 0
-6 11 -15 25 -20 14 -5 25 -14 25 -19 0 -6 16 -13 35 -17 19 -3 35 -10 35 -15
0 -5 9 -9 20 -9 17 0 19 -4 14 -26 -6 -25 -5 -26 20 -20 19 5 26 3 26 -9 0 -8
9 -15 20 -15 11 0 20 -4 20 -10 0 -5 8 -10 18 -10 44 0 100 -25 135 -61 22
-21 43 -37 47 -34 13 8 59 -19 71 -42 7 -13 18 -23 25 -23 8 0 28 -9 46 -20
18 -11 41 -20 51 -20 9 0 17 -7 17 -15 0 -8 -4 -15 -10 -15 -5 0 -10 -5 -10
-11 0 -6 9 -8 20 -4 12 4 26 2 33 -3 7 -6 32 -16 56 -23 27 -8 46 -20 49 -31
3 -12 10 -17 22 -13 10 3 28 -5 44 -20 15 -14 38 -28 52 -31 14 -4 28 -13 31
-20 3 -8 14 -14 24 -14 10 0 19 -5 19 -10 0 -6 11 -8 25 -4 25 6 36 -10 13
-19 -7 -3 -1 -6 13 -6 15 -1 29 -8 32 -15 3 -8 25 -20 47 -26 30 -8 47 -20 61
-45 15 -25 28 -34 54 -37 19 -2 35 0 35 4 0 4 4 8 9 8 6 0 9 -12 8 -27 -1 -15
3 -28 10 -28 6 0 15 -3 19 -7 4 -5 13 -8 21 -8 7 0 30 -11 51 -23 20 -13 44
-24 52 -25 8 0 34 -6 58 -13 47 -13 62 -8 43 15 -15 18 1 30 28 21 24 -7 37
10 15 19 -14 5 -12 10 10 33 28 28 28 24 32 238 1 61 2 113 3 118 5 25 1 275
-5 291 -4 10 -6 75 -5 145 4 210 5 849 2 961 -3 104 6 364 14 387 2 6 -1 29
-7 50 -6 21 -10 61 -10 88 0 126 6 216 13 221 5 2 4 17 -2 31 -5 15 -7 34 -4
42 5 13 9 245 6 299 -1 6 -7 12 -15 12 -8 0 -16 6 -19 14 -3 7 -19 16 -36 19
-18 4 -31 13 -31 21 0 23 -39 30 -60 11 -12 -11 -26 -14 -39 -10 -12 3 -21 2
-21 -3 0 -15 -69 -52 -75 -41 -7 11 -26 12 -23 2 3 -18 -16 -43 -42 -57 -21
-10 -31 -11 -40 -2 -8 8 -16 4 -32 -16 -11 -16 -25 -28 -32 -28 -7 0 -21 -9
-30 -19 -10 -11 -31 -23 -47 -26 -57 -13 -122 -55 -85 -55 9 0 16 -5 16 -11 0
-7 -12 -9 -32 -7 -22 4 -36 0 -44 -10 -6 -8 -23 -14 -38 -14 -15 0 -30 -6 -33
-14 -9 -24 -52 -45 -78 -38 -26 6 -35 34 -12 34 7 0 33 17 56 37 31 26 53 37
77 37 21 1 34 6 34 14 0 8 14 19 30 25 17 6 30 17 30 24 0 7 11 13 24 13 13 0
29 7 36 15 7 8 21 15 30 15 10 0 20 3 22 8 2 4 17 15 33 24 20 11 29 24 28 37
-2 18 0 19 24 10 18 -7 30 -6 37 1 7 7 6 10 -2 10 -7 0 -12 5 -12 11 0 6 9 9
20 6 10 -3 25 2 31 10 8 9 21 12 35 9 15 -4 27 0 36 11 8 10 28 31 46 48 26
23 35 27 41 16 10 -16 31 -6 31 15 0 8 5 14 11 14 6 0 17 7 26 16 11 11 19 12
26 5 16 -16 40 -13 34 3 -8 20 48 32 68 16 9 -7 15 -8 15 -2 0 5 -7 15 -15 22
-17 14 -20 40 -6 40 6 0 13 -4 16 -10z m-121 -1681 c1 -778 6 -1426 10 -1441
7 -22 5 -28 -6 -28 -9 0 -26 8 -39 19 -25 19 -266 168 -333 205 -21 11 -46 26
-55 31 -9 6 -63 37 -119 70 -57 33 -111 65 -120 70 -9 6 -51 30 -92 54 -41 24
-109 64 -150 89 -41 25 -100 59 -130 75 -65 35 -259 149 -312 183 -21 13 -40
24 -44 24 -3 0 -18 8 -32 19 -15 10 -72 44 -127 76 -55 31 -114 68 -132 81
-18 14 -63 41 -100 60 -37 20 -69 40 -71 45 -2 5 -8 9 -14 9 -5 0 -106 56
-224 125 -117 69 -217 125 -220 125 -4 0 -15 6 -23 14 -26 22 -110 66 -127 66
-27 0 -11 33 21 43 17 6 84 42 150 82 123 73 282 167 345 203 19 11 82 48 140
82 105 63 136 81 220 128 25 14 63 36 85 50 56 36 207 122 212 122 3 0 17 8
31 19 15 10 43 28 62 38 19 11 100 58 180 105 80 47 204 119 275 160 375 217
671 391 693 409 15 11 29 16 34 11 5 -5 10 -619 12 -1423z m303 1418 c7 -12
151 -99 303 -185 25 -14 83 -49 130 -78 47 -28 186 -110 310 -181 124 -71 320
-185 435 -253 321 -188 376 -220 382 -220 3 0 17 -8 31 -19 25 -17 47 -30 140
-82 20 -11 80 -47 132 -79 245 -148 476 -282 532 -308 21 -9 38 -22 38 -28 0
-6 -24 -21 -52 -35 -29 -13 -84 -42 -123 -65 -38 -23 -103 -61 -144 -85 -41
-24 -95 -56 -120 -72 -25 -15 -68 -39 -96 -53 -27 -15 -84 -46 -125 -71 -84
-49 -79 -46 -175 -105 -38 -23 -90 -53 -115 -67 -25 -13 -57 -32 -72 -42 -14
-11 -29 -19 -33 -19 -4 0 -20 -9 -35 -20 -15 -11 -54 -35 -87 -54 -32 -18
-163 -94 -292 -170 -129 -75 -236 -136 -239 -136 -3 0 -13 -6 -21 -14 -9 -7
-70 -45 -136 -83 -284 -164 -494 -289 -548 -325 -68 -46 -91 -45 -77 3 11 38
16 2802 5 2819 -11 18 3 40 24 40 11 0 24 -6 28 -13z m-1083 -279 c-3 -5 -14
-6 -25 -3 -12 4 -21 1 -25 -9 -3 -9 -11 -13 -17 -9 -6 4 1 15 18 29 22 17 33
20 42 12 7 -5 10 -14 7 -20z m40 -4 c25 -10 1 -32 -43 -40 -45 -8 -91 -31
-111 -54 -18 -21 -105 -70 -125 -70 -8 0 -15 -7 -15 -16 0 -12 -7 -14 -30 -9
-20 4 -30 3 -30 -5 0 -7 9 -14 20 -17 29 -8 24 -23 -8 -23 -22 0 -30 7 -39 30
-11 30 -11 31 33 51 24 12 47 25 50 30 3 5 14 9 24 9 10 0 34 14 52 30 18 17
40 30 50 30 10 0 18 5 18 10 0 6 13 10 29 10 17 0 33 5 36 10 3 6 17 10 31 10
13 0 24 5 24 10 0 11 11 13 34 4z m-94 -84 c0 -5 -7 -10 -15 -10 -8 0 -15 5
-15 10 0 6 7 10 15 10 8 0 15 -4 15 -10z m2108 -29 c9 -5 38 -15 65 -22 36 -9
47 -16 47 -31 0 -11 9 -22 20 -25 10 -3 22 -14 25 -24 4 -10 14 -19 24 -19 9
0 22 -5 28 -11 7 -7 29 -12 49 -13 37 -1 58 -20 32 -29 -7 -2 -1 -2 15 0 27 5
38 -11 15 -20 -7 -3 -2 -6 12 -7 73 -5 96 -14 71 -29 -9 -6 -5 -10 15 -15 15
-4 45 -22 68 -40 23 -18 46 -31 53 -29 6 2 14 -1 18 -6 3 -6 17 -11 31 -11 25
0 33 -15 12 -23 -7 -2 4 -9 25 -16 20 -7 42 -22 48 -32 8 -15 14 -18 23 -10
14 12 27 1 39 -32 6 -15 13 -17 37 -12 26 6 30 4 30 -14 0 -16 7 -21 28 -23
15 0 35 0 46 0 12 2 16 -3 13 -12 -4 -10 0 -12 14 -9 10 3 19 0 19 -6 0 -6 -4
-11 -10 -11 -5 0 -10 -7 -10 -16 0 -11 5 -14 16 -10 22 8 78 -18 98 -45 14
-20 18 -22 26 -9 8 13 10 12 10 -2 0 -11 8 -18 19 -18 10 0 35 -13 55 -29 20
-16 51 -32 70 -35 23 -4 36 -13 39 -27 3 -12 10 -18 16 -14 6 3 26 -5 44 -19
19 -15 39 -26 45 -26 6 0 23 -15 37 -32 17 -21 29 -28 32 -20 2 6 10 12 16 12
6 0 32 -18 58 -40 26 -22 54 -40 63 -40 8 0 21 -8 28 -18 7 -10 28 -25 46 -33
17 -7 32 -18 32 -22 0 -5 8 -6 18 -3 12 4 22 -5 35 -33 9 -21 17 -49 16 -62
-1 -37 13 -103 24 -110 10 -7 18 -511 9 -562 l-5 -28 -27 26 c-18 17 -26 33
-23 46 4 15 9 17 18 9 8 -7 16 -7 19 -2 3 6 -1 15 -9 22 -11 9 -15 33 -15 86
0 40 5 76 10 79 6 3 10 27 9 53 0 39 -2 43 -10 24 -15 -39 -29 -14 -29 53 0
35 -4 66 -9 69 -5 3 -7 15 -4 26 3 11 2 27 -1 37 -5 12 -9 14 -18 5 -18 -18
-31 -14 -25 8 4 15 0 20 -14 20 -10 0 -19 7 -19 15 0 8 -7 15 -15 15 -8 0 -15
7 -15 16 0 11 -6 14 -22 9 -13 -4 -32 -16 -44 -26 -24 -23 -54 -25 -54 -4 0 8
-7 15 -15 15 -24 0 -17 -27 13 -49 l27 -20 -27 -1 c-15 0 -29 4 -32 9 -4 5
-18 6 -33 2 -18 -5 -30 -17 -36 -37 -14 -43 -26 -54 -58 -54 -15 0 -31 -5 -35
-11 -3 -6 -17 -8 -31 -4 -16 4 -22 2 -18 -5 10 -16 -14 -40 -42 -40 -35 0 -95
-28 -91 -42 5 -13 -51 -48 -75 -48 -7 0 -18 -5 -25 -12 -9 -9 -9 -15 0 -25 9
-12 7 -13 -15 -8 -21 6 -27 4 -27 -10 0 -13 -6 -16 -25 -11 -18 5 -25 2 -25
-8 0 -8 -16 -20 -36 -26 -20 -7 -45 -23 -57 -36 -11 -13 -26 -24 -32 -24 -7 0
-27 -7 -45 -16 -27 -14 -34 -14 -42 -3 -8 11 -9 10 -4 -3 7 -23 -3 -48 -19
-48 -13 0 -76 -30 -85 -41 -3 -3 -21 -11 -40 -18 -19 -6 -44 -21 -57 -32 -28
-27 -52 -19 -46 14 3 16 16 28 39 36 52 19 129 64 116 69 -7 2 -12 8 -12 14 0
5 9 6 20 3 11 -4 20 -2 20 4 0 6 6 11 13 11 8 0 32 13 54 29 23 16 60 35 84
42 24 7 50 21 57 31 7 10 23 18 35 18 12 0 28 9 35 20 7 12 23 20 39 20 26 0
26 1 7 15 -18 14 -18 14 6 15 14 0 36 7 48 16 13 9 30 13 38 10 12 -5 14 -1 9
15 -5 16 -3 20 6 17 8 -3 29 4 47 14 18 10 46 18 62 18 25 0 30 4 30 25 0 15
6 25 14 25 7 0 19 7 26 15 7 9 20 15 29 14 31 -3 40 1 35 16 -4 10 7 19 35 31
23 9 41 20 41 25 0 5 8 9 18 9 19 0 52 33 52 51 0 7 11 9 26 6 18 -3 24 -1 20
9 -3 8 6 25 20 39 18 18 23 31 19 46 -4 11 -2 26 4 33 8 10 7 17 -4 26 -8 7
-15 19 -15 27 0 10 -6 13 -16 9 -10 -4 -18 0 -21 13 -3 11 -11 17 -18 15 -23
-9 -27 15 -6 38 12 12 21 25 21 30 0 11 -18 10 -25 -1 -3 -6 -19 -17 -36 -25
-29 -14 -30 -14 -24 5 5 15 2 19 -19 19 -17 0 -26 6 -26 15 0 9 -10 20 -22 26
-13 5 -34 16 -48 24 -14 8 -33 15 -42 15 -11 0 -15 5 -12 15 4 9 0 15 -10 15
-9 0 -16 4 -16 9 0 5 -9 11 -20 14 -11 3 -24 17 -30 31 -5 14 -15 26 -21 26
-6 0 -9 -7 -5 -15 3 -9 0 -15 -8 -15 -8 0 -17 7 -20 16 -4 10 -13 13 -26 9
-11 -4 -20 -2 -20 4 0 6 -6 11 -12 11 -7 0 -20 15 -29 33 -12 25 -23 32 -45
32 -16 1 -39 4 -52 9 -17 6 -21 12 -16 32 6 22 3 24 -32 24 -45 0 -70 13 -60
29 5 8 -4 10 -33 5 -32 -5 -41 -3 -41 8 0 8 6 20 13 27 10 11 6 12 -20 6 -26
-5 -36 -1 -61 22 -24 23 -83 63 -102 68 -27 8 -58 26 -69 39 -7 9 -20 16 -27
16 -8 0 -14 5 -14 10 0 6 -11 10 -25 10 -14 0 -25 6 -25 13 0 18 -46 37 -59
24 -5 -5 -18 -7 -28 -3 -15 6 -15 8 -3 16 13 8 12 10 -2 10 -10 0 -18 4 -18 9
0 5 -17 16 -37 25 -49 21 -76 38 -86 54 -5 7 -17 10 -27 7 -10 -3 -21 -1 -25
5 -3 5 -15 10 -26 10 -24 0 -26 20 -1 21 9 0 -9 10 -40 21 -32 11 -58 24 -58
29 0 13 54 11 68 -3 17 -17 27 -2 12 17 -10 12 -24 14 -61 9 -49 -7 -60 1 -37
24 14 14 32 15 56 3z m-2478 -127 c0 -14 1 -14 16 0 8 9 22 16 30 16 24 0 16
-30 -11 -40 -15 -6 -25 -17 -25 -30 0 -11 -4 -20 -10 -20 -5 0 -10 3 -10 8 0
4 -16 7 -35 7 -34 0 -47 -9 -23 -17 19 -7 -2 -28 -28 -28 -13 0 -24 -4 -24
-10 0 -5 -6 -10 -14 -10 -7 0 -21 -11 -29 -24 -11 -16 -30 -26 -57 -31 -23 -4
-44 -14 -47 -22 -3 -8 -12 -12 -19 -9 -8 3 -20 -3 -26 -14 -7 -11 -21 -20 -30
-20 -10 0 -18 -4 -18 -9 0 -5 -16 -15 -35 -21 -20 -7 -56 -27 -81 -46 -24 -19
-48 -34 -53 -34 -5 0 -14 -6 -20 -14 -7 -8 -46 -31 -87 -51 -42 -21 -84 -46
-94 -57 -10 -11 -23 -17 -29 -14 -6 4 -19 -2 -31 -14 -11 -11 -26 -20 -34 -20
-8 0 -16 -6 -19 -14 -3 -8 -26 -18 -51 -21 -29 -5 -46 -12 -46 -21 0 -8 -5
-14 -11 -14 -7 0 -9 -9 -6 -21 5 -20 3 -21 -34 -16 -35 5 -40 3 -45 -19 -3
-13 -13 -24 -21 -24 -11 0 -13 7 -9 25 5 18 2 25 -8 25 -7 0 -16 -9 -19 -21
-6 -21 -27 -18 -27 4 0 15 49 46 70 45 8 -1 27 0 42 0 19 2 26 6 22 16 -7 19
33 59 53 52 8 -4 27 6 45 24 16 17 40 30 54 30 13 0 33 9 44 20 11 11 33 20
50 20 17 0 30 5 30 11 0 7 8 18 18 25 10 8 12 13 5 14 -7 0 -13 4 -13 8 0 13
50 33 61 26 6 -3 18 1 27 9 32 29 115 67 145 67 29 0 30 1 11 15 -20 15 -18
17 36 19 16 1 24 6 23 16 -3 18 63 64 78 54 6 -3 24 3 40 15 15 11 32 21 36
21 4 1 18 9 31 19 13 12 20 25 16 35 -5 12 -2 15 10 10 8 -3 23 1 31 10 9 9
27 16 40 16 41 0 75 18 75 40 0 13 7 20 20 20 12 0 20 -7 20 -16z m-1142 -346
c-2 -6 -10 -14 -16 -16 -7 -2 -10 2 -6 12 7 18 28 22 22 4z m4577 -148 c3 -5
2 -10 -4 -10 -5 0 -13 5 -16 10 -3 6 -2 10 4 10 5 0 13 -4 16 -10z m-4575
-170 c5 0 21 -5 37 -11 22 -8 24 -12 13 -19 -19 -12 -117 -13 -124 -1 -9 15
22 33 43 26 15 -4 20 -2 18 7 -2 7 -2 10 0 6 3 -5 8 -8 13 -8z m-74 -76 c-3
-8 1 -14 9 -14 8 0 15 -5 15 -11 0 -7 -11 -8 -30 -4 -20 4 -35 2 -45 -9 -20
-19 -19 -26 3 -27 13 0 14 -2 2 -6 -39 -13 -60 -28 -60 -45 0 -10 -4 -18 -10
-18 -5 0 -10 -7 -10 -15 0 -8 4 -15 9 -15 5 0 12 -13 16 -29 3 -16 18 -41 33
-56 22 -22 24 -28 12 -36 -11 -6 -9 -9 11 -9 15 0 29 -7 33 -15 3 -8 15 -15
26 -15 11 0 20 -4 20 -10 0 -5 -10 -10 -22 -10 -16 0 -19 -3 -10 -9 7 -4 24
-6 36 -4 29 6 43 -14 24 -33 -15 -15 -48 -10 -48 7 0 5 -8 9 -19 9 -30 0 -85
26 -72 34 6 4 8 12 5 18 -4 6 -10 6 -17 -1 -16 -16 -47 -13 -47 5 0 9 -7 14
-17 12 -22 -4 -29 -28 -9 -28 9 0 16 -4 16 -10 0 -13 -23 -13 -36 0 -16 16
-36 4 -68 -42 l-29 -41 0 -481 c0 -264 1 -544 3 -621 1 -77 -3 -201 -9 -275
-16 -177 -12 -729 5 -750 15 -18 7 -70 -12 -77 -16 -6 -19 -33 -4 -33 6 0 10
-61 11 -162 0 -90 4 -232 8 -316 6 -123 10 -156 24 -169 11 -11 17 -13 17 -5
0 7 5 12 11 12 6 0 8 -9 4 -20 -5 -15 -3 -18 9 -14 11 4 16 1 16 -10 0 -9 8
-20 18 -23 9 -4 23 -13 31 -20 11 -12 16 -12 30 0 9 8 22 12 30 10 9 -4 11 0
7 15 -6 17 -1 21 31 27 21 4 32 10 26 12 -25 9 -12 23 20 23 18 0 42 7 53 15
10 8 27 15 36 15 10 0 22 9 28 20 14 27 62 50 88 43 18 -4 22 -1 22 16 0 12 6
21 15 21 8 0 12 6 10 13 -3 6 8 18 24 25 26 11 33 11 55 -4 15 -9 26 -20 26
-24 0 -13 -37 -22 -59 -15 -11 3 -22 1 -26 -5 -3 -5 -1 -10 4 -10 6 0 11 -4
11 -9 0 -13 -54 -39 -96 -47 -20 -4 -34 -12 -34 -21 0 -7 -12 -25 -26 -38 -20
-19 -30 -22 -49 -15 -25 10 -44 -3 -24 -16 18 -11 -11 -24 -56 -25 -22 -1 -32
-3 -22 -6 9 -2 17 -8 17 -12 0 -9 -55 -57 -75 -64 -8 -4 -15 -14 -15 -23 0
-10 -6 -14 -14 -11 -10 4 -13 -5 -12 -37 0 -24 6 -49 12 -57 7 -8 14 -23 16
-34 2 -12 13 -21 26 -23 21 -3 40 -18 98 -72 12 -11 31 -20 43 -20 12 0 21 -6
21 -15 0 -8 8 -15 17 -15 23 0 53 -29 46 -46 -4 -10 3 -14 22 -14 14 0 35 5
45 10 13 7 21 7 25 0 3 -6 -5 -14 -18 -19 -14 -6 -28 -15 -32 -20 -11 -19 -36
-12 -66 20 -16 18 -35 29 -43 26 -8 -3 -17 1 -20 9 -3 8 -19 14 -35 14 -20 0
-34 7 -41 19 -5 11 -24 23 -42 26 -18 4 -45 20 -59 36 -14 16 -35 29 -47 29
-13 0 -29 11 -39 28 -9 15 -19 29 -21 32 -1 2 -7 -2 -12 -10 -8 -12 -13 -11
-32 6 -13 12 -31 24 -40 27 -21 7 -24 24 -5 30 6 2 0 2 -15 0 -16 -3 -28 0
-28 6 0 6 4 11 9 11 6 0 8 21 5 48 -3 26 -8 172 -11 325 -3 197 -1 282 7 292
7 8 7 15 1 19 -11 7 -15 97 -12 276 4 283 5 700 1 752 -3 35 0 62 8 71 10 11
9 17 -3 27 -11 9 -15 34 -15 99 0 47 5 105 10 129 6 24 7 48 3 55 -9 15 -10
57 -1 57 12 0 9 28 -3 32 -8 3 -9 10 -2 23 5 11 10 133 12 272 2 188 0 260
-10 287 -11 31 -11 38 3 52 12 13 14 23 7 41 -15 40 -21 331 -8 385 6 27 15
48 20 48 5 0 9 7 9 15 0 8 -4 15 -10 15 -16 0 -12 36 5 50 13 10 13 15 3 21
-21 13 -1 22 21 9 25 -13 26 -7 5 25 -14 22 -14 23 4 19 10 -3 24 2 31 10 8 9
18 16 23 16 6 0 5 -7 -2 -15 -10 -12 -10 -15 3 -15 9 0 19 5 22 10 3 6 15 10
25 10 10 0 20 5 22 11 5 16 141 86 156 81 7 -3 11 -11 8 -18z m-448 -1819 c0
-830 -3 -1523 -7 -1540 -7 -29 -8 -28 -24 27 -9 31 -17 67 -17 80 0 13 -4 28
-9 34 -6 5 -15 43 -22 84 -7 41 -17 81 -23 89 -6 8 -9 24 -8 37 2 13 -1 24 -7
24 -6 0 -11 9 -11 20 0 12 -7 20 -16 20 -13 0 -15 7 -10 30 4 21 -1 43 -14 68
-11 20 -23 54 -27 75 -3 20 -10 40 -14 43 -5 3 -9 20 -9 39 0 19 -5 37 -11 41
-7 4 -9 22 -6 47 4 30 1 46 -14 66 -12 17 -20 47 -22 84 -2 31 -9 63 -15 69
-18 18 -15 28 8 28 22 0 26 16 10 40 -8 12 -10 10 -10 -8 0 -15 -5 -22 -12
-19 -9 3 -12 19 -10 48 2 24 7 48 12 53 12 12 1 36 -17 36 -13 0 -14 11 -8 65
6 56 4 65 -9 65 -18 0 -22 35 -5 46 8 5 9 30 4 83 -4 42 -8 108 -10 146 -2 39
-6 91 -9 118 -5 37 -4 47 7 47 16 0 30 -73 20 -108 -4 -18 -2 -21 11 -16 19 7
20 41 5 133 -8 52 -7 71 5 102 17 43 6 62 -14 24 -7 -14 -17 -25 -22 -25 -12
0 -10 7 18 58 24 42 26 54 21 115 -5 57 -4 67 8 57 19 -15 29 4 15 30 -7 13
-7 26 -1 38 6 10 7 28 4 40 -3 14 -1 22 7 22 7 0 9 8 5 19 -3 11 -1 22 5 26 5
3 10 21 10 40 0 19 5 37 10 40 6 3 10 21 10 39 0 17 5 37 10 42 6 6 13 35 17
65 3 30 10 59 15 66 5 7 7 16 4 22 -7 11 10 53 35 92 12 17 15 30 8 40 -15 24
-10 37 11 32 14 -4 20 0 20 10 0 9 -4 18 -9 21 -5 3 0 23 10 43 10 21 20 54
23 73 4 35 41 181 52 210 5 12 8 11 14 -5 5 -11 8 -699 8 -1530z m6036 1430
c10 -44 25 -99 33 -122 8 -23 12 -46 9 -51 -3 -6 -3 -24 0 -40 4 -19 11 -29
19 -26 13 5 25 -36 25 -83 0 -13 4 -22 9 -18 17 10 24 -16 10 -42 -9 -17 -10
-26 -2 -31 5 -4 13 -24 17 -44 4 -23 13 -38 21 -38 18 0 19 -12 4 -27 -15 -15
-3 -34 16 -26 21 8 18 -14 -5 -39 -11 -12 -20 -25 -20 -29 0 -4 10 -9 23 -11
18 -2 22 -10 23 -37 0 -19 7 -39 17 -46 12 -8 17 -26 17 -56 0 -24 5 -61 11
-83 7 -27 7 -42 0 -49 -7 -7 -4 -21 11 -45 16 -25 21 -50 21 -93 -1 -33 3 -59
8 -59 5 0 9 -16 9 -36 0 -19 5 -45 11 -56 9 -17 9 -20 -4 -15 -12 4 -14 -3
-11 -36 2 -23 7 -56 12 -73 10 -32 0 -224 -13 -257 -5 -12 -2 -22 10 -31 21
-15 14 -46 -11 -46 -13 0 -15 -6 -9 -32 17 -86 17 -113 -3 -135 -15 -18 -21
-51 -31 -170 -10 -121 -17 -158 -38 -200 -20 -42 -24 -60 -18 -94 6 -35 5 -41
-8 -36 -22 8 -29 -4 -10 -18 20 -15 9 -37 -14 -28 -15 6 -15 5 0 -17 23 -34
21 -50 -5 -47 -18 1 -22 -3 -21 -18 2 -11 -2 -29 -7 -40 -5 -11 -14 -47 -20
-79 -5 -33 -17 -67 -25 -76 -8 -9 -15 -23 -15 -30 0 -8 -4 -27 -9 -44 -5 -17
-19 -76 -31 -131 -12 -55 -24 -109 -27 -119 -21 -77 -25 125 -25 1529 0 833 4
1519 8 1526 10 17 18 -3 38 -96z m-368 49 c-15 -14 -36 -19 -36 -8 0 11 34 33
42 27 5 -2 2 -11 -6 -19z m-5052 -65 c6 -4 25 -13 41 -20 l30 -13 -34 -4 c-23
-2 -30 -6 -22 -12 18 -10 5 -30 -19 -30 -25 0 -35 17 -20 35 10 12 10 15 -2
15 -19 0 -48 36 -48 61 0 20 1 20 31 -3 17 -13 36 -26 43 -29z m4936 16 c0 -8
-7 -15 -15 -15 -8 0 -15 7 -15 15 0 8 7 15 15 15 8 0 15 -7 15 -15z m-5219
-37 c20 -15 39 -28 42 -28 10 0 471 -270 488 -286 8 -8 18 -14 22 -14 5 0 64
-34 267 -153 47 -28 132 -77 190 -110 58 -33 159 -92 225 -132 231 -138 345
-205 442 -261 166 -95 288 -169 291 -176 2 -5 9 -8 15 -8 7 0 75 -38 152 -85
77 -46 170 -99 208 -117 37 -18 67 -38 67 -45 0 -7 -28 -27 -62 -44 -34 -17
-117 -64 -183 -104 -66 -40 -145 -86 -175 -103 -132 -72 -214 -123 -242 -147
-16 -14 -37 -25 -46 -23 -14 3 -18 20 -24 86 -4 46 -12 90 -19 98 -10 13 -60
45 -167 109 -104 63 -187 112 -204 121 -11 7 -25 17 -31 23 -6 6 -19 11 -28
11 -13 0 -22 -21 -38 -87 -12 -49 -35 -131 -51 -183 -39 -126 -76 -261 -126
-460 -14 -58 -30 -122 -36 -143 -7 -28 -14 -37 -26 -35 -14 3 -19 24 -29 108
-6 58 -16 134 -22 170 -22 140 -31 197 -41 255 -11 59 -19 107 -39 235 -5 36
-15 92 -21 125 -17 93 -30 175 -37 233 -5 48 -10 55 -47 80 -23 15 -63 38 -91
52 -27 13 -61 32 -75 41 -14 9 -56 34 -95 54 -38 21 -83 48 -100 61 -34 25
-80 40 -88 27 -3 -4 3 -42 13 -83 23 -93 45 -203 60 -295 39 -234 171 -864
237 -1130 13 -55 25 -107 26 -115 1 -8 -11 -19 -28 -25 -16 -6 -41 -18 -55
-27 -14 -9 -99 -60 -190 -113 -226 -134 -328 -197 -351 -218 -11 -10 -27 -17
-37 -15 -12 3 -16 11 -13 28 2 14 5 642 7 1395 2 904 0 1388 -7 1422 -6 29 -8
57 -4 62 8 13 33 3 76 -31z m5402 -1421 l2 -1457 -22 0 c-12 0 -25 5 -28 10
-6 10 -54 43 -116 80 -14 8 -99 60 -190 114 -90 55 -184 110 -209 124 -25 14
-59 36 -76 49 -17 12 -34 23 -38 23 -4 0 -31 16 -60 35 -29 19 -56 35 -59 35
-5 0 -44 23 -197 114 -20 12 -73 44 -119 71 -46 28 -102 61 -124 73 -23 13
-82 48 -132 77 -49 29 -106 62 -125 73 -19 10 -75 43 -125 72 -49 29 -112 66
-140 82 -27 16 -57 33 -65 38 -43 28 -182 110 -185 110 -2 0 -40 23 -85 50
-45 28 -83 50 -85 50 -2 0 -41 23 -87 51 -46 28 -114 67 -151 86 -45 23 -67
40 -65 50 2 8 20 21 42 28 21 7 61 28 90 46 28 17 67 41 86 51 19 11 40 24 45
28 6 4 27 17 48 29 20 12 52 29 70 40 17 10 59 34 92 53 34 19 129 76 212 126
83 51 153 92 156 92 3 0 41 22 84 48 43 27 98 60 123 74 54 31 489 284 510
298 8 5 49 28 90 51 41 24 111 65 155 92 81 51 461 274 525 309 19 11 55 34
80 53 25 19 51 33 58 32 10 -2 13 -287 15 -1460z m-5189 1418 c13 -19 13 -25
3 -25 -22 0 -51 26 -43 38 11 18 22 14 40 -13z m183 -33 c-24 -26 -21 -33 8
-26 21 5 25 3 25 -15 0 -12 6 -21 13 -19 15 3 77 -33 77 -45 0 -5 10 -5 21 -2
12 4 32 1 46 -6 19 -10 23 -18 18 -37 -6 -23 -4 -24 25 -19 23 5 35 2 51 -14
11 -11 35 -25 52 -31 18 -6 51 -26 74 -45 33 -26 48 -32 68 -27 19 5 25 2 25
-9 0 -9 -8 -20 -17 -26 -10 -5 -15 -12 -12 -16 4 -3 14 1 22 9 9 9 23 13 31
10 18 -7 22 -24 5 -24 -6 0 -17 -7 -25 -15 -9 -8 -19 -15 -24 -15 -5 0 -18 13
-29 29 -15 21 -27 27 -44 24 -13 -3 -30 1 -38 9 -64 58 -65 59 -92 49 -25 -10
-26 -9 -17 14 8 21 7 25 -10 25 -11 0 -20 5 -20 10 0 6 -9 10 -19 10 -30 0
-51 11 -51 26 0 8 -6 14 -13 14 -21 0 -78 31 -83 45 -3 7 -18 15 -34 19 -16 3
-46 21 -66 40 -32 30 -35 37 -24 51 7 9 19 14 26 11 7 -3 16 -1 19 4 4 6 11
10 17 10 6 0 4 -8 -5 -18z m-87 -42 c0 -5 -4 -10 -10 -10 -5 0 -10 5 -10 10 0
6 5 10 10 10 6 0 10 -4 10 -10z m4730 0 c0 -5 -4 -10 -10 -10 -5 0 -10 5 -10
10 0 6 5 10 10 10 6 0 10 -4 10 -10z m-830 -411 c0 -5 -8 -9 -17 -9 -17 -1
-17 -1 -1 -14 16 -12 16 -14 -3 -29 -10 -9 -32 -17 -47 -17 -26 -1 -26 -1 -8
-15 18 -14 18 -15 -8 -25 -35 -13 -46 -13 -46 1 0 7 -11 8 -31 4 -23 -5 -30
-4 -27 6 2 7 11 16 19 20 47 25 85 39 108 40 l26 0 -25 11 c-24 11 -24 12 -3
15 12 2 27 11 33 18 12 15 30 11 30 -6z m1320 -24 c0 -8 -4 -17 -10 -20 -6 -4
-10 5 -10 20 0 15 4 24 10 20 6 -3 10 -12 10 -20z m30 -171 c0 -114 -3 -173
-10 -169 -6 4 -10 71 -10 169 0 143 3 176 17 176 2 0 3 -79 3 -176z m-1494 64
c6 -9 -55 -38 -81 -38 -21 0 -19 27 2 39 22 12 72 11 79 -1z m-98 -40 c7 -7
12 -18 12 -25 0 -9 -8 -11 -24 -7 -13 3 -27 1 -30 -5 -4 -6 -2 -11 3 -11 6 0
11 -5 11 -11 0 -7 -11 -9 -28 -6 -22 5 -32 0 -47 -19 -10 -13 -26 -24 -36 -24
-11 0 -28 -9 -39 -20 -11 -11 -38 -23 -60 -26 -22 -4 -40 -10 -40 -15 0 -5
-12 -9 -27 -9 -25 -1 -26 -2 -11 -13 11 -9 14 -18 8 -27 -7 -12 -14 -11 -43 4
-18 11 -40 16 -48 13 -10 -4 -9 -6 4 -6 9 -1 17 -5 17 -11 0 -5 7 -10 15 -10
8 0 15 -5 15 -11 0 -7 -11 -8 -30 -4 -19 4 -30 3 -30 -4 0 -6 5 -11 10 -11 6
0 10 -5 10 -11 0 -8 -4 -8 -14 0 -11 9 -22 8 -48 -6 -18 -10 -43 -28 -56 -40
-25 -26 -62 -31 -62 -9 0 20 28 46 65 62 35 15 95 68 95 84 0 8 10 9 29 5 20
-4 32 -2 38 8 4 7 16 16 26 20 9 4 16 12 15 19 -2 9 8 12 30 10 27 -2 35 2 39
18 4 14 11 19 22 15 11 -3 27 5 41 20 13 14 29 25 37 25 7 0 13 4 13 10 0 5
16 12 35 16 19 3 38 10 41 15 7 13 28 11 42 -3z m1562 -113 c0 -41 -4 -77 -10
-80 -6 -4 -10 25 -10 80 0 55 4 84 10 80 6 -3 10 -39 10 -80z m-3800 -29 c0
-11 -19 -15 -25 -6 -3 5 1 10 9 10 9 0 16 -2 16 -4z m3833 -258 c-2 -5 -8 -8
-14 -8 -11 0 -12 163 -1 174 7 8 22 -153 15 -166z m-2173 97 c0 -8 -9 -15 -20
-15 -20 0 -26 11 -13 23 12 13 33 7 33 -8z m0 -29 c0 -2 3 -12 7 -22 5 -14 3
-16 -11 -11 -13 5 -29 -5 -57 -33 -22 -22 -46 -40 -54 -40 -8 0 -15 -5 -15
-11 0 -8 -4 -8 -14 0 -11 9 -21 5 -47 -19 -18 -16 -43 -30 -56 -30 -13 0 -24
-8 -28 -19 -8 -26 -34 -46 -44 -35 -5 5 -12 24 -16 42 -6 31 -5 33 14 27 15
-5 21 -2 21 9 0 18 16 21 25 6 9 -15 25 -2 19 15 -6 15 40 50 55 41 5 -3 23 5
39 19 16 14 39 25 50 25 11 0 22 8 25 20 4 16 14 20 46 20 23 0 41 -2 41 -4z
m2140 -41 c0 -8 -4 -17 -10 -20 -6 -4 -10 5 -10 20 0 15 4 24 10 20 6 -3 10
-12 10 -20z m17 -68 c12 5 13 -66 7 -528 -4 -294 -11 -535 -15 -537 -5 -2 -9
-10 -9 -18 0 -8 6 -11 15 -8 18 7 20 -17 4 -33 -9 -9 -8 -16 5 -28 21 -22 21
-81 -1 -89 -12 -5 -14 -9 -5 -18 7 -7 12 -23 12 -37 0 -23 -1 -23 -18 -8 -10
10 -23 17 -29 17 -16 0 -26 50 -13 65 8 9 8 15 0 20 -11 7 -14 71 -2 78 4 3 8
110 10 239 1 128 5 257 9 287 4 35 2 56 -6 60 -8 6 -8 16 0 39 8 23 8 36 1 45
-13 15 -20 437 -8 456 6 9 12 9 18 3 6 -6 17 -8 25 -5z m-3287 -27 c0 -5 -4
-10 -9 -10 -6 0 -13 5 -16 10 -3 6 1 10 9 10 9 0 16 -4 16 -10z m-30 -70 c0
-5 -7 -10 -15 -10 -8 0 -15 5 -15 10 0 6 7 10 15 10 8 0 15 -4 15 -10z m-1510
-275 c0 -8 -4 -15 -10 -15 -5 0 -10 7 -10 15 0 8 5 15 10 15 6 0 10 -7 10 -15z
m2320 -115 c0 -5 -4 -10 -10 -10 -5 0 -10 5 -10 10 0 6 5 10 10 10 6 0 10 -4
10 -10z m70 -37 c2 -2 -2 -13 -9 -24 -15 -26 -7 -37 14 -19 13 11 18 10 31 -8
8 -12 22 -22 30 -22 8 0 17 -7 20 -15 4 -8 15 -15 25 -15 10 0 19 -4 19 -10 0
-5 13 -7 29 -4 16 4 32 1 35 -5 4 -6 16 -11 27 -11 23 0 25 -15 4 -24 -8 -3
-15 -10 -15 -16 0 -14 61 -2 73 14 6 7 7 5 4 -5 -3 -9 0 -22 6 -28 8 -8 8 -11
-1 -11 -7 0 -12 -4 -12 -10 0 -5 11 -10 25 -10 14 0 25 -4 25 -10 0 -5 8 -10
18 -10 26 0 82 -38 82 -55 0 -9 -9 -15 -21 -15 -22 0 -81 29 -87 43 -2 4 -9 7
-17 7 -7 0 -18 7 -25 15 -7 8 -20 15 -30 15 -10 0 -20 7 -24 15 -3 8 -12 15
-21 15 -8 0 -15 5 -15 10 0 6 -9 10 -19 10 -11 0 -40 16 -65 35 -26 19 -52 35
-60 35 -7 0 -25 9 -39 20 -14 11 -32 20 -41 20 -8 0 -23 11 -32 25 -9 14 -25
25 -36 25 -32 0 -14 24 23 31 32 6 68 2 79 -8z m-903 -49 c-3 -4 -14 -3 -24 0
-15 6 -15 8 -3 16 16 10 39 -4 27 -16z m333 -24 c-8 -72 -6 -361 3 -408 6 -33
4 -44 -7 -48 -8 -3 -32 8 -53 24 -35 28 -199 132 -208 132 -2 0 -30 16 -62 35
-32 19 -66 35 -75 35 -18 0 -27 -22 -54 -135 -9 -38 -37 -142 -61 -230 -52
-183 -51 -180 -92 -340 -17 -66 -34 -144 -37 -172 -4 -30 -12 -53 -18 -53 -25
0 -36 26 -36 85 0 58 -14 168 -40 310 -27 147 -41 225 -55 311 -7 39 -5 42 26
62 19 11 50 29 69 40 64 36 164 94 250 146 88 54 98 59 218 129 40 23 101 61
135 84 34 22 71 40 82 40 17 -2 19 -8 15 -47z m314 27 c17 -13 119 -75 226
-139 107 -63 263 -155 345 -204 83 -49 159 -94 170 -100 11 -6 59 -34 108 -63
48 -28 126 -74 175 -102 48 -29 125 -74 172 -102 47 -27 114 -66 150 -87 36
-20 117 -68 180 -107 63 -38 142 -84 175 -103 33 -18 68 -40 77 -48 9 -8 36
-24 60 -36 24 -13 72 -39 108 -60 78 -44 58 -33 254 -147 87 -51 173 -100 190
-110 17 -9 31 -20 31 -25 0 -5 -23 -20 -50 -34 -46 -23 -184 -103 -370 -215
-38 -23 -95 -56 -125 -72 -30 -16 -102 -58 -160 -93 -58 -35 -130 -77 -160
-93 -30 -17 -84 -48 -119 -69 -34 -21 -66 -38 -69 -38 -3 0 -13 -6 -21 -14 -9
-7 -38 -26 -66 -41 -118 -66 -185 -105 -265 -152 -47 -27 -168 -98 -270 -158
-334 -195 -424 -248 -497 -292 -40 -23 -75 -43 -78 -43 -2 0 -55 -32 -116 -70
-62 -39 -115 -67 -118 -63 -4 4 -3 186 0 403 4 217 7 400 7 405 0 49 -8 1595
-10 1813 -3 272 -2 282 16 282 11 0 33 -10 50 -23z m-707 -23 c-3 -4 -14 -3
-24 0 -15 6 -15 8 -3 16 16 10 39 -4 27 -16z m53 -23 c0 -5 -11 -16 -24 -25
-26 -17 -42 -7 -32 19 6 16 56 21 56 6z m-170 -51 c0 -5 -9 -10 -20 -10 -11 0
-20 5 -20 10 0 6 9 10 20 10 11 0 20 -4 20 -10z m3950 -56 c0 -8 -4 -12 -10
-9 -5 3 -10 13 -10 21 0 8 5 12 10 9 6 -3 10 -13 10 -21z m-2366 -106 c29 -5
32 -28 4 -28 -20 -1 -21 -2 -5 -11 9 -5 17 -14 17 -19 0 -14 -32 -12 -52 4
-21 15 -23 32 -5 39 9 4 9 8 -2 15 -7 5 -10 15 -6 21 5 9 10 8 18 -3 7 -8 21
-16 31 -18z m104 -78 c13 0 30 -7 38 -15 9 -8 26 -15 40 -15 19 0 23 -5 21
-22 -2 -20 2 -23 31 -20 24 1 32 -2 32 -14 0 -12 6 -15 25 -10 14 4 25 2 25
-4 0 -5 -5 -10 -11 -10 -8 0 -8 -5 1 -15 7 -8 19 -15 26 -15 8 0 14 -5 14 -10
0 -6 11 -8 25 -4 19 5 25 2 25 -11 0 -9 9 -19 20 -22 11 -3 20 -12 20 -19 0
-9 11 -14 29 -14 35 0 61 -9 61 -21 0 -5 -6 -9 -14 -9 -8 0 -16 -10 -18 -22
-2 -13 -7 -23 -13 -23 -5 0 -11 10 -13 23 -3 16 -10 22 -28 22 -13 0 -24 4
-24 9 0 5 -16 12 -35 15 -19 4 -47 17 -62 30 -15 13 -41 26 -56 30 -19 5 -27
12 -23 21 8 21 -41 56 -70 49 -16 -4 -26 0 -35 14 -7 11 -18 18 -24 15 -7 -2
-15 2 -18 10 -3 8 -22 20 -41 27 -20 6 -36 15 -36 18 0 12 45 29 55 20 5 -4
20 -8 33 -8z m-1506 -82 c-17 -8 -26 -8 -34 0 -9 9 -4 12 23 11 32 0 33 -1 11
-11z m1768 -38 c0 -5 -4 -10 -10 -10 -5 0 -10 5 -10 10 0 6 5 10 10 10 6 0 10
-4 10 -10z m-155 -10 c3 -5 -1 -10 -9 -10 -9 0 -16 5 -16 10 0 6 4 10 9 10 6
0 13 -4 16 -10z m-2390 -128 c12 -94 46 -301 66 -402 4 -25 18 -97 29 -160 12
-63 25 -135 30 -160 5 -25 19 -106 31 -181 l22 -136 126 -83 c69 -46 138 -91
153 -101 15 -11 29 -19 32 -19 2 0 32 -18 65 -40 33 -22 71 -45 85 -52 21 -9
29 -8 45 6 11 10 21 36 24 64 5 43 26 118 46 167 5 11 14 40 21 65 7 25 15 52
18 60 3 8 23 65 44 125 22 61 43 124 48 140 5 17 47 143 94 280 47 138 86 262
86 277 0 29 33 57 45 38 3 -6 1 -72 -5 -148 -8 -93 -10 -432 -8 -1057 2 -506
7 -930 12 -942 15 -40 -18 -38 -81 5 -67 45 -193 122 -200 122 -3 0 -17 8 -31
19 -15 10 -97 59 -182 108 -361 210 -457 266 -500 293 -37 23 -181 106 -350
202 -19 11 -47 29 -62 39 -14 11 -28 19 -31 19 -3 0 -65 35 -138 78 -74 44
-190 112 -259 152 -69 41 -190 112 -270 159 -80 47 -165 96 -190 109 -25 14
-52 30 -60 37 -8 7 -41 26 -74 42 -32 15 -59 33 -59 38 0 6 13 17 29 25 43 22
206 116 307 177 49 29 90 53 92 53 3 0 36 20 74 45 38 25 74 45 79 45 5 0 47
-25 92 -55 45 -30 87 -55 91 -55 5 0 35 -17 67 -39 192 -129 233 -153 256
-147 20 5 24 14 29 58 5 49 24 127 67 273 10 33 28 94 39 135 12 41 40 130 62
196 21 67 39 129 39 137 0 19 29 49 40 42 5 -3 12 -27 15 -53z m2781 -27 c-2
-7 3 -16 12 -19 9 -3 31 -15 47 -26 17 -11 41 -24 54 -30 18 -8 26 -8 32 2 4
7 11 9 15 5 4 -4 2 -13 -4 -19 -20 -20 -13 -29 21 -25 17 2 24 2 15 0 -10 -2
-18 -9 -18 -15 0 -7 13 -8 35 -5 19 3 35 2 35 -4 0 -5 -4 -9 -10 -9 -5 0 -10
-5 -10 -11 0 -6 9 -9 19 -6 12 3 27 -3 37 -14 11 -12 25 -17 36 -13 13 4 18 0
18 -15 0 -20 13 -26 53 -23 9 1 17 -2 17 -6 0 -15 -31 -52 -44 -52 -8 0 -21
11 -30 25 -9 14 -22 25 -29 25 -7 0 -27 14 -45 30 -23 21 -43 30 -67 30 -26 0
-33 4 -29 15 4 9 -3 16 -22 21 -15 4 -37 12 -48 19 -60 33 -96 58 -96 67 0 6
-13 7 -32 3 -25 -6 -30 -5 -25 8 3 9 -1 21 -9 27 -27 24 -16 35 32 32 32 -3
44 -8 40 -17z m1316 -262 c1 -85 3 -109 5 -63 2 41 8 79 13 84 11 11 12 -7 10
-149 -1 -49 -5 -94 -10 -99 -5 -5 -5 -19 0 -32 5 -12 8 -81 6 -153 l-2 -130
-42 -40 c-23 -23 -50 -41 -61 -41 -10 0 -25 -7 -32 -16 -15 -18 -58 -38 -76
-35 -7 1 -13 -7 -13 -18 0 -15 -10 -21 -52 -27 -29 -4 -45 -9 -35 -12 31 -7
18 -21 -27 -27 -25 -4 -47 -13 -50 -21 -10 -25 -26 -15 -26 16 0 23 4 30 20
30 12 0 17 5 14 14 -4 10 6 16 35 21 23 4 38 11 35 17 -9 13 28 38 48 32 13
-4 15 0 11 16 -4 16 0 23 16 27 25 6 28 33 4 33 -10 0 -14 4 -8 8 11 7 35 48
35 58 0 3 -8 3 -19 -1 -15 -4 -20 1 -25 25 -4 23 -14 34 -37 42 -30 10 -31 12
-14 25 17 12 17 13 -11 13 -34 0 -44 6 -66 41 -12 19 -25 26 -47 26 -17 0 -41
9 -54 20 -12 11 -43 30 -69 42 -27 13 -57 34 -68 48 -14 18 -25 23 -41 18 -15
-5 -29 0 -49 20 -29 27 -30 55 -4 55 23 0 94 -39 94 -51 0 -6 7 -8 16 -5 10 4
23 -3 34 -16 15 -19 20 -20 34 -9 13 11 16 11 16 -1 0 -15 73 -68 94 -68 7 0
23 -11 36 -25 13 -14 31 -25 39 -25 22 -1 93 -34 111 -52 19 -19 107 -31 116
-17 4 6 1 15 -6 19 -15 10 -4 31 13 24 17 -6 51 61 55 110 3 38 10 244 11 344
1 23 6 42 11 42 6 0 11 -54 12 -137z m-1082 57 c0 -5 -9 -10 -21 -10 -11 0
-17 5 -14 10 3 6 13 10 21 10 8 0 14 -4 14 -10z m250 -85 c9 -11 8 -18 -8 -35
l-19 -20 -26 21 c-15 11 -27 27 -27 35 0 19 64 19 80 -1z m41 -29 c-9 -11 -9
-16 0 -21 6 -4 15 -2 19 5 12 20 37 5 43 -27 8 -40 -7 -49 -32 -18 -17 23 -22
25 -27 11 -8 -22 -31 -20 -39 4 -8 24 11 60 32 60 12 0 13 -3 4 -14z m-3111
-246 c0 -5 -4 -10 -10 -10 -5 0 -10 5 -10 10 0 6 5 10 10 10 6 0 10 -4 10 -10z
m3915 -280 c3 -5 -1 -10 -9 -10 -9 0 -16 5 -16 10 0 6 4 10 9 10 6 0 13 -4 16
-10z m-5551 -235 c32 -19 60 -35 62 -35 4 0 295 -168 454 -263 74 -44 160 -94
190 -110 30 -17 74 -43 97 -59 23 -15 44 -28 46 -28 3 0 53 -28 112 -62 59
-35 129 -75 155 -90 57 -31 268 -154 358 -209 35 -22 65 -39 67 -39 3 0 31
-17 62 -37 32 -21 69 -44 83 -51 24 -13 240 -138 298 -173 15 -9 93 -55 174
-103 185 -109 249 -151 242 -159 -3 -3 -26 3 -51 14 -24 10 -55 19 -68 19 -13
0 -27 5 -30 10 -3 6 -17 10 -30 10 -27 0 -76 19 -87 34 -3 5 -32 13 -63 17
-31 4 -64 14 -73 21 -10 8 -46 20 -82 27 -36 7 -69 15 -73 18 -5 3 -29 7 -54
9 -24 2 -48 6 -54 10 -5 3 -7 14 -4 25 4 11 2 19 -4 19 -6 0 -11 -9 -11 -20 0
-29 -36 -26 -56 5 -11 17 -22 24 -34 20 -10 -3 -21 -1 -25 5 -4 7 -18 9 -30 6
-15 -4 -43 5 -82 25 -32 17 -65 37 -74 45 -8 8 -25 14 -37 14 -11 0 -27 7 -36
15 -8 8 -20 15 -27 15 -8 0 -8 4 2 16 11 13 9 14 -12 9 -17 -4 -31 0 -46 15
-22 20 -53 27 -53 13 0 -5 15 -18 33 -30 22 -16 26 -23 14 -23 -9 0 -17 5 -17
10 0 6 -8 10 -18 10 -9 0 -23 9 -30 20 -8 13 -8 20 -1 20 5 0 7 5 3 11 -4 8
-9 7 -15 -2 -6 -10 -17 -6 -46 17 -21 17 -55 36 -75 43 -21 7 -38 17 -38 22 0
5 -13 9 -30 9 -16 0 -30 5 -30 10 0 6 5 10 12 10 7 0 -12 12 -42 28 -39 19
-56 34 -58 50 -3 20 -8 22 -33 17 -30 -7 -37 3 -17 23 18 18 1 27 -28 13 -19
-8 -30 -9 -38 -1 -5 5 -18 10 -28 10 -22 0 -23 13 -3 33 12 13 11 15 -15 19
-16 3 -34 0 -40 -6 -7 -7 -10 -3 -10 12 0 12 -4 22 -9 22 -5 0 -22 18 -38 40
-15 22 -34 38 -41 35 -7 -3 -22 1 -32 8 -21 13 -27 37 -9 37 5 0 7 4 4 10 -3
6 -15 1 -28 -11 l-22 -20 -3 23 c-4 24 -15 36 -117 134 -23 23 -52 45 -64 49
-27 8 -27 21 1 29 17 4 20 8 11 17 -8 8 -16 8 -31 0 -26 -14 -37 1 -20 28 16
25 1 42 -16 18 -7 -9 -21 -17 -31 -17 -14 0 -15 3 -5 15 15 18 3 40 -14 26 -7
-6 -17 -6 -26 -1 -13 8 -12 10 3 10 24 0 22 27 -3 35 -11 3 -20 11 -20 16 0 5
-6 9 -12 9 -7 0 -29 15 -49 33 -141 126 -169 152 -169 159 0 16 27 7 84 -27z
m5134 4 c2 -11 -12 -19 -48 -28 -27 -7 -50 -16 -50 -20 0 -4 5 -12 12 -19 9
-9 9 -12 -3 -12 -9 0 -26 11 -39 25 -20 22 -21 25 -6 31 14 5 14 9 4 22 -11
13 -10 15 3 10 9 -3 31 -2 50 2 47 11 73 8 77 -11z m-130 -76 c2 -7 -7 -17
-21 -22 -13 -5 -27 -17 -31 -26 -4 -13 -13 -15 -32 -11 -16 4 -30 1 -39 -8 -8
-8 -15 -19 -15 -24 0 -6 -10 -8 -22 -4 -17 4 -20 2 -15 -11 5 -13 1 -17 -16
-18 -36 -1 -57 -7 -73 -20 -11 -9 -12 -14 -3 -19 20 -13 -1 -32 -27 -26 -14 4
-24 2 -24 -4 0 -7 -8 -9 -19 -5 -13 4 -20 0 -24 -15 -3 -12 -13 -20 -25 -20
-12 0 -24 -4 -27 -10 -3 -5 -13 -10 -21 -10 -22 0 -44 -25 -44 -50 0 -14 -4
-19 -12 -14 -6 4 -24 8 -40 9 -28 3 -28 2 -12 -16 16 -18 16 -19 -4 -19 -12 0
-22 -4 -22 -9 0 -15 -32 -22 -47 -10 -11 10 -17 8 -29 -9 -8 -12 -21 -22 -28
-22 -7 0 -21 -9 -31 -20 -10 -11 -23 -20 -29 -20 -15 -1 -66 -47 -66 -60 0 -5
-9 -10 -20 -10 -11 0 -20 5 -20 10 0 6 5 10 10 10 6 0 10 4 10 8 0 4 -15 6
-34 4 -38 -4 -61 16 -27 25 12 3 21 11 21 18 0 7 9 15 20 18 11 3 20 1 20 -4
0 -5 5 -9 10 -9 6 0 10 6 10 14 0 8 15 20 34 26 19 6 46 22 61 35 14 14 32 25
39 25 8 0 17 7 20 16 5 12 14 14 34 10 20 -5 23 -4 12 4 -13 9 -13 11 0 20 8
5 31 10 50 10 33 1 70 19 70 35 0 4 -7 5 -15 1 -20 -7 -19 8 2 25 12 10 17 11
20 2 3 -8 11 -7 31 3 15 8 33 14 40 14 8 0 34 16 58 36 33 28 54 37 84 38 38
1 53 10 28 18 -19 7 1 28 27 28 13 0 33 10 44 21 14 15 28 20 46 17 21 -5 28
-1 36 19 7 20 15 24 41 21 17 -2 33 -9 36 -15z m-218 -153 c0 -5 -4 -10 -10
-10 -5 0 -10 5 -10 10 0 6 5 10 10 10 6 0 10 -4 10 -10z m-657 -337 c11 -7
-12 -32 -45 -49 -15 -8 -28 -21 -28 -29 0 -18 -23 -19 -49 -4 -13 9 -23 9 -37
1 -17 -10 -16 -11 9 -12 17 0 27 -5 27 -15 0 -25 -43 -16 -74 15 -24 25 -26
30 -11 30 10 0 38 10 62 22 34 17 46 19 52 10 5 -9 12 -7 26 8 16 18 16 20 2
20 -10 0 -17 5 -17 10 0 7 14 8 38 4 20 -4 41 -9 45 -11z m-212 -103 c36 -15
33 -36 -5 -33 -14 1 -26 -2 -26 -8 0 -5 7 -9 15 -9 8 0 15 -5 15 -11 0 -5 -8
-9 -17 -8 -27 3 -65 -16 -92 -45 -13 -14 -39 -28 -57 -32 -18 -3 -45 -17 -59
-30 -14 -13 -31 -21 -39 -18 -7 3 -16 -2 -19 -10 -7 -18 -47 -22 -47 -4 0 6
-3 9 -6 6 -3 -4 -1 -16 6 -27 8 -16 8 -21 -1 -21 -6 0 -24 -9 -39 -20 -16 -11
-35 -18 -43 -14 -8 3 -17 -2 -21 -12 -5 -12 -14 -15 -36 -10 -22 4 -30 2 -30
-9 0 -7 5 -17 11 -21 15 -9 -9 -24 -39 -24 -13 0 -43 -14 -68 -31 -24 -16 -49
-27 -54 -24 -6 3 -10 -1 -10 -9 0 -9 -8 -16 -19 -16 -10 0 -21 -9 -24 -19 -4
-15 -15 -20 -48 -23 -39 -3 -44 -6 -42 -26 2 -12 -1 -22 -6 -22 -9 0 -40 27
-61 54 -14 18 -13 19 7 14 13 -4 26 -2 29 3 3 5 14 9 24 9 11 0 27 12 36 26
12 18 23 24 38 20 15 -4 26 1 34 14 7 11 21 20 32 20 11 0 29 14 42 30 14 20
28 28 39 25 20 -7 35 10 18 21 -16 9 11 25 33 18 10 -3 26 4 37 15 12 12 32
21 45 21 15 0 40 15 63 37 32 31 45 36 85 37 27 1 48 4 48 9 0 4 -11 12 -25
17 -36 14 -31 23 10 16 28 -6 34 -4 29 8 -8 21 17 32 31 13 15 -21 25 -22 25
-2 0 8 7 15 15 15 8 0 15 7 15 15 0 8 6 15 13 15 8 0 22 9 32 20 10 11 26 20
35 20 11 0 20 11 25 33 5 20 9 26 12 15 2 -9 18 -22 34 -28z m-2601 -415 c7
-8 8 -15 2 -15 -5 0 -15 7 -22 15 -7 8 -8 15 -2 15 5 0 15 -7 22 -15z"/>
<path d="M4730 7000 c0 -13 11 -13 30 0 12 8 11 10 -7 10 -13 0 -23 -4 -23
-10z"/>
<path d="M4230 6890 c-11 -7 -8 -11 14 -20 16 -6 30 -9 31 -8 1 2 -5 11 -14
20 -11 11 -21 14 -31 8z"/>
<path d="M4300 6884 c0 -8 5 -12 10 -9 6 4 8 11 5 16 -9 14 -15 11 -15 -7z"/>
<path d="M3160 6250 c0 -5 5 -10 10 -10 6 0 10 5 10 10 0 6 -4 10 -10 10 -5 0
-10 -4 -10 -10z"/>
<path d="M3130 6231 c0 -6 5 -13 10 -16 6 -3 10 1 10 9 0 9 -4 16 -10 16 -5 0
-10 -4 -10 -9z"/>
<path d="M6020 6935 c7 -9 15 -13 17 -11 7 7 -7 26 -19 26 -6 0 -6 -6 2 -15z"/>
<path d="M7088 6318 c9 -9 15 -9 24 0 9 9 7 12 -12 12 -19 0 -21 -3 -12 -12z"/>
<path d="M6375 6470 c-3 -5 1 -10 10 -10 9 0 13 5 10 10 -3 6 -8 10 -10 10 -2
0 -7 -4 -10 -10z"/>
<path d="M3842 2600 c0 -14 2 -19 5 -12 2 6 2 18 0 25 -3 6 -5 1 -5 -13z"/>
<path d="M5442 505 c0 -16 2 -22 5 -12 2 9 2 23 0 30 -3 6 -5 -1 -5 -18z"/>
<path d="M5495 489 c-10 -15 3 -25 16 -12 7 7 7 13 1 17 -6 3 -14 1 -17 -5z"/>
<path d="M4668 6423 c6 -2 18 -2 25 0 6 3 1 5 -13 5 -14 0 -19 -2 -12 -5z"/>
<path d="M4740 6416 c0 -9 5 -16 10 -16 6 0 10 4 10 9 0 6 -4 13 -10 16 -5 3
-10 -1 -10 -9z"/>
<path d="M4894 6205 c-4 -8 -12 -15 -20 -15 -8 0 -14 -7 -14 -15 0 -17 -36
-21 -42 -4 -3 8 -10 9 -23 2 -30 -16 -89 -33 -112 -33 -12 0 -23 -7 -27 -15
-3 -9 -18 -15 -35 -15 -16 0 -31 -6 -35 -15 -3 -10 -19 -15 -47 -15 -22 0 -53
-6 -67 -14 -108 -56 -135 -67 -151 -63 -10 2 -23 -3 -29 -14 -6 -10 -35 -23
-67 -30 -44 -10 -63 -20 -86 -48 -25 -31 -32 -34 -48 -24 -15 9 -25 9 -45 0
-14 -7 -26 -15 -26 -19 0 -4 8 -12 18 -17 16 -10 16 -10 -1 -11 -10 0 -20 -7
-23 -15 -9 -22 -24 -18 -24 5 0 18 -2 19 -20 8 -11 -7 -18 -19 -15 -26 5 -13
-65 -62 -90 -62 -9 0 -13 -4 -10 -10 8 -14 -56 -69 -81 -70 -29 0 -47 -23 -32
-38 9 -9 7 -12 -9 -12 -12 0 -29 -3 -38 -6 -13 -5 -14 -9 -4 -15 10 -6 8 -14
-11 -33 -13 -15 -31 -26 -41 -26 -17 0 -34 -25 -30 -46 1 -7 -7 -11 -16 -10
-11 0 -24 -11 -33 -30 -9 -17 -21 -29 -28 -26 -7 2 -10 -2 -7 -10 7 -19 -32
-61 -50 -54 -10 4 -15 -1 -15 -15 0 -12 -8 -23 -20 -26 -12 -3 -20 -14 -20
-27 0 -24 -30 -54 -48 -48 -7 2 -12 -1 -12 -7 0 -6 -12 -11 -27 -12 -24 0 -25
-1 -8 -8 11 -5 26 -6 33 -4 16 7 16 -22 -1 -36 -10 -8 -17 -7 -25 1 -6 6 -15
8 -19 4 -4 -4 0 -12 9 -17 9 -5 20 -24 23 -42 4 -17 9 -35 12 -40 10 -17 46
19 122 121 120 159 260 310 374 402 139 112 246 181 392 254 259 129 572 224
825 251 36 4 74 13 85 22 20 14 20 14 0 28 -11 8 -25 18 -30 23 -19 15 -59 21
-72 10 -9 -7 -17 -7 -28 2 -11 9 -22 9 -50 -2 -33 -11 -38 -11 -50 5 -15 21
-24 22 -31 2z m31 -35 c-3 -5 -14 -10 -23 -10 -15 0 -15 2 -2 10 20 13 33 13
25 0z"/>
<path d="M4730 6190 c-12 -8 -11 -10 8 -10 12 0 22 5 22 10 0 13 -11 13 -30 0z"/>
<path d="M5110 6045 c0 -10 7 -15 18 -13 21 4 19 22 -2 26 -10 2 -16 -3 -16
-13z"/>
<path d="M4345 6040 c4 -6 11 -8 16 -5 14 9 11 15 -7 15 -8 0 -12 -5 -9 -10z"/>
<path d="M4616 5972 c-3 -6 -1 -14 5 -17 15 -10 25 3 12 16 -7 7 -13 7 -17 1z"/>
<path d="M4970 5970 c-14 -4 -68 -18 -120 -30 -125 -28 -232 -62 -338 -106
-147 -61 -338 -160 -425 -220 -107 -74 -277 -217 -348 -291 -120 -126 -239
-278 -239 -307 0 -9 8 -16 19 -16 29 0 85 22 94 37 4 7 15 13 22 13 14 0 20
18 16 47 -1 7 4 10 11 8 8 -3 21 7 30 22 10 16 36 48 60 73 23 25 41 49 40 53
-4 13 80 88 116 103 17 8 32 18 32 22 0 5 11 15 25 22 19 10 24 19 19 34 -6
19 -5 19 10 7 15 -13 19 -13 27 0 5 8 9 17 9 22 0 4 8 7 18 7 10 0 25 9 35 20
9 11 28 20 42 20 25 0 33 14 15 25 -17 10 -2 24 20 18 11 -3 20 0 20 6 0 6 -4
11 -10 11 -5 0 -10 5 -10 10 0 6 7 6 18 -1 14 -9 26 -8 55 6 21 10 34 22 31
30 -6 14 22 28 37 19 5 -3 12 2 15 10 3 9 17 16 29 16 13 0 26 4 29 9 3 4 23
11 45 15 25 4 47 16 63 34 20 24 29 27 70 24 33 -3 52 1 63 11 12 12 12 17 3
24 -8 5 4 10 32 15 69 10 102 18 137 34 17 8 38 14 47 14 9 0 28 7 41 16 16
10 34 14 51 10 14 -4 31 -3 37 2 22 17 69 23 83 11 11 -9 18 -9 26 -1 9 9 9
12 0 12 -7 0 -12 5 -12 11 0 7 11 9 29 6 23 -5 30 -2 39 19 7 13 19 24 28 24
8 0 14 6 11 13 -2 8 -30 12 -88 13 -46 1 -95 -2 -109 -6z m-375 -210 c-3 -5
-13 -10 -21 -10 -8 0 -14 5 -14 10 0 6 9 10 21 10 11 0 17 -4 14 -10z m-355
-160 c0 -5 -6 -10 -14 -10 -8 0 -18 5 -21 10 -3 6 3 10 14 10 12 0 21 -4 21
-10z"/>
<path d="M4476 5891 c-4 -5 -2 -12 3 -15 5 -4 12 -2 15 3 4 5 2 12 -3 15 -5 4
-12 2 -15 -3z"/>
<path d="M4688 5763 c6 -2 18 -2 25 0 6 3 1 5 -13 5 -14 0 -19 -2 -12 -5z"/>
<path d="M3733 5703 c9 -2 23 -2 30 0 6 3 -1 5 -18 5 -16 0 -22 -2 -12 -5z"/>
<path d="M3680 5654 c0 -8 5 -12 10 -9 6 4 8 11 5 16 -9 14 -15 11 -15 -7z"/>
<path d="M3600 5566 c0 -9 5 -16 10 -16 6 0 10 4 10 9 0 6 -4 13 -10 16 -5 3
-10 -1 -10 -9z"/>
<path d="M5945 6450 c-3 -5 1 -10 10 -10 9 0 13 5 10 10 -3 6 -8 10 -10 10 -2
0 -7 -4 -10 -10z"/>
<path d="M5690 6204 c0 -13 -7 -15 -37 -9 -21 4 -53 7 -71 6 -38 -2 -82 -27
-82 -46 0 -7 19 -17 43 -23 57 -15 246 -53 277 -56 29 -3 77 -14 105 -25 62
-24 92 -33 110 -33 11 1 22 -3 25 -9 9 -13 40 0 40 17 0 8 -9 14 -20 14 -11 0
-20 5 -20 10 0 6 -6 10 -14 10 -8 0 -23 11 -34 25 -11 14 -27 25 -36 25 -9 0
-34 12 -55 26 -32 21 -51 26 -100 25 -58 0 -82 12 -43 22 9 3 -5 2 -33 0 -41
-5 -48 -3 -37 8 16 18 15 29 -3 29 -8 0 -15 -7 -15 -16z"/>
<path d="M5730 6210 c0 -5 5 -10 10 -10 6 0 10 5 10 10 0 6 -4 10 -10 10 -5 0
-10 -4 -10 -10z"/>
<path d="M5836 6051 c-3 -5 -16 -7 -27 -4 -21 6 -21 5 -4 -21 9 -14 22 -26 28
-26 14 0 77 -49 77 -61 0 -15 -50 -10 -120 11 -71 22 -208 44 -254 42 -33 -2
-45 -10 -30 -20 5 -4 20 -24 33 -45 22 -36 41 -41 41 -11 0 24 20 6 21 -19 1
-17 2 -18 6 -4 3 10 14 17 29 17 21 0 24 -4 19 -20 -9 -28 22 -38 40 -14 13
18 15 18 30 3 12 -12 28 -15 61 -11 24 2 44 0 44 -5 0 -5 32 -8 70 -7 67 2 99
-9 65 -22 -13 -5 -14 -9 -4 -15 7 -4 21 -3 30 2 21 11 63 12 73 2 13 -13 78
-31 93 -26 11 4 13 0 7 -22 -6 -25 -5 -26 14 -16 27 14 85 15 77 0 -4 -6 -13
-8 -21 -5 -7 3 -16 1 -19 -4 -3 -6 7 -15 22 -21 15 -6 37 -15 48 -20 11 -4 34
-12 50 -17 22 -7 29 -15 28 -31 -2 -13 3 -21 12 -21 9 0 20 -10 25 -22 5 -13
9 -17 9 -10 1 19 19 15 55 -13 18 -14 38 -25 43 -25 6 0 16 -7 23 -16 8 -8 28
-21 47 -29 18 -8 33 -21 33 -29 0 -9 -4 -16 -10 -16 -5 0 -10 -4 -10 -10 0 -5
11 -10 25 -10 14 0 25 -4 25 -10 0 -14 28 -12 32 2 3 7 11 -1 19 -17 11 -23
21 -29 39 -27 13 1 28 8 32 15 4 6 5 -5 1 -25 -3 -24 -2 -38 5 -38 6 0 17 -12
24 -27 9 -19 25 -31 49 -37 26 -6 39 -16 46 -37 6 -16 18 -29 27 -29 16 0 20
-10 17 -42 -1 -10 3 -18 8 -18 6 0 11 5 11 10 0 6 7 10 15 10 10 0 15 -10 15
-28 0 -17 10 -38 25 -52 17 -16 23 -31 20 -44 -3 -12 -2 -15 1 -8 10 22 23 13
29 -20 6 -30 10 -33 43 -34 20 0 44 -2 52 -5 26 -7 22 36 -7 74 -15 20 -44 58
-63 84 -19 26 -48 60 -65 75 -26 23 -28 29 -17 47 6 12 12 28 12 36 0 11 -6
14 -23 10 -14 -4 -30 1 -44 15 -12 11 -28 20 -35 20 -7 0 -37 25 -67 55 -30
30 -58 55 -62 55 -4 0 -27 18 -51 39 -48 44 -112 88 -208 146 -36 21 -67 41
-70 45 -3 3 -18 11 -33 18 -25 11 -28 16 -22 42 5 23 3 30 -8 30 -9 0 -17 -6
-20 -12 -3 -10 -7 -10 -20 1 -10 8 -27 11 -42 7 -45 -12 -144 56 -131 90 3 7
1 16 -4 19 -6 4 -10 -1 -10 -9 0 -24 -39 -30 -62 -9 -15 13 -22 15 -25 6 -7
-19 -43 -16 -91 7 -38 18 -40 22 -36 52 5 31 2 34 -38 53 -29 14 -44 27 -46
43 -3 23 -16 29 -26 13z m973 -700 c-15 -5 -22 6 -14 19 6 9 10 9 16 -1 5 -8
4 -15 -2 -18z m79 -36 c2 -1 -9 -2 -23 -2 -15 0 -25 5 -25 14 0 11 4 11 23 2
12 -6 23 -13 25 -14z m202 -275 c0 -5 -4 -10 -10 -10 -5 0 -10 5 -10 10 0 6 5
10 10 10 6 0 10 -4 10 -10z"/>
<path d="M6180 6044 c0 -8 5 -12 10 -9 6 4 8 11 5 16 -9 14 -15 11 -15 -7z"/>
<path d="M6132 6013 c5 -25 28 -28 28 -4 0 12 -6 21 -16 21 -9 0 -14 -7 -12
-17z"/>
<path d="M6215 6010 c-3 -5 -13 -10 -22 -10 -15 0 -73 -57 -73 -72 0 -5 9 -8
19 -8 11 0 22 9 26 19 5 18 52 38 63 27 2 -3 -3 -17 -12 -30 -19 -30 -21 -46
-3 -46 7 0 17 12 23 26 8 23 11 24 29 10 20 -15 20 -15 -3 -36 l-22 -21 30
-26 c28 -23 34 -24 56 -13 16 9 22 19 19 30 -3 10 1 22 8 29 11 8 18 6 32 -9
10 -11 27 -20 37 -20 10 0 21 -7 24 -15 4 -8 13 -15 21 -15 8 0 23 -10 33 -23
10 -13 38 -32 62 -42 101 -43 128 -58 128 -71 0 -8 6 -14 13 -14 8 0 24 -12
38 -26 13 -14 39 -35 59 -46 78 -47 120 -105 89 -123 -7 -5 -5 -13 5 -24 9
-10 13 -20 10 -23 -9 -10 16 -50 29 -45 7 2 12 15 12 28 0 33 28 36 45 4 7
-14 21 -25 29 -25 9 0 29 -13 44 -30 26 -27 27 -32 17 -67 -8 -27 -9 -46 -1
-65 11 -29 25 -36 36 -18 3 6 0 12 -7 15 -8 3 -14 20 -13 38 0 23 4 31 15 29
23 -6 35 -18 56 -62 10 -22 23 -40 28 -40 12 0 96 -88 96 -100 0 -6 6 -10 13
-10 17 0 37 38 36 65 -1 11 2 28 6 38 6 13 4 16 -9 11 -15 -6 -20 4 -17 33 2
19 -16 24 -23 7 -5 -13 -12 -9 -36 21 -17 21 -30 44 -30 51 0 7 -14 15 -31 19
-23 5 -28 10 -20 18 16 16 13 27 -5 20 -14 -5 -16 -2 -10 20 3 15 4 27 2 27
-3 0 -14 -9 -25 -21 l-19 -21 -7 41 c-6 34 -11 41 -30 41 -30 0 -55 34 -57 80
-1 32 -1 31 -7 -10 -6 -48 -25 -58 -27 -13 -1 15 -6 29 -13 31 -6 2 -11 9 -11
16 0 7 -11 18 -25 24 -14 6 -25 16 -25 20 0 19 -54 62 -76 62 -29 0 -41 18
-17 27 22 8 34 24 26 36 -3 4 -14 0 -25 -10 -19 -17 -20 -17 -33 0 -6 9 -16
17 -21 17 -5 0 -31 21 -59 45 -37 34 -56 44 -71 41 -16 -4 -23 0 -28 17 -5 17
-8 19 -15 9 -7 -12 -12 -12 -32 0 -13 7 -35 25 -49 40 -27 29 -95 50 -132 40
-18 -4 -20 -2 -14 21 8 32 -8 36 -24 7 -6 -11 -19 -20 -29 -20 -10 0 -26 9
-36 20 -10 11 -24 20 -32 20 -7 0 -13 6 -13 14 0 19 -17 29 -25 16z m105 -154
c-13 -13 -35 7 -25 24 5 8 11 8 21 -1 10 -8 12 -15 4 -23z"/>
<path d="M6006 5984 c-17 -16 -21 -50 -8 -57 4 -3 22 -8 41 -12 26 -5 32 -4
29 6 -3 8 -14 15 -24 17 -16 2 -20 9 -16 32 2 17 2 30 -1 30 -3 0 -13 -7 -21
-16z"/>
<path d="M6082 5981 c-10 -16 -11 -26 -3 -34 15 -15 23 -3 19 30 l-3 28 -13
-24z"/>
<path d="M6015 5800 c3 -5 12 -10 20 -10 8 0 17 5 20 10 4 6 -5 10 -20 10 -15
0 -24 -4 -20 -10z"/>
<path d="M6612 5673 c2 -10 13 -19 26 -21 24 -4 29 7 10 26 -18 18 -40 15 -36
-5z"/>
<path d="M6425 5580 c3 -5 10 -10 16 -10 5 0 9 5 9 10 0 6 -7 10 -16 10 -8 0
-12 -4 -9 -10z"/>
<path d="M6744 5575 c-7 -18 3 -35 22 -35 15 0 17 9 8 34 -8 20 -23 21 -30 1z"/>
<path d="M6556 5511 c-4 -5 -2 -12 3 -15 5 -4 12 -2 15 3 4 5 2 12 -3 15 -5 4
-12 2 -15 -3z"/>
<path d="M6790 5513 c1 -19 19 -35 34 -30 21 8 9 37 -15 37 -10 0 -19 -3 -19
-7z"/>
<path d="M7385 5250 c-3 -5 1 -10 9 -10 9 0 16 5 16 10 0 6 -4 10 -9 10 -6 0
-13 -4 -16 -10z"/>
<path d="M7390 5200 c0 -5 7 -7 15 -4 8 4 15 8 15 10 0 2 -7 4 -15 4 -8 0 -15
-4 -15 -10z"/>
<path d="M7175 5090 c-3 -5 1 -10 10 -10 9 0 13 5 10 10 -3 6 -8 10 -10 10 -2
0 -7 -4 -10 -10z"/>
<path d="M6557 6384 c-8 -8 1 -24 14 -24 5 0 9 7 9 15 0 15 -12 20 -23 9z"/>
<path d="M7380 4924 c0 -8 5 -12 10 -9 6 4 8 11 5 16 -9 14 -15 11 -15 -7z"/>
<path d="M2710 2170 c0 -5 5 -10 10 -10 6 0 10 5 10 10 0 6 -4 10 -10 10 -5 0
-10 -4 -10 -10z"/>
<path d="M2191 4793 c-16 -17 -11 -25 8 -14 7 5 12 13 10 19 -2 6 -10 4 -18
-5z"/>
<path d="M2062 3445 c0 -16 2 -22 5 -12 2 9 2 23 0 30 -3 6 -5 -1 -5 -18z"/>
<path d="M3060 4800 c0 -5 4 -10 9 -10 6 0 13 5 16 10 3 6 -1 10 -9 10 -9 0
-16 -4 -16 -10z"/>
<path d="M3142 4799 c-18 -6 -32 -15 -30 -21 4 -11 -25 -48 -37 -48 -3 0 -5 9
-5 19 0 11 -4 22 -8 25 -4 2 -6 -11 -4 -30 3 -21 0 -34 -7 -34 -6 0 -11 -7
-11 -16 0 -12 5 -11 20 7 10 13 19 21 20 17 0 -17 -35 -94 -47 -101 -7 -4 -13
-15 -13 -22 0 -8 -4 -15 -10 -15 -5 0 -10 -11 -10 -25 0 -14 -12 -62 -27 -106
-25 -72 -26 -82 -12 -92 9 -7 21 -22 28 -34 6 -13 15 -23 20 -23 10 0 51 92
51 115 0 14 27 88 101 273 28 71 37 123 22 121 -5 0 -23 -5 -41 -10z"/>
<path d="M3295 4660 c-35 -70 -135 -372 -135 -409 0 -17 3 -31 6 -31 14 0 80
36 96 52 10 10 18 27 18 37 0 11 4 22 9 26 6 3 9 35 7 72 -3 58 -1 64 10 48 8
-11 15 -26 15 -34 1 -9 5 -2 8 14 4 17 4 38 -1 47 -4 9 -8 29 -8 45 l1 28 14
-25 c8 -14 15 -22 16 -17 2 9 8 54 11 89 2 14 6 29 10 33 9 10 -24 74 -39 75
-7 0 -24 -23 -38 -50z"/>
<path d="M2902 4370 c0 -14 2 -19 5 -12 2 6 2 18 0 25 -3 6 -5 1 -5 -13z"/>
<path d="M3260 4230 c0 -5 5 -10 10 -10 6 0 10 5 10 10 0 6 -4 10 -10 10 -5 0
-10 -4 -10 -10z"/>
<path d="M4068 4183 c6 -2 18 -2 25 0 6 3 1 5 -13 5 -14 0 -19 -2 -12 -5z"/>
<path d="M2930 4011 c0 -6 -9 -11 -20 -11 -11 0 -20 -4 -20 -10 0 -5 5 -10 10
-10 6 0 10 -8 10 -17 0 -13 -3 -14 -12 -5 -19 19 -30 14 -27 -10 3 -29 -9 -68
-22 -68 -12 0 -11 -37 1 -45 7 -4 10 -45 9 -103 -3 -146 8 -217 42 -284 5 -10
9 -40 9 -68 0 -27 4 -50 9 -50 5 0 9 -34 9 -76 -1 -49 3 -79 11 -83 18 -11 27
-81 11 -91 -18 -11 -3 -49 25 -62 17 -8 25 -22 30 -56 4 -26 13 -55 21 -66 8
-11 14 -28 14 -38 0 -9 9 -22 19 -27 22 -12 41 -60 41 -103 0 -16 4 -27 10
-23 5 3 18 -3 30 -15 24 -24 60 -27 60 -4 0 8 -15 52 -34 97 -79 194 -149 431
-176 604 -22 136 -40 352 -40 485 0 80 -4 139 -10 143 -5 3 -10 1 -10 -4z"/>
<path d="M4410 3650 c0 -5 5 -10 10 -10 6 0 10 5 10 10 0 6 -4 10 -10 10 -5 0
-10 -4 -10 -10z"/>
<path d="M4340 3630 c0 -5 5 -10 10 -10 6 0 10 5 10 10 0 6 -4 10 -10 10 -5 0
-10 -4 -10 -10z"/>
<path d="M4668 3603 c6 -2 18 -2 25 0 6 3 1 5 -13 5 -14 0 -19 -2 -12 -5z"/>
<path d="M4420 3576 c0 -2 7 -9 15 -16 12 -10 15 -10 15 4 0 9 -7 16 -15 16
-8 0 -15 -2 -15 -4z"/>
<path d="M2882 3395 c0 -16 2 -22 5 -12 2 9 2 23 0 30 -3 6 -5 -1 -5 -18z"/>
<path d="M3061 2751 c-1 -27 2 -32 11 -23 8 8 8 17 0 34 -10 22 -11 21 -11
-11z"/>
<path d="M7460 4776 c0 -13 20 -77 32 -99 5 -10 6 -22 3 -27 -9 -15 -41 -12
-54 4 -10 11 -10 20 -1 37 10 17 9 20 -1 17 -8 -3 -16 -15 -19 -29 -9 -36 -42
-36 -63 1 l-18 30 -19 -22 c-16 -20 -17 -25 -5 -34 21 -15 19 -35 -2 -27 -13
5 -15 3 -9 -13 5 -10 13 -31 18 -47 6 -17 16 -26 27 -25 10 2 15 -3 14 -16 0
-10 10 -29 23 -41 16 -15 21 -26 14 -30 -14 -9 -3 -42 26 -81 13 -17 24 -36
24 -42 0 -18 -18 -14 -28 5 -6 10 -16 14 -26 10 -20 -8 -21 -27 -1 -27 16 0
55 -30 55 -42 0 -5 -7 -8 -15 -8 -20 0 -20 -50 0 -76 8 -10 15 -26 15 -35 0
-21 27 -74 45 -89 8 -7 15 -18 15 -25 0 -8 8 -16 18 -18 16 -4 16 -5 0 -6 -19
-1 -24 -26 -8 -36 18 -11 10 -26 -10 -20 -17 6 -20 2 -20 -29 0 -20 5 -36 11
-36 7 0 9 -10 5 -25 -5 -18 -2 -27 10 -32 12 -4 14 -14 10 -34 -3 -16 -1 -29
4 -29 12 0 0 -73 -14 -83 -7 -5 -4 -12 9 -23 19 -15 19 -16 2 -29 -12 -8 -21
-34 -27 -72 -9 -67 -18 -93 -31 -93 -5 0 -9 -8 -9 -17 1 -15 4 -14 22 7 l21
25 -7 -30 c-13 -53 -16 -118 -6 -130 6 -7 1 -26 -15 -58 -16 -30 -25 -62 -25
-93 0 -38 3 -45 16 -40 9 3 18 6 20 6 2 0 4 7 4 15 0 8 -5 15 -12 15 -6 0 -2
10 9 23 19 21 35 83 48 190 4 26 10 47 15 47 5 0 8 17 7 38 -1 27 2 37 13 37
16 0 17 -22 4 -64 -5 -17 -4 -22 4 -17 7 4 12 14 12 22 0 9 6 22 14 30 8 7 12
23 9 34 -4 14 0 20 11 20 11 0 16 -9 16 -27 1 -25 2 -26 11 -10 9 15 7 27 -7
52 l-18 34 -18 -30 c-23 -37 -55 -36 -50 1 6 40 30 70 57 70 16 0 25 -6 25
-15 0 -8 5 -15 11 -15 7 0 8 12 4 33 -4 17 -9 34 -11 36 -3 3 -17 -3 -33 -12
-28 -16 -29 -16 -35 5 -3 15 2 30 14 43 14 15 20 35 20 68 0 26 5 47 10 47 6
0 10 6 10 14 0 7 7 19 15 26 8 7 15 21 15 31 0 28 29 23 42 -7 11 -23 10 -29
-10 -44 -22 -18 -22 -19 -2 -25 21 -7 27 -39 10 -50 -13 -8 -5 -122 11 -141
10 -12 8 -18 -10 -30 -14 -10 -20 -22 -16 -34 3 -10 1 -21 -5 -25 -6 -3 -8
-11 -4 -16 3 -5 0 -17 -7 -25 -9 -11 -9 -21 -1 -39 10 -23 9 -80 -4 -142 -2
-13 -11 -23 -19 -23 -8 0 -15 -9 -15 -21 0 -17 5 -20 37 -17 31 3 38 8 46 33
5 17 19 40 30 53 16 17 18 25 9 34 -16 16 -15 59 3 82 21 28 19 45 -5 39 -11
-3 -20 0 -20 6 0 6 9 11 20 11 11 0 20 7 20 16 0 8 -4 12 -10 9 -5 -3 -18 -2
-27 4 -16 8 -15 11 10 22 35 16 40 57 10 91 -9 10 -11 18 -4 23 7 4 6 13 -4
28 -10 17 -12 32 -5 62 6 24 5 44 -1 51 -6 8 -5 21 2 38 10 21 9 29 -4 44 -18
20 -23 57 -8 66 20 13 -9 236 -31 236 -4 0 -8 6 -8 14 0 21 -47 7 -54 -17 -4
-16 -8 -18 -20 -8 -22 19 -31 -6 -10 -30 12 -13 21 -16 29 -9 9 7 17 4 27 -12
10 -16 16 -51 16 -105 1 -73 -1 -84 -18 -93 -11 -6 -20 -17 -20 -25 0 -8 -4
-15 -9 -15 -5 0 -11 -12 -13 -27 -2 -20 -9 -29 -25 -31 -19 -3 -22 3 -28 63
-8 75 0 94 35 75 18 -9 25 -8 41 6 25 23 26 64 1 64 -28 0 -33 10 -16 34 8 13
11 25 8 29 -4 3 -16 -8 -28 -26 -23 -33 -51 -43 -51 -17 -1 8 -6 25 -13 37 -7
12 -12 33 -12 46 0 13 -9 50 -20 83 -11 32 -20 69 -20 82 0 13 -9 42 -20 64
-24 50 -26 106 -5 114 21 8 19 24 -3 24 -23 0 -52 30 -52 53 0 9 -4 19 -10 22
-15 9 -12 35 5 41 13 5 57 -33 105 -93 8 -10 27 -24 43 -31 34 -14 54 -60 35
-78 -16 -16 -62 -22 -65 -9 -1 6 5 9 13 9 8 -1 14 0 14 3 0 11 -49 63 -52 56
-2 -5 -3 -24 -3 -43 0 -28 5 -37 30 -50 17 -8 32 -16 35 -18 2 -2 -2 -12 -9
-23 -14 -24 -9 -34 14 -25 9 3 16 16 15 28 -3 35 -1 48 8 48 5 0 8 -10 8 -22
-1 -14 6 -24 18 -26 16 -3 18 1 13 24 -3 16 -1 37 5 47 6 12 5 27 -4 47 -7 17
-16 30 -19 30 -4 0 -9 9 -12 20 -3 13 0 20 9 20 21 0 17 18 -5 25 -22 7 -37
43 -45 105 -3 31 -12 52 -29 65 -13 12 -22 25 -20 30 2 6 -8 10 -22 10 -14 0
-25 -4 -25 -9z m5 -555 c-10 -16 -25 -3 -25 22 0 20 1 20 16 5 9 -9 13 -21 9
-27z m65 -691 c0 -5 -4 -10 -10 -10 -5 0 -10 5 -10 10 0 6 5 10 10 10 6 0 10
-4 10 -10z"/>
<path d="M7360 4454 c0 -8 5 -12 10 -9 6 4 8 11 5 16 -9 14 -15 11 -15 -7z"/>
<path d="M7655 4400 c4 -6 11 -8 16 -5 14 9 11 15 -7 15 -8 0 -12 -5 -9 -10z"/>
<path d="M7613 4334 c-13 -14 -23 -27 -23 -31 0 -8 32 -32 43 -33 5 0 7 8 5
18 -2 9 4 26 14 36 18 20 16 37 -5 35 -7 -1 -22 -12 -34 -25z"/>
<path d="M7530 4280 c0 -5 5 -10 10 -10 6 0 10 5 10 10 0 6 -4 10 -10 10 -5 0
-10 -4 -10 -10z"/>
<path d="M7647 4269 c-11 -6 -30 -9 -44 -6 -27 5 -39 -12 -29 -40 5 -12 9 -14
18 -5 7 7 23 12 36 12 24 0 52 21 52 39 0 14 -10 13 -33 0z"/>
<path d="M7362 4210 c0 -14 2 -19 5 -12 2 6 2 18 0 25 -3 6 -5 1 -5 -13z"/>
<path d="M7750 3925 c0 -8 5 -15 10 -15 6 0 10 7 10 15 0 8 -4 15 -10 15 -5 0
-10 -7 -10 -15z"/>
<path d="M7640 3800 c0 -20 25 -38 36 -27 7 6 -18 47 -28 47 -5 0 -8 -9 -8
-20z"/>
<path d="M7655 3730 c-3 -5 1 -10 9 -10 9 0 16 5 16 10 0 6 -4 10 -9 10 -6 0
-13 -4 -16 -10z"/>
<path d="M7552 3338 c0 -35 5 -71 10 -81 6 -12 4 -26 -9 -47 -9 -16 -15 -32
-12 -34 3 -3 18 -2 34 2 24 7 26 9 11 15 -9 4 -15 11 -11 16 9 15 32 2 39 -22
4 -17 8 -19 18 -9 6 6 20 12 30 12 13 0 18 8 18 26 0 23 -3 25 -24 20 -14 -3
-28 -2 -31 4 -3 5 -17 10 -31 10 -22 0 -24 4 -24 44 0 48 15 69 25 36 4 -11
11 -18 16 -15 5 4 2 20 -7 38 -16 31 -31 47 -46 47 -4 0 -7 -28 -6 -62z"/>
<path d="M6785 3170 c-3 -5 1 -10 9 -10 9 0 16 5 16 10 0 6 -4 10 -9 10 -6 0
-13 -4 -16 -10z"/>
<path d="M7625 3140 c-9 -16 -20 -30 -25 -30 -6 0 -10 -9 -10 -20 0 -11 5 -20
10 -20 6 0 10 -7 10 -15 0 -8 7 -15 15 -15 18 0 18 5 5 29 -6 13 -5 24 5 37 8
11 15 27 15 36 0 9 6 19 13 21 7 3 5 6 -5 6 -10 1 -24 -12 -33 -29z"/>
<path d="M7520 3139 c0 -17 3 -20 11 -12 6 6 18 9 25 6 8 -3 14 0 14 6 0 6 -4
11 -9 11 -5 0 -16 3 -25 6 -12 5 -16 0 -16 -17z"/>
<path d="M7430 3095 c0 -25 4 -35 13 -32 6 2 12 16 12 32 0 16 -6 30 -12 33
-9 2 -13 -8 -13 -33z"/>
<path d="M7503 3056 c4 -10 7 -20 7 -22 0 -2 11 -2 25 2 22 5 27 2 36 -25 6
-17 14 -31 19 -31 4 0 10 10 13 22 8 28 -18 58 -47 56 -11 0 -30 3 -40 7 -16
7 -18 5 -13 -9z"/>
<path d="M7475 3021 c3 -11 1 -22 -5 -26 -8 -5 -8 -11 1 -21 17 -20 26 -17 33
10 8 31 -2 56 -21 56 -10 0 -12 -6 -8 -19z"/>
<path d="M7415 3018 c-4 -9 -4 -22 0 -28 3 -5 -1 -13 -11 -17 -11 -4 -22 1
-32 13 -13 18 -14 17 -9 -12 4 -18 1 -36 -6 -43 -9 -9 -8 -16 1 -32 12 -19 11
-20 -7 -14 -16 5 -22 1 -27 -20 -5 -19 -12 -25 -25 -22 -11 3 -16 0 -12 -8 2
-8 11 -16 19 -19 8 -3 14 -17 14 -31 0 -14 5 -25 10 -25 6 0 10 6 10 14 0 8 9
18 20 21 14 4 20 15 20 34 0 15 5 32 12 39 7 7 33 12 60 12 38 0 46 3 42 15
-4 8 -16 15 -29 15 -32 0 -47 22 -37 51 5 13 6 35 2 49 -6 21 -8 22 -15 8z"/>
<path d="M7540 2955 c-16 -19 -9 -49 13 -53 14 -3 17 4 17 32 0 38 -10 45 -30
21z"/>
<path d="M7498 2863 c-16 -38 -16 -37 -33 -23 -17 14 -28 8 -31 -16 -2 -9 6
-19 17 -21 27 -7 24 -38 -6 -51 -15 -7 -25 -20 -25 -32 0 -21 24 -28 35 -10 5
8 11 8 19 1 9 -8 17 -6 27 7 8 9 21 28 27 42 10 19 10 33 2 55 -7 18 -7 32 -1
38 11 11 4 37 -10 37 -5 0 -15 -12 -21 -27z m22 -63 c0 -16 -4 -30 -10 -30 -5
0 -10 14 -10 30 0 17 5 30 10 30 6 0 10 -13 10 -30z"/>
<path d="M7580 2875 c0 -8 5 -15 10 -15 6 0 10 7 10 15 0 8 -4 15 -10 15 -5 0
-10 -7 -10 -15z"/>
<path d="M8199 3805 c-3 -32 0 -138 5 -142 3 -4 6 28 6 70 0 43 -2 77 -5 77
-3 0 -5 -2 -6 -5z"/>
<path d="M7052 2459 c-23 -18 -29 -39 -12 -39 6 0 10 -5 10 -12 0 -9 -3 -9
-11 -1 -15 15 -59 -7 -59 -30 0 -14 -5 -17 -22 -13 -13 3 -17 3 -10 0 6 -3 12
-10 12 -15 0 -5 -20 -30 -45 -55 -25 -24 -45 -49 -45 -55 0 -5 -12 -14 -26
-19 -21 -8 -24 -13 -14 -24 9 -12 7 -17 -9 -25 -11 -6 -28 -11 -38 -11 -10 -1
-29 -10 -42 -21 -21 -17 -23 -23 -13 -40 10 -16 9 -19 -4 -19 -9 0 -29 -9 -45
-21 -21 -15 -28 -26 -24 -40 8 -23 -17 -26 -35 -4 -19 23 -33 18 -26 -10 5
-18 1 -27 -15 -35 -11 -6 -33 -12 -50 -12 -21 -1 -29 -6 -29 -19 0 -10 -13
-27 -29 -38 -16 -12 -32 -21 -35 -21 -11 0 -46 -40 -46 -53 0 -8 -14 -26 -32
-42 -31 -28 -31 -28 -9 -37 17 -6 21 -13 16 -29 -6 -17 -4 -21 9 -16 8 3 18 2
21 -3 3 -6 16 -1 27 10 26 23 41 25 57 6 17 -21 2 -46 -32 -53 -21 -4 -33 -15
-41 -35 -6 -15 -14 -28 -18 -28 -4 0 -8 -7 -8 -15 0 -24 20 -17 30 10 5 14 18
28 27 31 43 13 69 35 80 66 7 18 12 27 12 21 1 -18 31 -16 31 2 0 8 7 15 16
15 9 0 18 9 21 20 7 27 52 26 87 -1 31 -24 34 -17 6 14 -19 20 -19 22 -3 28
11 4 25 -3 39 -20 12 -14 26 -23 30 -18 4 4 -1 13 -11 21 -18 13 -17 15 16 46
18 17 46 36 61 42 24 8 27 14 22 36 l-7 27 26 -23 c18 -17 27 -20 32 -11 5 7
1 18 -10 26 -18 12 -18 13 3 13 12 0 29 11 38 25 9 14 20 25 25 25 5 0 9 -12
9 -26 0 -22 2 -25 15 -14 8 7 15 23 15 36 0 17 6 24 20 24 11 0 23 7 27 16 8
22 48 64 61 64 5 0 12 7 16 15 3 8 11 15 18 15 7 0 18 10 23 22 6 13 22 28 36
35 14 7 31 24 39 38 7 14 19 25 26 25 7 0 16 9 19 20 7 22 40 27 48 8 3 -8 6
-7 6 4 1 9 -3 19 -8 22 -4 3 -11 24 -15 47 -4 23 -9 46 -12 50 -10 16 -35 -5
-108 -90 -61 -72 -124 -137 -206 -216 -6 -5 -30 -30 -53 -55 -64 -69 -71 -72
-100 -59 -22 10 -30 8 -54 -11 -28 -22 -30 -25 -32 -71 -1 -17 -10 -30 -28
-39 -16 -7 -42 -20 -60 -28 -18 -9 -35 -13 -39 -10 -8 9 66 78 84 78 6 0 12 5
12 10 0 14 -48 12 -57 -2 -11 -17 -69 -58 -83 -58 -5 0 -10 -4 -10 -9 0 -5
-13 -14 -29 -21 -16 -6 -32 -18 -35 -26 -3 -8 -13 -14 -22 -14 -9 0 -27 -9
-41 -20 -14 -11 -29 -20 -32 -20 -4 0 -7 11 -6 23 0 25 21 57 37 57 5 0 29 14
53 30 24 17 46 30 49 30 3 0 33 21 66 46 47 36 66 45 85 40 21 -5 25 -3 25 15
0 13 24 44 63 81 34 33 72 66 85 75 12 8 22 19 22 24 0 4 23 30 51 56 56 52
209 238 209 253 0 6 1 13 3 17 1 4 -14 8 -34 8 -21 1 -45 -6 -57 -16z m-264
-331 c-6 -18 -28 -21 -28 -4 0 9 7 16 16 16 9 0 14 -5 12 -12z"/>
<path d="M6900 2334 c0 -14 3 -14 15 -4 8 7 15 14 15 16 0 2 -7 4 -15 4 -8 0
-15 -7 -15 -16z"/>
<path d="M7080 2320 c0 -5 7 -10 15 -10 8 0 15 5 15 10 0 6 -7 10 -15 10 -8 0
-15 -4 -15 -10z"/>
<path d="M7385 2240 c3 -5 10 -10 16 -10 5 0 9 5 9 10 0 6 -7 10 -16 10 -8 0
-12 -4 -9 -10z"/>
<path d="M7026 2231 c-4 -7 -5 -15 -2 -18 9 -9 19 4 14 18 -4 11 -6 11 -12 0z"/>
<path d="M6957 2174 c-4 -4 -7 -16 -7 -26 0 -10 -5 -18 -11 -18 -13 0 -8 -42
6 -47 13 -4 39 77 27 89 -4 4 -11 5 -15 2z"/>
<path d="M7180 2126 c0 -7 -9 -16 -20 -19 -21 -5 -28 -27 -9 -27 11 0 48 40
49 53 0 4 -4 7 -10 7 -5 0 -10 -6 -10 -14z"/>
<path d="M6880 2106 c0 -9 5 -16 10 -16 6 0 10 4 10 9 0 6 -4 13 -10 16 -5 3
-10 -1 -10 -9z"/>
<path d="M6868 2041 c-7 -10 -21 -20 -31 -22 -27 -6 -26 -23 1 -27 38 -6 81
45 53 63 -5 3 -16 -3 -23 -14z"/>
<path d="M6800 1806 c0 -22 3 -27 11 -19 8 8 8 16 0 30 -9 16 -10 14 -11 -11z"/>
<path d="M6231 1731 c-10 -7 -10 -10 -1 -16 6 -4 16 -3 22 3 13 13 -4 23 -21
13z"/>
<path d="M6272 1723 c2 -10 10 -18 18 -18 8 0 16 8 18 18 2 12 -3 17 -18 17
-15 0 -20 -5 -18 -17z"/>
<path d="M5915 1711 c-3 -5 -1 -12 5 -16 5 -3 10 1 10 9 0 18 -6 21 -15 7z"/>
<path d="M6040 1700 c0 -5 7 -7 15 -3 11 4 19 -4 28 -26 8 -22 16 -30 27 -25
8 4 25 9 38 11 12 3 22 9 22 14 0 5 11 9 25 9 16 0 25 6 25 15 0 20 -36 19
-44 -1 -5 -13 -9 -14 -21 -4 -13 10 -19 9 -36 -6 -19 -17 -20 -17 -26 4 -3 15
-13 22 -29 22 -13 0 -24 -4 -24 -10z"/>
<path d="M6000 1670 c0 -20 -5 -30 -15 -30 -8 0 -14 8 -12 18 1 9 -2 18 -8 19
-5 2 -10 -7 -10 -20 0 -16 -7 -22 -25 -23 -14 -1 -28 3 -32 9 -4 7 -22 6 -55
-2 -26 -7 -55 -15 -63 -18 -8 -3 -46 -7 -85 -10 -41 -2 -80 -11 -94 -20 -14
-9 -36 -16 -50 -17 -18 -1 -26 -6 -25 -18 1 -10 -4 -18 -12 -18 -19 0 -18 -19
2 -27 18 -7 274 23 324 39 19 6 43 14 52 19 10 5 31 9 48 9 37 0 41 -27 5 -36
-25 -6 -75 -56 -75 -75 0 -17 47 -9 74 12 14 11 26 29 26 39 0 10 7 20 15 24
11 4 14 13 9 30 -3 13 -2 26 3 29 4 2 23 8 41 12 27 6 32 4 32 -13 0 -19 40
-47 69 -47 23 0 26 -43 5 -66 -9 -10 -20 -16 -24 -14 -4 2 -5 16 -2 30 3 19 0
25 -14 25 -26 0 -41 -12 -45 -34 -5 -25 -102 -60 -190 -70 -66 -7 -80 -9 -164
-25 -74 -15 -85 -13 -85 8 0 19 -34 51 -53 51 -5 0 -6 -16 -3 -35 6 -31 4 -36
-19 -45 -15 -6 -25 -17 -25 -30 0 -11 7 -20 15 -20 9 0 18 -7 21 -15 6 -14 8
-14 18 1 11 15 15 14 35 -12 20 -26 23 -27 38 -11 16 16 16 17 -5 17 -12 0
-22 5 -22 10 0 13 27 13 35 0 3 -5 28 -9 55 -9 38 1 49 5 53 20 7 25 34 24 47
-1 13 -23 23 -25 42 -7 7 8 51 20 97 27 82 14 83 14 99 52 16 37 32 50 32 26
0 -6 11 -1 24 11 13 12 29 21 36 19 7 -2 21 13 32 32 11 19 29 41 39 48 12 8
19 25 19 45 0 29 -3 32 -30 33 -17 1 -30 -2 -30 -6 0 -3 9 -16 20 -28 30 -32
24 -36 -12 -10 -18 12 -41 21 -51 20 -20 -4 -46 24 -47 49 0 18 -37 32 -46 18
-10 -16 -25 2 -19 22 4 11 2 19 -4 19 -6 0 -11 -13 -11 -30z m-80 -290 c0 -11
-7 -20 -15 -20 -15 0 -21 21 -8 33 12 13 23 7 23 -13z"/>
<path d="M6266 1658 c-21 -29 -11 -37 15 -11 13 13 17 23 11 27 -6 3 -18 -4
-26 -16z"/>
<path d="M6323 1630 c5 -41 -3 -55 -38 -62 -14 -2 -19 -10 -17 -23 2 -11 5
-21 7 -23 7 -8 55 31 55 45 0 7 7 24 16 38 12 18 13 28 4 44 -18 35 -33 25
-27 -19z"/>
<path d="M6496 1615 c-4 -10 1 -15 14 -15 11 0 20 7 20 15 0 8 -6 15 -14 15
-8 0 -16 -7 -20 -15z"/>
<path d="M6455 1590 c-3 -5 1 -10 9 -10 9 0 16 5 16 10 0 6 -4 10 -9 10 -6 0
-13 -4 -16 -10z"/>
<path d="M6010 1560 c0 -5 7 -10 15 -10 8 0 15 5 15 10 0 6 -7 10 -15 10 -8 0
-15 -4 -15 -10z"/>
<path d="M6197 1445 c-4 -8 -2 -17 3 -20 6 -4 10 -4 10 -1 0 2 3 11 6 20 3 9
2 16 -4 16 -5 0 -12 -7 -15 -15z"/>
<path d="M3220 2240 c0 -5 4 -10 9 -10 6 0 13 5 16 10 3 6 -1 10 -9 10 -9 0
-16 -4 -16 -10z"/>
<path d="M3474 2203 c3 -10 8 -31 11 -48 4 -16 11 -40 18 -53 7 -16 16 -21 30
-16 16 5 19 3 13 -11 -8 -22 30 -76 49 -69 8 3 43 -23 84 -63 96 -93 142 -133
152 -133 5 0 6 -6 3 -14 -3 -8 -1 -17 4 -20 6 -3 13 1 16 10 3 8 11 12 17 9 6
-4 8 -13 5 -21 -7 -17 10 -28 20 -12 5 7 10 3 16 -13 9 -24 10 -24 25 -4 15
20 15 20 10 -2 -3 -14 2 -28 13 -38 11 -10 23 -14 28 -11 5 3 27 -10 48 -30
52 -47 88 -66 102 -52 7 7 14 4 21 -11 7 -12 21 -21 31 -21 11 0 25 -9 32 -20
7 -11 18 -20 25 -20 7 0 13 -3 13 -7 0 -9 57 -43 71 -43 6 0 7 9 4 20 -5 14
-2 20 9 20 10 0 16 -9 16 -25 0 -21 5 -25 28 -25 42 0 103 -20 109 -36 3 -7 9
-11 14 -8 5 3 30 -2 54 -12 38 -14 47 -15 62 -3 13 11 17 11 20 2 5 -15 33
-17 33 -3 0 18 25 10 35 -11 12 -26 87 -69 120 -69 13 0 27 -4 30 -10 3 -5 23
-10 44 -10 20 0 42 -5 49 -12 9 -9 13 -7 18 5 8 22 28 21 65 0 24 -15 33 -15
47 -5 9 7 29 18 45 25 15 6 27 15 27 19 0 4 -9 12 -20 18 -11 6 -20 18 -20 26
0 12 -7 14 -32 9 -18 -3 -43 -11 -55 -17 -29 -14 -41 -3 -25 23 15 24 8 39
-19 39 -12 0 -19 -7 -19 -20 0 -11 -6 -23 -12 -25 -7 -3 -35 1 -63 8 -34 9
-54 21 -61 36 -8 16 -13 18 -17 8 -6 -17 -61 -11 -77 8 -6 8 -18 11 -26 8 -8
-3 -27 -1 -42 5 -15 6 -39 13 -54 16 -19 4 -26 11 -22 21 7 17 -7 20 -21 6
-12 -11 -75 -2 -75 10 0 13 -89 51 -101 43 -6 -3 -18 1 -27 8 -9 8 -39 25 -67
37 -27 12 -59 27 -70 34 -104 57 -169 96 -217 130 -42 29 -58 46 -58 63 0 25
-15 40 -25 24 -3 -5 -12 -10 -19 -10 -18 0 -182 139 -307 259 -98 95 -148 125
-135 84z m1116 -763 c0 -5 -4 -10 -10 -10 -5 0 -10 5 -10 10 0 6 5 10 10 10 6
0 10 -4 10 -10z m485 -100 c-3 -5 -13 -10 -21 -10 -8 0 -14 5 -14 10 0 6 9 10
21 10 11 0 17 -4 14 -10z"/>
<path d="M5082 2160 c0 -14 2 -19 5 -12 2 6 2 18 0 25 -3 6 -5 1 -5 -13z"/>
<path d="M3960 2160 c0 -5 4 -10 9 -10 6 0 13 5 16 10 3 6 -1 10 -9 10 -9 0
-16 -4 -16 -10z"/>
<path d="M3912 2133 c-6 -3 -10 -9 -6 -14 3 -5 -4 -9 -15 -9 -33 0 -51 -11
-51 -31 0 -10 7 -19 15 -19 9 0 62 -35 118 -79 105 -80 292 -201 313 -201 6 0
23 -9 38 -21 14 -11 34 -19 44 -16 15 3 15 5 -4 13 -40 18 -124 89 -130 112
-3 12 -12 22 -20 22 -8 0 -13 5 -11 11 1 6 -13 19 -31 28 -25 12 -31 21 -27
38 4 17 1 20 -18 17 -12 -2 -16 -2 -9 2 25 12 12 26 -18 21 -22 -5 -30 -3 -30
7 0 8 -9 16 -20 19 -13 3 -18 10 -14 21 4 11 1 16 -11 16 -9 0 -27 13 -41 29
-24 29 -49 41 -72 34z"/>
<path d="M4224 1739 c-9 -16 12 -33 31 -25 14 5 15 9 5 21 -15 18 -26 19 -36
4z"/>
<path d="M4380 1685 c0 -9 5 -15 11 -13 6 2 11 8 11 13 0 5 -5 11 -11 13 -6 2
-11 -4 -11 -13z"/>
<path d="M4920 1681 c0 -25 6 -27 13 -6 4 8 2 17 -3 20 -6 4 -10 -3 -10 -14z"/>
<path d="M4894 1629 c-5 -8 -21 -22 -36 -32 -27 -17 -37 -37 -19 -37 5 0 22
-5 38 -11 15 -6 41 -13 57 -14 17 -2 36 -11 43 -21 11 -16 17 -17 34 -6 14 9
38 11 78 6 34 -3 61 -2 64 3 3 5 -9 23 -26 40 -31 29 -73 42 -144 44 -16 1
-23 7 -23 20 0 26 -15 24 -27 -3 l-11 -23 -9 24 c-8 20 -12 22 -19 10z"/>
<path d="M4502 1618 c6 -18 28 -21 28 -4 0 9 -7 16 -16 16 -9 0 -14 -5 -12
-12z"/>
<path d="M4575 1590 c-3 -5 1 -10 10 -10 9 0 13 5 10 10 -3 6 -8 10 -10 10 -2
0 -7 -4 -10 -10z"/>
<path d="M4677 1516 c-6 -15 1 -26 15 -26 11 0 10 27 -1 34 -5 3 -11 0 -14 -8z"/>
<path d="M4895 1510 c-3 -6 1 -13 10 -16 19 -8 30 0 20 15 -8 14 -22 14 -30 1z"/>
<path d="M4460 1424 c0 -8 5 -12 10 -9 6 4 8 11 5 16 -9 14 -15 11 -15 -7z"/>
<path d="M4915 1280 c27 -12 35 -12 35 0 0 6 -12 10 -27 9 -25 0 -26 -1 -8 -9z"/>
<path d="M4998 1283 c6 -2 18 -2 25 0 6 3 1 5 -13 5 -14 0 -19 -2 -12 -5z"/>
<path d="M3220 1340 c0 -5 5 -10 10 -10 6 0 10 5 10 10 0 6 -4 10 -10 10 -5 0
-10 -4 -10 -10z"/>
<path d="M4038 823 c6 -2 18 -2 25 0 6 3 1 5 -13 5 -14 0 -19 -2 -12 -5z"/>
<path d="M4422 578 c3 -7 15 -14 29 -16 23 -2 23 -2 5 13 -24 18 -39 20 -34 3z"/>
<path d="M4700 480 c0 -5 7 -10 15 -10 8 0 15 5 15 10 0 6 -7 10 -15 10 -8 0
-15 -4 -15 -10z"/>
<path d="M6348 7143 c6 -2 18 -2 25 0 6 3 1 5 -13 5 -14 0 -19 -2 -12 -5z"/>
<path d="M3555 6810 c-3 -5 1 -10 10 -10 9 0 13 5 10 10 -3 6 -8 10 -10 10 -2
0 -7 -4 -10 -10z"/>
<path d="M3035 6520 c3 -5 10 -10 16 -10 5 0 9 5 9 10 0 6 -7 10 -16 10 -8 0
-12 -4 -9 -10z"/>
<path d="M2717 6185 c-4 -8 -2 -17 3 -20 6 -4 10 3 10 14 0 25 -6 27 -13 6z"/>
<path d="M8595 5080 c4 -6 11 -8 16 -5 14 9 11 15 -7 15 -8 0 -12 -5 -9 -10z"/>
<path d="M1780 3514 c0 -8 5 -12 10 -9 6 4 8 11 5 16 -9 14 -15 11 -15 -7z"/>
<path d="M7551 1366 c-8 -9 -11 -19 -7 -23 9 -9 29 13 24 27 -2 8 -8 7 -17 -4z"/>
<path d="M7470 1340 c0 -5 5 -10 10 -10 6 0 10 5 10 10 0 6 -4 10 -10 10 -5 0
-10 -4 -10 -10z"/>
<path d="M7465 1280 c3 -5 10 -10 16 -10 5 0 9 5 9 10 0 6 -7 10 -16 10 -8 0
-12 -4 -9 -10z"/>
<path d="M7116 1135 c4 -8 10 -15 15 -15 4 0 6 7 3 15 -4 8 -10 15 -15 15 -4
0 -6 -7 -3 -15z"/>
<path d="M7248 1072 c9 -11 21 -17 25 -15 11 7 -13 33 -29 33 -11 0 -10 -5 4
-18z"/>
<path d="M6855 960 c4 -6 11 -8 16 -5 14 9 11 15 -7 15 -8 0 -12 -5 -9 -10z"/>
<path d="M7275 810 c-3 -5 1 -10 10 -10 9 0 13 5 10 10 -3 6 -8 10 -10 10 -2
0 -7 -4 -10 -10z"/>
<path d="M5556 191 c-4 -5 -2 -12 3 -15 5 -4 12 -2 15 3 4 5 2 12 -3 15 -5 4
-12 2 -15 -3z"/>
</g>
</svg>
