<?xml version="1.0" standalone="no"?>
<!DOCTYPE svg PUBLIC "-//W3C//DTD SVG 20010904//EN"
 "http://www.w3.org/TR/2001/REC-SVG-20010904/DTD/svg10.dtd">
<svg version="1.0" xmlns="http://www.w3.org/2000/svg"
 width="1800.000000pt" height="1458.000000pt" viewBox="0 0 1800.000000 1458.000000"
 preserveAspectRatio="xMidYMid meet">
<g transform="translate(0.000000,1458.000000) scale(0.040000,-0.040000)"
fill="#ff7800" stroke="none">
<path d="M19863 35356 c-28 -5 -73 -18 -100 -30 -28 -12 -73 -29 -100 -39 -32
-11 -39 -22 -19 -29 17 -7 31 -28 31 -48 0 -40 -45 -45 -100 -11 -26 17 -53 9
-92 -28 -48 -45 -74 -50 -196 -35 -111 14 -150 10 -184 -21 -24 -21 -76 -40
-117 -41 -40 -1 -193 -5 -338 -7 -190 -3 -277 -15 -309 -41 -32 -26 -118 -38
-304 -41 -178 -3 -273 -15 -302 -38 -28 -23 -111 -34 -258 -34 -156 0 -230
-11 -262 -38 -29 -23 -99 -38 -189 -38 -87 0 -160 -15 -186 -37 -24 -20 -93
-36 -152 -37 -60 0 -123 -15 -140 -32 -17 -17 -85 -31 -152 -31 -130 0 -176
-44 -119 -112 41 -50 14 -113 -49 -113 -48 0 -62 24 -53 92 7 57 -103 67 -146
13 -22 -28 -68 -50 -106 -50 -36 1 -106 -29 -156 -67 -74 -56 -115 -68 -241
-70 -123 -1 -156 -10 -177 -49 -16 -29 -41 -42 -65 -33 -22 8 -60 -3 -85 -26
-24 -22 -80 -43 -123 -45 -45 -2 -88 -22 -103 -48 -19 -33 -43 -40 -106 -28
-57 10 -90 3 -113 -25 -18 -21 -55 -39 -81 -39 -26 0 -54 -17 -62 -37 -8 -21
-41 -38 -74 -38 -37 0 -60 -15 -60 -37 0 -22 22 -38 52 -38 77 0 44 -60 -42
-76 -53 -9 -84 1 -113 36 -40 49 -41 49 -70 -6 -21 -39 -44 -52 -77 -41 -32
10 -56 -2 -75 -38 -19 -36 -43 -48 -75 -37 -32 10 -56 -2 -75 -38 -19 -36 -43
-48 -75 -37 -32 10 -56 -2 -75 -38 -19 -36 -43 -48 -75 -37 -32 10 -56 -2 -75
-38 -19 -36 -43 -48 -75 -38 -29 10 -55 0 -70 -27 -13 -23 -49 -43 -82 -44
-54 -3 -58 -12 -51 -135 7 -146 -30 -185 -130 -136 -109 52 -167 53 -194 2
-17 -33 -42 -44 -73 -34 -32 10 -56 -2 -75 -38 -18 -34 -43 -48 -72 -38 -30 9
-67 -14 -117 -74 -46 -56 -88 -83 -113 -75 -27 9 -78 -30 -150 -113 -65 -75
-127 -123 -152 -119 -24 3 -76 -31 -118 -77 -44 -50 -86 -77 -104 -66 -18 11
-63 -19 -113 -75 -45 -51 -95 -86 -110 -76 -15 9 -72 -26 -126 -78 l-100 -94
67 -70 c77 -80 63 -119 -21 -60 -71 50 -121 51 -121 3 0 -20 -26 -54 -59 -75
-32 -21 -71 -66 -86 -100 -30 -65 -105 -63 -105 2 0 19 -11 35 -25 35 -14 0
-25 -9 -25 -20 0 -53 -253 -280 -312 -280 -76 0 -83 -39 -11 -58 76 -20 53
-104 -27 -104 -47 0 -69 -19 -87 -75 -18 -52 -46 -79 -92 -88 -37 -7 -92 -44
-122 -82 -30 -39 -73 -67 -96 -63 -23 4 -76 -24 -116 -62 -41 -37 -83 -68 -93
-68 -42 0 -16 -45 33 -58 77 -20 52 -103 -33 -112 -54 -7 -69 -22 -69 -67 0
-56 -62 -100 -117 -83 -13 4 -97 -66 -187 -155 -159 -157 -164 -166 -160 -279
l5 -116 -60 39 c-52 34 -64 34 -83 4 -34 -54 -27 -123 15 -139 47 -18 48 -81
0 -100 -20 -7 -43 -35 -51 -61 -9 -27 -26 -48 -39 -48 -32 0 -29 84 5 118 15
15 20 40 11 55 -35 56 -91 24 -130 -74 -22 -55 -61 -112 -87 -126 -26 -13 -47
-46 -47 -73 0 -27 -52 -98 -116 -159 -70 -68 -108 -122 -97 -141 11 -18 -29
-74 -105 -146 -68 -64 -137 -150 -153 -192 -17 -42 -70 -107 -118 -146 -61
-48 -84 -83 -74 -114 10 -32 -22 -77 -111 -155 -133 -117 -151 -161 -84 -209
24 -18 35 -48 25 -72 -21 -56 -60 -52 -79 9 -21 66 -54 63 -91 -6 -17 -31 -50
-71 -74 -88 -27 -19 -44 -61 -42 -107 1 -42 -11 -89 -27 -105 -16 -16 -29 -54
-29 -86 0 -31 -23 -68 -51 -83 -41 -23 -48 -43 -35 -112 13 -69 6 -89 -38
-112 -37 -20 -49 -44 -38 -76 10 -32 -2 -56 -39 -75 -33 -18 -47 -43 -38 -68
9 -24 -5 -53 -37 -75 -41 -29 -45 -44 -21 -73 22 -27 23 -58 1 -129 -15 -51
-31 -114 -35 -140 -10 -69 -62 -77 -82 -13 -22 69 -61 18 -62 -80 0 -36 -16
-79 -36 -96 -19 -16 -35 -63 -33 -104 1 -41 -11 -87 -27 -103 -16 -16 -29 -54
-29 -86 0 -31 -22 -68 -48 -82 -33 -17 -48 -51 -47 -101 2 -41 -18 -98 -44
-127 -44 -48 -45 -56 -7 -122 45 -79 26 -136 -37 -112 -44 17 -62 -49 -20 -74
42 -26 -1 -137 -56 -145 -38 -5 -51 -23 -46 -60 4 -29 -5 -83 -20 -122 -19
-50 -18 -79 2 -103 46 -56 8 -113 -70 -105 -65 7 -69 1 -65 -79 3 -59 -11 -97
-41 -118 -37 -26 -45 -66 -44 -219 1 -123 -11 -201 -33 -228 -19 -23 -37 -108
-40 -191 -3 -81 -20 -166 -38 -187 -17 -21 -34 -106 -37 -188 -3 -81 -20 -165
-37 -186 -17 -20 -33 -119 -36 -223 -3 -114 -18 -202 -39 -227 -21 -25 -37
-113 -40 -219 -9 -288 -18 -355 -51 -395 -26 -31 -24 -44 7 -70 33 -28 33 -38
4 -72 -64 -74 -72 -232 -15 -292 45 -49 48 -69 26 -214 -42 -287 -34 -1135 13
-1353 37 -174 37 -199 3 -238 -57 -66 -82 -414 -32 -455 20 -18 38 -67 39
-110 5 -333 18 -466 48 -502 21 -26 33 -105 33 -221 -1 -131 10 -193 39 -226
23 -26 40 -91 41 -153 0 -58 16 -125 35 -148 23 -28 35 -104 35 -223 -1 -130
10 -193 39 -226 26 -29 38 -85 35 -156 -4 -86 6 -115 44 -136 38 -20 45 -43
34 -101 -14 -66 -1 -89 100 -185 123 -116 133 -137 87 -183 -22 -22 -21 -38 4
-68 27 -33 25 -45 -13 -73 -44 -32 -43 -35 11 -64 47 -25 54 -44 41 -112 -10
-58 -4 -91 23 -114 21 -17 38 -65 38 -107 0 -42 18 -97 41 -121 22 -25 40 -77
40 -115 0 -38 11 -84 26 -102 53 -65 138 -265 126 -296 -7 -17 5 -57 27 -88
22 -32 40 -88 40 -125 0 -88 40 -112 75 -45 23 42 36 46 64 23 23 -19 28 -43
14 -67 -13 -24 0 -81 38 -160 33 -67 59 -162 59 -210 0 -57 14 -94 39 -104 21
-8 33 -29 26 -47 -7 -18 15 -82 48 -141 101 -177 117 -228 104 -324 -7 -58 2
-112 24 -144 20 -28 40 -82 46 -120 19 -141 87 -264 127 -231 46 39 78 12 40
-33 -21 -26 34 -94 258 -314 156 -154 292 -268 300 -254 19 31 113 34 113 3 0
-12 -25 -29 -56 -38 -52 -14 -40 -31 137 -202 107 -103 194 -207 194 -230 0
-24 51 -91 113 -149 61 -59 112 -127 112 -152 0 -57 319 -374 388 -386 36 -7
52 -32 58 -96 10 -109 89 -199 157 -181 33 8 63 -5 86 -39 20 -28 70 -58 111
-68 73 -16 100 -69 50 -100 -46 -28 -26 -81 38 -97 63 -16 83 -74 37 -103 -37
-23 -5 -62 51 -62 26 0 81 -33 122 -73 41 -40 96 -80 122 -88 26 -8 60 -44 76
-78 16 -35 41 -57 54 -48 31 18 100 -46 100 -93 0 -19 35 -47 78 -64 60 -22
75 -41 65 -79 -16 -64 65 -138 158 -142 85 -5 226 -109 210 -156 -15 -46 166
-233 210 -217 20 8 84 -39 154 -112 65 -69 137 -125 159 -125 21 0 89 -52 150
-116 69 -71 122 -108 141 -97 19 12 62 -18 113 -77 l83 -96 17 68 c24 94 77
85 128 -23 40 -85 40 -93 1 -121 -58 -43 -52 -63 17 -63 33 0 74 -17 91 -38
18 -21 52 -32 77 -24 30 10 54 -3 73 -38 20 -37 43 -48 77 -37 28 9 48 4 48
-13 0 -15 38 -44 85 -63 47 -20 112 -68 144 -108 62 -77 216 -161 272 -149 17
4 39 -21 48 -55 12 -48 34 -64 95 -70 44 -5 131 -35 194 -69 63 -34 136 -61
162 -61 27 0 61 -23 76 -52 17 -31 43 -46 66 -37 22 8 56 -9 82 -41 l44 -55
18 56 c28 86 84 50 124 -77 7 -24 39 -45 70 -45 101 -3 282 -107 282 -162 0
-38 20 -51 88 -58 48 -4 103 -21 122 -37 19 -16 67 -31 107 -33 39 -2 90 -18
112 -37 23 -19 73 -36 113 -38 39 -2 90 -18 112 -37 23 -19 73 -36 113 -38 39
-2 90 -18 112 -37 23 -19 74 -36 114 -38 40 -2 93 -22 117 -44 25 -23 63 -35
84 -26 22 8 46 2 55 -12 12 -19 32 -19 68 0 64 34 171 9 171 -40 0 -30 46 -37
249 -37 136 0 255 -11 263 -24 25 -41 -78 -76 -223 -76 -76 0 -139 -11 -139
-25 0 -14 67 -25 152 -25 83 0 176 -14 206 -30 30 -17 117 -31 194 -31 86 -1
158 -16 186 -39 31 -26 102 -37 225 -37 122 0 193 -12 224 -38 33 -27 109 -38
265 -39 144 -1 233 -13 259 -35 26 -21 120 -35 264 -38 166 -3 235 -15 268
-44 33 -30 73 -37 149 -27 69 9 130 1 185 -27 44 -22 95 -40 112 -40 30 0 378
-161 461 -213 21 -13 88 -27 149 -31 61 -4 129 -24 152 -44 54 -49 172 -47
228 4 25 23 79 41 119 40 41 -2 87 14 103 33 17 20 57 36 90 36 32 0 59 11 59
25 0 14 -17 25 -37 25 -21 0 -38 22 -38 50 0 58 70 68 91 13 16 -43 209 -55
209 -13 0 14 -29 25 -64 25 -48 0 -62 11 -56 43 11 61 97 72 137 18 40 -55 68
-32 69 56 2 88 58 103 78 22 17 -68 47 -82 75 -36 10 16 49 21 93 12 54 -11
90 -3 124 28 40 36 96 44 305 44 181 0 269 11 298 35 26 21 113 36 227 39 110
3 202 19 226 38 25 21 106 33 220 33 123 -1 194 11 222 35 24 21 103 39 187
42 81 3 171 20 201 36 30 17 97 30 148 30 73 0 108 17 158 74 57 65 84 75 225
82 105 6 165 20 172 41 7 23 -4 29 -36 19 -25 -8 -63 -4 -84 10 -53 34 18 80
88 56 27 -10 83 -18 125 -18 41 -1 88 -10 104 -21 19 -12 41 1 59 34 23 43 43
50 112 37 70 -13 89 -6 113 38 23 43 43 50 105 38 54 -11 91 -3 123 26 25 23
80 41 121 39 51 -1 84 14 102 49 17 31 42 44 66 35 21 -8 54 -2 74 15 20 16
77 36 128 44 89 15 92 18 84 109 -10 115 53 155 112 70 28 -40 47 -47 70 -28
78 65 473 244 514 233 29 -7 56 8 74 42 20 37 44 49 76 38 32 -10 56 2 75 38
19 35 43 48 73 38 25 -8 59 3 77 24 17 21 52 38 77 38 67 0 84 48 24 70 -51
18 -50 22 24 76 68 50 80 52 114 19 43 -44 102 -29 136 35 13 24 74 68 137 97
62 29 113 65 113 80 0 15 21 20 48 11 33 -10 57 0 75 33 30 56 228 156 352
177 94 16 149 127 63 127 -71 0 -39 136 34 146 53 7 58 1 43 -56 -23 -93 45
-86 101 10 29 49 65 75 103 75 32 0 64 17 72 37 8 21 34 38 57 38 24 0 78 40
122 89 43 49 91 82 106 73 43 -27 145 84 131 140 -18 67 37 125 102 109 55
-14 166 65 166 117 0 14 21 19 46 11 35 -11 108 51 306 259 178 188 275 273
309 269 32 -3 53 13 60 45 13 62 186 238 234 238 51 0 135 99 155 181 9 41 46
84 90 107 41 21 75 52 75 69 0 17 113 137 250 267 149 141 250 256 250 285 0
45 157 215 314 338 66 51 67 56 23 88 -44 32 -44 36 11 105 31 40 86 78 123
85 42 8 80 40 105 89 21 42 54 96 75 120 97 115 172 188 220 214 30 16 54 44
54 64 0 53 75 116 122 101 70 -22 373 304 383 412 6 69 20 89 64 95 59 9 74
41 31 68 -39 24 -29 112 15 129 22 8 50 0 62 -19 24 -40 93 31 100 102 3 21 9
66 14 100 6 34 15 107 21 163 16 142 62 320 89 348 13 13 24 47 24 76 0 28 22
92 49 142 26 50 40 98 31 108 -10 9 0 30 22 46 22 16 48 71 57 121 10 51 45
118 79 150 78 74 85 196 12 196 -27 0 -50 12 -50 27 0 15 23 34 50 41 27 7 52
31 54 54 7 60 13 134 18 191 2 27 15 66 28 87 33 50 74 -8 75 -106 0 -38 11
-69 25 -69 14 0 25 34 25 77 0 42 12 99 27 127 15 28 32 85 37 127 5 42 26 94
45 116 20 22 35 72 35 110 0 38 19 91 43 118 24 26 38 64 31 83 -8 20 1 65 20
101 19 36 42 119 51 185 10 65 33 141 52 168 19 27 34 76 34 108 0 33 23 92
51 132 l51 71 -51 32 c-74 47 -64 77 62 184 108 92 112 101 112 235 0 77 15
162 34 189 21 31 34 118 34 230 0 103 12 196 29 216 26 32 53 289 52 500 0 40
12 86 26 104 39 47 45 283 45 1700 0 1472 -3 1574 -43 1622 -16 20 -29 84 -28
144 3 190 -23 427 -51 460 -14 18 -29 98 -32 178 -3 80 -14 160 -25 178 -30
48 -45 151 -41 289 3 124 -46 216 -116 216 -40 0 -39 -4 -46 188 -3 82 -24
183 -47 225 -22 41 -41 115 -41 165 0 50 -16 122 -36 160 -19 37 -29 84 -21
104 7 19 -6 55 -28 80 -23 26 -46 82 -52 126 -5 44 -22 95 -37 114 -15 18 -32
68 -38 112 -5 44 -22 94 -37 113 -15 18 -32 67 -37 108 -5 41 -22 98 -37 126
-15 28 -27 78 -27 110 0 74 -98 163 -192 173 -80 10 -92 54 -19 68 74 14 87
56 39 127 -64 96 -253 491 -253 531 0 19 -23 79 -51 133 -29 55 -57 128 -63
162 -23 135 -41 214 -54 250 -8 21 -13 55 -10 77 3 22 -12 55 -34 72 -21 18
-38 43 -38 56 0 14 -23 53 -50 88 -27 35 -50 83 -50 107 0 69 -67 113 -113 74
-54 -44 -79 -7 -39 57 28 45 27 57 -8 82 -22 17 -40 47 -40 67 0 21 -45 76
-99 123 -55 46 -106 115 -115 153 -19 87 -80 123 -142 85 -71 -43 -127 39 -87
127 25 54 21 69 -27 108 -30 24 -55 60 -55 79 0 19 -51 83 -112 142 -62 59
-113 127 -113 151 0 23 -67 106 -150 183 -82 78 -150 160 -150 183 0 24 -67
109 -150 190 -82 81 -150 167 -150 192 0 68 -114 169 -134 118 -19 -52 -64
-49 -83 5 -9 24 -38 68 -65 98 -38 42 -45 75 -33 141 19 99 -47 152 -100 81
-66 -91 -189 22 -135 124 32 59 28 70 -62 162 -57 58 -116 96 -146 93 -38 -4
-56 16 -74 82 -23 84 -25 85 -50 31 -38 -83 -166 -36 -168 61 0 42 57 73 69
37 12 -35 81 -39 81 -5 0 42 -152 106 -215 90 -49 -12 -62 -3 -75 54 -20 84
-104 182 -156 182 -45 0 -52 6 -357 310 -133 132 -262 240 -288 240 -26 0 -85
45 -131 100 -47 55 -107 100 -133 100 -26 0 -96 51 -155 114 -85 89 -112 106
-123 75 -9 -21 -32 -39 -52 -39 -20 0 -41 -14 -47 -31 -6 -17 -20 -23 -32 -12
-11 10 -7 32 9 48 71 71 -13 199 -153 234 -39 10 -77 33 -85 53 -14 37 -175
118 -282 142 -34 8 -74 40 -88 71 -21 48 -41 56 -121 50 -86 -7 -94 -3 -79 44
14 44 6 51 -61 51 -62 0 -88 17 -129 88 -29 48 -63 87 -76 87 -13 0 -150 62
-303 138 -153 75 -297 137 -320 137 -23 0 -56 17 -73 38 -17 20 -67 37 -112
37 -48 0 -98 20 -124 49 -24 26 -79 52 -122 56 -59 6 -81 22 -92 70 -11 47
-35 65 -101 76 -48 8 -111 28 -141 44 -30 17 -81 30 -113 31 -31 0 -79 17
-106 37 -27 20 -77 37 -113 38 -35 0 -85 17 -112 37 -27 20 -71 37 -98 37 -62
0 -416 173 -416 203 0 12 -11 22 -25 22 -14 0 -25 -14 -25 -31 -1 -80 -37 -93
-151 -55 -192 65 -276 118 -268 172 7 52 -171 93 -541 125 -80 8 -162 26 -180
41 -19 16 -103 33 -188 38 -84 5 -167 21 -184 35 -30 24 -271 53 -422 50 -40
-1 -88 12 -107 28 -34 28 -235 48 -455 46 -60 -1 -123 11 -141 26 -29 23 -289
50 -494 49 -38 0 -96 17 -127 38 -32 21 -65 32 -73 24 -17 -17 -286 106 -307
141 -8 12 -51 23 -96 23 -45 0 -94 13 -109 28 -29 29 -198 45 -294 28z m233
-581 c57 -41 109 -75 116 -75 7 0 71 -37 144 -81 127 -78 140 -81 369 -76 131
3 367 -11 525 -30 158 -19 406 -49 550 -65 144 -16 347 -46 450 -66 103 -20
244 -44 313 -55 68 -10 170 -31 225 -46 55 -15 190 -46 300 -70 110 -23 245
-57 300 -76 56 -19 125 -35 155 -35 29 0 85 -15 124 -34 65 -32 368 -138 546
-191 547 -163 1656 -683 2322 -1087 360 -219 993 -638 1040 -689 7 -8 108 -86
225 -175 193 -147 417 -333 688 -573 243 -215 976 -964 1200 -1226 136 -158
255 -291 267 -296 11 -4 20 -20 20 -33 0 -14 45 -77 99 -139 124 -140 614
-873 639 -954 27 -93 204 -269 327 -329 134 -65 185 -153 185 -322 0 -133 58
-340 113 -402 34 -38 318 -600 399 -787 24 -55 58 -134 76 -175 67 -151 146
-353 177 -450 17 -55 55 -162 84 -238 71 -185 136 -381 187 -562 23 -83 53
-184 68 -225 14 -42 35 -115 46 -163 11 -48 44 -189 73 -312 30 -124 59 -265
66 -313 8 -48 29 -149 48 -225 84 -329 145 -737 188 -1250 13 -158 35 -338 48
-400 41 -188 33 -1408 -10 -1613 -20 -96 -37 -258 -38 -360 0 -103 -11 -249
-25 -325 -13 -77 -42 -263 -64 -414 -66 -458 -76 -521 -105 -625 -15 -55 -46
-190 -69 -300 -39 -187 -63 -274 -152 -563 -20 -62 -35 -132 -35 -155 0 -24
-16 -80 -35 -125 -20 -46 -59 -156 -87 -245 -73 -233 -101 -314 -184 -525 -41
-103 -91 -232 -111 -287 -102 -274 -422 -953 -460 -977 -13 -8 -23 -34 -23
-59 0 -25 -18 -60 -39 -78 -84 -70 -120 -206 -123 -474 -5 -344 -12 -353 -425
-578 -203 -110 -308 -214 -401 -397 -73 -146 -309 -488 -457 -662 -24 -28 -87
-108 -142 -178 -383 -492 -992 -1106 -1688 -1701 -34 -29 -118 -101 -186 -159
-67 -57 -163 -132 -212 -165 -49 -33 -140 -99 -202 -146 -114 -87 -629 -446
-737 -514 -126 -80 -423 -265 -498 -310 -228 -138 -782 -422 -1202 -615 -97
-44 -233 -107 -303 -140 -70 -33 -144 -60 -164 -60 -20 0 -47 -10 -60 -23 -13
-12 -63 -34 -111 -48 -48 -14 -149 -49 -225 -79 -76 -30 -171 -64 -212 -76
-42 -12 -159 -50 -261 -85 -102 -35 -223 -70 -269 -79 -46 -9 -90 -26 -97 -38
-8 -12 -48 -22 -89 -22 -41 0 -97 -12 -123 -26 -27 -14 -96 -36 -155 -48 -59
-13 -208 -47 -331 -76 -124 -29 -287 -61 -363 -71 -76 -10 -152 -27 -171 -38
-81 -51 -993 -124 -1118 -90 -115 32 -379 -37 -495 -128 -34 -26 -69 -48 -78
-48 -9 0 -52 -26 -96 -58 -126 -93 -287 -167 -364 -167 -64 0 -315 115 -399
183 -42 34 -129 85 -179 105 -21 9 -77 33 -125 55 -64 29 -191 41 -476 47
-214 4 -439 19 -500 33 -61 14 -166 26 -232 26 -66 1 -144 14 -173 29 -29 16
-116 38 -192 49 -303 44 -730 139 -847 188 -45 19 -105 35 -134 35 -28 0 -104
17 -168 37 -63 21 -189 59 -278 86 -89 27 -224 73 -300 102 -76 30 -171 64
-212 75 -42 11 -137 45 -213 75 -76 29 -166 63 -202 74 -35 11 -86 31 -112 46
-57 30 -366 172 -473 218 -187 79 -988 484 -1013 512 -7 8 -97 64 -200 124
-154 90 -716 449 -878 561 -97 66 -648 493 -761 589 -68 58 -179 152 -248 209
-501 420 -1138 1080 -1615 1673 -254 315 -548 745 -548 800 0 52 -158 208
-275 272 -454 251 -475 275 -476 579 -2 194 -12 248 -62 343 -33 62 -78 146
-100 188 -22 41 -78 142 -124 225 -193 343 -510 1066 -571 1300 -7 27 -54 162
-105 300 -51 137 -101 290 -111 339 -10 49 -27 105 -39 124 -12 19 -30 80 -39
136 -10 55 -46 207 -80 338 -113 433 -218 954 -218 1082 0 47 -17 140 -37 208
-21 67 -38 183 -38 257 0 74 -17 225 -37 337 -96 526 -101 1863 -9 2341 15 76
36 233 47 350 11 117 31 269 45 338 14 68 44 237 67 375 22 137 52 295 66 350
14 55 35 150 47 212 30 154 89 401 150 625 28 103 61 227 73 275 12 48 63 200
113 338 50 137 101 283 112 325 12 41 46 136 76 212 30 76 61 160 68 188 8 27
30 72 48 99 19 27 34 64 34 83 0 33 137 336 301 668 41 82 74 159 74 171 0 12
32 62 70 112 96 123 180 331 180 442 0 129 131 337 212 337 65 0 263 218 317
350 154 371 754 1171 1366 1822 688 732 1862 1686 2615 2126 56 33 147 89 203
124 128 81 188 114 687 370 524 270 1236 577 1588 684 41 13 97 34 125 47 27
13 168 59 312 103 243 73 315 94 588 171 55 16 177 40 273 54 95 15 185 34
199 43 15 9 78 24 140 34 62 10 203 36 313 58 110 22 329 52 487 66 158 13
428 40 600 59 172 19 397 33 500 31 178 -3 196 2 346 96 87 55 181 112 208
128 28 15 63 41 78 56 39 39 48 37 164 -47z m-5327 -741 c75 -20 71 -50 -10
-70 -71 -18 -125 15 -98 59 19 31 30 32 108 11z m-2123 -1242 c4 -24 -8 -42
-30 -42 -47 0 -75 41 -53 76 23 37 73 16 83 -34z m-5410 -7582 c18 -72 -2
-160 -38 -160 -13 0 -23 51 -23 113 0 122 35 150 61 47z m25739 -6521 c0 -18
-22 -39 -50 -46 -55 -15 -68 29 -21 76 34 34 71 18 71 -30z m-9840 -9804 c66
-25 45 -60 -35 -60 -72 0 -94 22 -58 58 20 21 43 21 93 2z"/>
<path d="M19088 34419 c-42 -14 -146 -58 -231 -97 -86 -40 -178 -72 -204 -72
-27 0 -81 -17 -120 -37 -39 -21 -201 -88 -362 -149 -160 -62 -344 -141 -410
-176 -65 -35 -145 -63 -177 -63 -33 0 -59 -14 -59 -31 0 -33 -133 -119 -183
-119 -16 0 -59 -16 -95 -34 -35 -19 -122 -48 -192 -65 -70 -17 -141 -46 -157
-66 -16 -19 -41 -35 -56 -35 -14 0 -62 -39 -106 -87 -44 -49 -103 -88 -130
-88 -27 0 -64 -17 -81 -37 -17 -21 -63 -38 -103 -38 -81 0 -172 -77 -172 -145
0 -37 -23 -44 -142 -46 -127 -2 -150 -11 -212 -81 -39 -43 -93 -78 -120 -78
-27 0 -63 -25 -79 -56 -41 -78 -74 -95 -127 -66 -35 19 -50 14 -62 -21 -31
-84 -139 -207 -181 -207 -23 0 -53 -10 -66 -21 -13 -12 -93 -47 -178 -78 -85
-30 -161 -72 -168 -91 -7 -19 -36 -35 -64 -35 -28 0 -73 -23 -101 -50 -31 -31
-83 -50 -138 -50 -62 0 -103 -18 -142 -62 -30 -35 -69 -63 -87 -63 -18 0 -33
-16 -33 -36 0 -24 -32 -39 -94 -44 -75 -6 -95 -19 -101 -64 -6 -35 -26 -56
-56 -56 -26 0 -62 -18 -79 -39 -155 -189 -216 -238 -232 -187 -27 83 -167 59
-145 -26 15 -56 -86 -70 -138 -18 -21 21 -38 22 -57 3 -18 -18 -3 -45 50 -90
98 -82 97 -93 -10 -93 -49 0 -88 12 -88 27 0 36 -131 18 -144 -21 -6 -19 14
-31 54 -31 41 0 65 -14 65 -37 0 -25 -25 -38 -75 -38 -50 0 -75 13 -75 38 0
59 -34 43 -80 -38 -29 -51 -62 -75 -103 -75 -34 0 -75 -17 -92 -37 -17 -21
-41 -38 -52 -38 -65 0 -305 -140 -323 -188 -19 -49 -35 -54 -147 -43 -165 16
-268 -9 -230 -55 21 -24 74 -30 196 -21 200 15 194 -32 -8 -59 -72 -9 -168
-46 -231 -88 -59 -39 -120 -71 -136 -71 -57 0 -419 -188 -419 -218 0 -17 -28
-49 -62 -72 -35 -22 -63 -56 -63 -75 0 -18 -14 -28 -32 -21 -17 7 -70 -16
-117 -51 -47 -35 -97 -63 -110 -63 -13 0 -53 -31 -89 -69 -36 -38 -121 -98
-190 -134 -101 -53 -123 -76 -116 -122 7 -46 -1 -55 -42 -44 -78 21 -699 -396
-703 -471 0 -16 -43 -57 -95 -92 -51 -34 -138 -105 -193 -156 -179 -166 -225
-203 -282 -234 -61 -32 -77 -103 -23 -103 46 0 347 156 770 398 198 113 376
215 397 227 37 21 903 533 975 577 21 12 116 68 213 125 96 57 231 137 300
179 68 42 186 110 262 152 76 41 177 101 225 134 47 32 95 58 104 58 10 0 185
99 388 220 204 122 483 286 621 367 137 80 311 186 387 235 76 49 194 118 263
155 195 102 1242 711 1462 850 21 13 54 31 75 40 21 10 110 61 198 115 88 53
183 108 212 121 58 27 101 52 258 154 58 37 111 68 118 68 6 0 62 34 123 75
61 41 119 75 130 75 11 0 37 15 59 34 22 19 107 72 189 117 82 45 165 97 183
115 18 19 43 34 54 34 21 0 714 403 1388 808 28 16 91 60 141 98 51 38 104 69
118 69 15 0 55 28 89 63 70 69 41 78 -97 31z"/>
<path d="M20831 34400 c17 -28 54 -58 81 -66 27 -9 106 -57 175 -107 69 -50
317 -207 551 -347 233 -141 441 -267 462 -280 108 -68 1180 -700 1188 -700 5
0 58 -32 117 -71 59 -39 147 -93 195 -119 48 -26 263 -151 479 -278 215 -128
396 -232 402 -232 11 0 683 -394 769 -450 21 -14 60 -35 88 -48 27 -12 89 -48
137 -81 48 -32 142 -87 208 -121 132 -68 154 -81 310 -182 58 -37 113 -68 121
-68 8 0 64 -34 124 -75 59 -41 116 -75 126 -75 20 0 552 -318 611 -364 21 -17
111 -67 200 -113 89 -45 225 -123 301 -173 76 -50 158 -98 183 -108 25 -9 103
-54 174 -100 166 -107 567 -342 583 -342 7 0 245 -139 529 -310 285 -170 557
-333 605 -362 48 -29 116 -65 150 -79 34 -15 79 -43 100 -61 67 -60 721 -376
739 -357 14 14 -81 110 -189 193 -102 78 -234 197 -460 417 -45 43 -120 98
-167 122 -47 25 -129 94 -183 155 -78 88 -109 108 -156 96 -47 -12 -88 15
-214 139 -85 84 -197 179 -248 211 -50 32 -116 93 -146 135 -30 42 -77 76
-104 76 -27 0 -74 27 -105 60 -42 46 -73 57 -127 47 -60 -12 -68 -7 -56 33 14
48 -112 135 -195 135 -68 0 -353 145 -412 209 -33 36 -74 66 -91 66 -17 0 -37
16 -44 36 -9 21 -34 30 -65 22 -38 -10 -57 3 -76 51 -15 41 -50 70 -94 79
-233 49 -300 77 -378 160 -68 72 -98 87 -168 81 -94 -9 -126 58 -42 88 65 23
132 87 116 111 -24 40 -135 23 -178 -28 -50 -58 -165 -64 -257 -14 l-62 35 62
14 c34 8 94 17 132 21 119 11 87 56 -49 70 -72 7 -138 21 -148 31 -10 10 -39
0 -64 -23 -42 -38 -46 -36 -69 25 -15 37 -52 71 -89 81 -34 8 -63 29 -63 46 0
51 -81 106 -179 124 -50 9 -105 33 -122 53 -17 21 -72 37 -127 37 -70 0 -97
11 -97 38 0 23 24 37 63 37 75 0 81 38 11 75 -39 21 -69 19 -129 -11 -43 -22
-100 -39 -128 -39 -47 0 -47 3 -8 46 57 63 53 71 -48 90 -68 13 -87 28 -81 63
12 76 -75 154 -133 119 -36 -23 -58 -23 -97 1 -27 17 -70 31 -95 31 -25 0 -83
39 -130 88 -56 58 -108 87 -153 87 -38 0 -76 11 -84 25 -9 14 -48 25 -88 25
-99 0 -118 44 -33 77 69 26 69 28 21 64 -28 20 -81 43 -118 51 -37 8 -99 46
-137 85 -42 43 -97 72 -138 72 -37 1 -73 11 -81 24 -8 12 -35 17 -61 10 -33
-9 -68 15 -116 77 -37 50 -82 90 -99 90 -61 0 -186 78 -201 126 -16 51 -44 61
-244 87 -104 13 -118 22 -105 64 12 37 3 48 -39 48 -29 0 -82 23 -117 50 -35
28 -95 50 -133 50 -39 0 -75 14 -80 31 -9 25 -20 24 -51 -2 -23 -18 -53 -26
-67 -17 -39 24 -32 63 12 63 20 0 37 22 37 50 0 28 -17 50 -37 50 -21 0 -38
-17 -38 -37 0 -66 -91 -42 -253 66 -94 63 -189 106 -236 107 -43 2 -98 22
-122 46 -23 24 -54 43 -68 43 -14 0 -54 23 -89 50 -35 28 -89 50 -120 50 -31
0 -63 17 -71 38 -8 20 -42 37 -76 37 -34 0 -78 16 -97 36 -20 20 -58 30 -84
24 -25 -7 -144 33 -263 89 -119 55 -239 101 -267 101 -28 0 -58 11 -66 25 -9
14 -32 25 -52 25 -30 0 -31 -9 -5 -50z"/>
<path d="M20455 33360 c-14 -25 -12 -86 3 -156 20 -89 48 -1876 38 -2416 -1
-42 -3 -126 -4 -188 -2 -62 -1 -202 1 -312 13 -567 -36 -7583 -52 -7627 -13
-35 -7 -63 21 -85 47 -40 122 -12 261 97 72 56 1056 651 1640 991 68 40 147
87 175 103 27 17 66 39 87 48 21 10 232 134 469 276 237 143 436 259 442 259
6 0 62 34 123 75 61 41 117 75 124 75 8 0 153 82 322 183 169 101 324 191 345
201 21 9 77 40 125 69 91 55 680 401 934 549 80 47 176 105 212 129 37 24 83
51 104 61 20 10 147 83 281 163 135 80 253 145 263 146 10 0 63 34 117 75 54
41 106 74 117 74 10 0 86 45 169 100 129 86 335 202 609 343 38 20 69 44 69
54 0 10 76 57 169 104 165 84 330 177 705 401 102 61 209 124 237 141 29 16
68 38 89 48 21 10 189 109 375 220 186 112 399 229 474 261 172 74 251 125
251 163 0 16 -104 84 -231 151 -217 114 -722 403 -919 527 -48 30 -143 87
-211 127 -68 40 -164 98 -213 128 -48 31 -112 67 -141 80 -29 13 -212 120
-405 238 -194 117 -358 214 -365 214 -7 0 -61 32 -120 71 -59 39 -147 93 -195
119 -97 52 -691 397 -750 436 -21 13 -63 35 -94 49 -32 13 -122 66 -200 117
-79 52 -194 120 -256 152 -62 33 -135 73 -163 89 -377 220 -1131 664 -1537
905 -282 167 -591 346 -687 397 -283 150 -902 517 -1301 771 -103 66 -194 119
-204 119 -9 0 -98 51 -197 113 -99 61 -190 112 -202 112 -12 0 -114 59 -227
131 -114 73 -268 169 -343 215 -76 47 -150 100 -166 119 -39 47 -140 44 -168
-5z m695 -797 c47 -35 99 -63 117 -63 17 0 56 -34 87 -75 37 -50 77 -75 120
-75 75 0 156 -82 135 -137 -9 -23 4 -44 32 -55 26 -9 73 -37 106 -62 36 -28
81 -40 115 -31 41 10 77 -8 135 -66 69 -69 91 -77 166 -63 50 9 109 4 141 -13
l54 -29 -58 -44 c-87 -66 -43 -108 67 -62 49 20 118 37 152 37 61 0 62 -2 21
-48 -47 -51 -39 -61 65 -86 50 -12 74 -5 92 27 13 24 32 36 42 26 10 -10 5
-34 -11 -53 -31 -37 77 -141 145 -141 16 0 68 -39 115 -86 112 -112 262 -214
316 -214 23 0 76 -34 117 -75 51 -51 100 -75 152 -75 76 0 108 -53 52 -87 -70
-44 -17 -69 114 -56 104 11 142 6 152 -19 7 -19 43 -46 80 -61 36 -14 83 -36
104 -48 21 -12 91 -48 156 -81 68 -34 119 -77 119 -100 0 -62 29 -76 63 -31
35 49 106 29 128 -35 40 -115 234 -243 272 -181 10 16 44 -2 86 -46 44 -46
106 -78 169 -89 55 -8 115 -33 132 -53 17 -21 51 -38 76 -38 25 0 77 -34 116
-75 50 -53 94 -75 152 -75 44 0 81 -11 81 -25 0 -14 -62 -25 -137 -25 -103 0
-138 -9 -138 -36 0 -27 22 -32 91 -21 75 12 98 5 133 -42 38 -50 49 -53 96
-23 59 36 163 -35 194 -133 9 -27 34 -44 58 -40 23 4 74 -23 114 -59 45 -42
114 -73 186 -84 64 -9 133 -27 155 -38 25 -13 51 -11 69 7 22 22 37 21 60 -4
25 -26 23 -38 -14 -61 -123 -76 -131 -86 -97 -120 26 -27 34 -22 46 23 16 60
49 70 108 32 32 -20 31 -29 -5 -69 -30 -32 -34 -56 -17 -83 21 -31 31 -28 65
20 49 71 147 74 165 6 10 -36 34 -50 88 -50 43 0 81 -16 89 -37 8 -21 34 -38
59 -39 24 0 66 -17 93 -37 27 -20 68 -37 91 -37 23 0 56 -17 73 -37 17 -21 53
-38 80 -38 26 0 85 -28 130 -62 90 -69 163 -80 212 -32 26 26 31 20 24 -31 -7
-50 -25 -64 -91 -70 -62 -6 -81 -19 -75 -50 9 -45 129 -54 237 -18 45 15 52
10 42 -29 -9 -35 19 -69 102 -129 63 -45 115 -95 117 -112 1 -16 4 -46 6 -67
2 -21 29 -41 60 -45 31 -5 56 -18 56 -29 0 -29 202 -132 222 -113 17 17 -120
149 -173 167 -19 6 -25 24 -14 41 25 41 88 19 246 -85 72 -47 145 -86 162 -86
64 0 30 -49 -49 -72 -58 -17 -66 -24 -28 -26 29 -1 91 -18 137 -38 74 -31 78
-37 35 -52 -134 -44 -154 -59 -84 -60 222 -6 198 -145 -33 -187 -50 -9 -105
-33 -122 -53 -42 -52 -115 -46 -174 13 -57 57 -75 62 -75 22 0 -16 29 -56 65
-89 96 -89 19 -207 -91 -138 -38 24 -49 17 -71 -46 -28 -80 -64 -96 -87 -37
-12 32 -24 31 -90 -6 -89 -51 -95 -72 -26 -93 86 -28 75 -39 -198 -205 -49
-30 -109 -55 -133 -56 -34 -2 -40 -17 -28 -77 12 -57 1 -89 -44 -137 -66 -69
-147 -83 -147 -25 0 21 -34 58 -76 84 -42 25 -116 93 -164 149 -49 57 -104
104 -123 104 -33 0 -70 54 -148 216 -57 119 -233 240 -241 165 -16 -158 -10
-197 38 -236 37 -30 44 -50 24 -69 -84 -86 -162 143 -110 324 14 48 25 100 25
115 0 50 -220 260 -271 260 -30 0 -72 35 -104 88 -78 125 -192 93 -156 -44 12
-44 -27 -93 -73 -94 -27 0 -97 154 -81 179 8 13 -3 49 -23 81 -26 38 -34 91
-25 157 13 94 6 108 -115 229 -71 71 -144 129 -162 129 -18 0 -53 23 -77 50
-25 27 -65 50 -88 50 -23 0 -78 45 -122 100 -44 55 -92 100 -106 100 -14 0
-77 51 -138 113 -62 61 -126 112 -142 112 -50 0 -392 147 -468 200 -39 28 -78
72 -86 98 -8 26 -43 54 -77 63 -34 8 -84 37 -112 65 -27 27 -67 49 -89 49 -22
0 -68 23 -103 50 -101 79 -194 38 -165 -73 7 -24 -20 -63 -67 -98 -86 -64 -90
-62 -260 80 l-72 61 56 78 c45 63 50 86 25 115 -43 53 -71 46 -104 -25 -18
-41 -48 -63 -87 -63 -66 0 -73 40 -20 111 69 91 3 166 -97 109 -47 -26 -57
-182 -14 -209 15 -9 20 -44 12 -78 -33 -132 314 -398 435 -334 69 37 156 32
220 -13 51 -35 56 -35 56 0 0 21 -12 39 -26 39 -15 0 -20 11 -11 25 9 16 30
11 53 -12 21 -21 54 -38 73 -38 44 0 46 -59 5 -127 -35 -58 44 -148 130 -148
24 0 64 -23 89 -51 25 -28 109 -86 185 -129 122 -69 411 -256 602 -388 34 -24
138 -108 231 -187 93 -79 195 -151 225 -160 31 -8 128 -98 216 -200 94 -110
186 -192 225 -202 36 -9 107 -49 157 -90 75 -59 106 -70 169 -56 71 16 77 12
77 -52 0 -38 -18 -88 -39 -112 -49 -54 -28 -99 105 -229 53 -51 147 -162 209
-246 62 -84 149 -195 194 -247 44 -52 81 -112 81 -134 0 -21 11 -46 25 -54 14
-9 25 -48 25 -88 l0 -71 -181 1 c-100 1 -206 -6 -236 -16 -48 -17 -53 -11 -42
40 12 56 11 56 -25 12 -24 -30 -55 -41 -81 -31 -57 22 -220 -93 -287 -201 -53
-86 -182 -121 -203 -56 -6 19 -31 22 -71 8 l-61 -20 62 -15 c88 -22 99 -101
14 -101 -100 0 -215 -57 -347 -171 -78 -67 -144 -104 -188 -104 -38 0 -113
-23 -166 -50 -54 -27 -110 -50 -125 -50 -14 0 -39 -21 -55 -47 -20 -32 -49
-43 -91 -35 -34 6 -68 1 -76 -13 -8 -13 20 -31 63 -40 77 -15 77 -16 33 -65
-58 -64 -127 -64 -144 0 -18 70 -143 71 -143 1 0 -106 -54 -176 -137 -176 -55
0 -102 -23 -153 -74 -40 -41 -84 -75 -99 -75 -15 -1 -58 -34 -97 -74 -38 -40
-125 -97 -191 -126 -67 -28 -134 -74 -148 -101 -15 -28 -49 -50 -76 -50 -62 0
-61 12 3 102 28 40 41 73 28 73 -56 0 -177 -57 -190 -89 -7 -20 -31 -36 -52
-36 -21 0 -38 -18 -38 -41 0 -31 16 -37 74 -25 41 8 81 3 90 -11 27 -44 -43
-98 -128 -98 -46 0 -90 -11 -98 -25 -9 -14 -36 -25 -61 -25 -25 0 -59 -16 -75
-35 -16 -19 -76 -42 -134 -51 -73 -11 -132 -43 -192 -103 -55 -55 -110 -86
-153 -86 -81 0 -150 -68 -101 -98 21 -13 -29 -51 -149 -112 -182 -93 -237 -93
-219 0 6 29 49 57 120 77 151 44 170 71 74 105 -111 39 -121 36 -148 -34 -13
-35 -42 -63 -65 -63 -32 0 -37 -16 -25 -83 18 -96 -18 -138 -229 -266 -72 -44
-131 -96 -131 -116 0 -22 -27 -35 -76 -35 -41 0 -82 -16 -89 -35 -7 -19 -45
-41 -85 -49 -40 -8 -78 -35 -86 -63 -24 -73 -108 -115 -299 -150 -198 -35
-207 -31 -237 134 -13 68 -41 136 -63 152 -51 37 -51 76 0 96 32 12 37 37 24
121 -9 59 -16 146 -14 194 4 145 3 247 -2 313 -2 35 13 83 34 107 45 51 48
475 3 532 -15 20 -34 56 -43 80 -22 61 56 90 88 34 44 -79 70 -13 70 174 0
149 -10 201 -51 255 -43 59 -46 80 -22 150 23 66 21 92 -13 144 -36 54 -37 83
-12 211 27 136 25 155 -24 238 -62 105 -71 250 -15 271 47 18 48 126 1 165
-28 23 -34 66 -24 172 7 78 17 293 21 479 4 186 15 425 25 533 13 136 9 218
-12 269 -26 63 -24 81 10 120 35 38 40 90 30 330 -8 188 -2 314 18 369 26 74
24 88 -19 119 -43 31 -48 61 -42 220 8 182 -18 277 -90 322 -17 11 -31 43 -31
72 0 30 -21 56 -50 64 -34 9 -50 34 -50 80 0 37 -17 89 -37 116 -20 27 -37 56
-37 66 -2 43 246 50 448 12 118 -22 253 -45 301 -51 48 -5 166 -35 263 -65
353 -111 487 -122 487 -40 0 39 -153 164 -256 208 -41 18 -69 49 -69 78 0 26
-19 55 -42 64 -32 12 -35 22 -11 46 23 23 35 23 51 -4 17 -27 32 -23 74 19
l53 53 -72 0 c-39 0 -120 17 -178 38 -58 20 -141 37 -184 38 -43 1 -123 19
-178 40 -55 21 -170 48 -255 60 -200 28 -409 97 -426 141 -7 19 4 54 24 78 21
23 57 80 80 125 23 45 61 103 84 127 130 135 201 347 131 390 -35 22 -33 131
2 143 19 6 30 92 32 239 1 146 14 240 34 260 47 47 37 124 -19 139 -71 18 -73
182 -3 182 30 0 53 -23 63 -62 18 -71 93 -120 151 -98 60 23 48 41 -86 129
-81 53 -125 99 -125 131 0 67 48 63 150 -12z m3784 -3559 c38 -42 38 -50 4
-78 -49 -42 -169 29 -147 87 20 51 93 47 143 -9z m466 -448 c0 -67 -62 -75
-97 -12 -18 31 -13 56 16 88 46 51 80 19 81 -76z m211 -199 c11 -27 0 -55 -27
-75 -61 -45 -95 -28 -104 51 -7 57 1 67 53 67 35 0 69 -18 78 -43z"/>
<path d="M21975 30382 c0 -87 182 -232 292 -232 44 0 71 -123 39 -174 -40 -65
3 -112 171 -187 126 -57 164 -65 213 -42 116 52 57 120 -144 167 -77 18 -96
67 -66 179 32 124 108 152 143 53 23 -66 20 -83 -17 -111 -39 -30 -35 -33 38
-34 122 -1 177 135 87 219 -40 38 -77 52 -110 41 -30 -9 -68 1 -95 26 -56 50
-270 115 -432 131 -104 10 -119 6 -119 -36z"/>
<path d="M22910 30136 c-21 -84 26 -136 77 -85 43 43 24 149 -27 149 -19 0
-41 -29 -50 -64z"/>
<path d="M25179 30083 c13 -62 71 -71 71 -10 0 31 -16 52 -39 52 -24 0 -36
-17 -32 -42z"/>
<path d="M22776 29902 c-23 -44 -20 -56 17 -69 24 -9 65 -37 89 -62 67 -69
164 -60 194 19 32 85 18 103 -95 116 -51 6 -112 19 -135 29 -29 13 -51 3 -70
-33z"/>
<path d="M23609 29739 c-22 -59 25 -101 62 -56 23 27 21 42 -8 66 -31 26 -40
24 -54 -10z"/>
<path d="M27668 27334 c-40 -39 -14 -62 63 -54 45 4 79 19 76 33 -7 30 -114
47 -139 21z"/>
<path d="M25290 26085 c-22 -57 -20 -60 34 -60 27 0 61 23 76 50 23 44 19 50
-34 50 -33 0 -67 -18 -76 -40z"/>
<path d="M19273 33292 c-62 -48 -151 -108 -199 -134 -83 -45 -235 -136 -337
-202 -27 -17 -66 -39 -87 -49 -21 -9 -119 -65 -219 -125 -101 -59 -189 -107
-196 -107 -8 0 -72 -38 -143 -84 -71 -46 -195 -122 -275 -169 -80 -46 -204
-119 -275 -162 -157 -93 -1059 -617 -1220 -707 -210 -119 -848 -490 -917 -533
-130 -82 -174 -108 -282 -167 -60 -33 -137 -79 -172 -103 -92 -62 -670 -400
-685 -400 -7 0 -182 -101 -388 -225 -207 -124 -383 -225 -392 -225 -9 0 -66
-34 -127 -75 -61 -41 -116 -75 -121 -75 -5 0 -169 -96 -364 -212 -196 -117
-359 -213 -363 -213 -3 0 -66 -39 -139 -87 -74 -49 -142 -88 -152 -88 -10 0
-216 -118 -458 -262 -242 -145 -444 -263 -449 -263 -6 0 -59 -31 -118 -69
-164 -104 -198 -125 -320 -194 -62 -34 -191 -107 -287 -161 -97 -54 -193 -99
-215 -100 -43 -1 -123 -77 -123 -115 0 -13 115 -83 256 -156 141 -73 369 -199
507 -281 137 -81 340 -199 450 -263 110 -63 323 -187 475 -275 151 -88 348
-196 437 -240 89 -44 171 -94 181 -111 25 -40 406 -260 452 -260 19 0 109 -56
200 -125 90 -69 173 -125 183 -125 10 0 86 -43 170 -96 159 -101 848 -511 961
-571 36 -20 99 -58 141 -84 41 -27 97 -59 125 -71 27 -13 92 -52 144 -88 53
-36 103 -65 113 -65 10 0 93 -50 186 -111 92 -61 193 -118 224 -128 31 -10 85
-37 120 -61 97 -66 928 -555 1013 -596 41 -21 131 -73 200 -117 68 -45 154
-96 191 -115 37 -19 228 -131 425 -249 478 -287 1199 -708 1232 -720 15 -6 66
-40 114 -76 48 -36 138 -92 200 -125 62 -32 171 -102 242 -155 72 -53 170
-116 219 -139 134 -64 147 -34 116 247 -31 277 -43 8167 -16 10395 2 179 -66
198 -238 67z m-246 -732 c27 -32 27 -48 0 -92 -29 -45 -27 -58 15 -91 74 -60
84 -114 29 -148 -48 -30 -48 -32 3 -96 57 -73 50 -214 -14 -282 -29 -30 -28
-42 4 -77 27 -30 31 -59 15 -102 -12 -33 -23 -141 -23 -241 l-1 -182 122 -134
c68 -74 123 -152 123 -174 0 -21 14 -68 30 -105 41 -90 -44 -154 -230 -173
-227 -24 -651 -90 -837 -130 -413 -90 -1445 -413 -1767 -554 -488 -212 -1001
-478 -1309 -678 -228 -147 -812 -598 -812 -626 0 -12 -25 -30 -55 -39 -125
-40 -851 -828 -1254 -1361 -254 -337 -408 -500 -469 -500 -9 0 -38 57 -63 127
-27 76 -74 148 -115 177 -38 27 -69 66 -69 86 0 20 -33 43 -75 51 -82 17 -97
45 -36 69 64 24 15 65 -79 65 -58 0 -92 14 -103 42 -8 23 -33 61 -55 85 -22
24 -60 72 -84 108 -54 78 -93 84 -93 15 0 -27 -10 -50 -22 -50 -41 0 -79 68
-62 112 14 38 6 41 -62 26 -67 -14 -79 -10 -79 31 0 65 -26 86 -66 53 -47 -39
-109 -9 -109 52 0 40 -16 51 -75 51 -88 0 -98 46 -25 113 65 58 63 94 -5 125
-89 40 -85 87 8 87 89 0 297 90 297 129 0 13 49 46 110 72 60 27 117 67 125
89 11 29 36 37 83 28 75 -14 170 45 170 107 0 51 78 61 189 24 119 -39 222 -9
122 35 -35 16 -91 54 -124 85 l-59 56 54 0 c30 0 55 -11 55 -25 0 -14 39 -25
88 -25 95 0 113 37 43 90 -40 31 -38 33 22 34 82 1 222 49 222 76 0 35 165
125 229 125 34 0 74 13 91 30 32 32 292 119 357 120 76 0 124 80 84 136 -52
71 -45 89 37 89 53 0 88 -21 127 -75 29 -41 64 -75 77 -75 31 0 30 93 -2 113
-34 20 -32 130 2 151 15 9 40 4 55 -11 50 -50 105 -30 218 84 63 62 137 112
167 112 30 1 70 22 88 47 18 25 58 59 89 76 64 34 74 78 19 78 -21 0 -38 11
-38 25 0 44 74 27 106 -25 40 -65 94 -64 94 1 0 53 194 263 219 238 8 -8 0
-41 -17 -73 -68 -128 77 -228 159 -110 51 72 49 82 -15 142 -75 70 -22 137 91
116 66 -12 87 -3 134 61 30 41 68 75 84 75 16 0 50 19 75 42 31 28 81 41 146
37 54 -3 99 5 99 18 0 14 23 32 50 41 31 9 50 37 50 75 0 60 15 69 175 101 48
9 132 49 186 89 54 40 123 72 153 72 29 0 74 23 99 50 24 27 66 50 91 50 25 0
68 22 95 49 28 28 67 43 88 35 27 -10 38 1 38 38 0 34 16 53 44 53 24 0 76 17
115 38 39 20 100 37 134 37 72 0 251 158 262 232 5 33 49 65 133 98 148 58
212 111 212 174 0 61 101 101 269 108 140 5 189 27 122 53 -48 18 -55 76 -10
92 17 6 70 -10 117 -35 94 -50 127 -43 127 29 0 30 23 54 63 64 34 8 62 24 62
34 0 11 50 38 111 62 62 23 118 63 127 90 11 37 36 46 107 42 79 -5 94 3 100
51 5 31 26 56 47 56 21 0 83 45 136 100 103 106 170 125 224 60z m-2331 -1269
c6 -33 -4 -43 -37 -37 -25 5 -50 30 -55 55 -6 33 4 43 37 37 25 -5 50 -30 55
-55z m-1213 -676 c17 -43 -47 -72 -112 -51 -81 25 -51 86 43 86 31 0 62 -16
69 -35z m3872 -511 c27 -26 25 -38 -10 -64 -82 -61 -276 -492 -238 -530 8 -8
4 -43 -9 -77 -15 -41 -14 -79 5 -114 23 -43 20 -59 -18 -86 -44 -33 -44 -36 1
-112 46 -77 46 -78 -12 -121 l-57 -44 48 -97 c62 -122 59 -273 -5 -321 -46
-35 -46 -38 11 -139 57 -101 58 -112 40 -557 -9 -250 -28 -468 -41 -484 -36
-46 -34 -724 3 -768 37 -45 40 -537 3 -574 -32 -32 -34 -147 -4 -180 36 -39
-8 -314 -55 -348 -58 -43 -53 -83 13 -93 39 -5 61 -33 77 -95 21 -80 16 -93
-55 -152 -88 -73 -99 -123 -28 -123 66 0 70 -11 79 -237 8 -174 3 -201 -35
-208 -35 -7 -43 10 -43 92 0 55 -11 107 -25 116 -16 9 -25 -37 -25 -122 0 -75
-7 -155 -15 -176 -11 -28 -1 -40 32 -40 83 0 106 -46 65 -129 -33 -66 -33 -79
4 -120 26 -29 40 -85 39 -154 -2 -60 3 -209 10 -330 16 -272 -6 -342 -108
-342 -102 0 -378 149 -404 219 -15 37 -43 56 -84 56 -44 0 -74 22 -100 73 -37
71 -239 227 -294 227 -15 0 -41 19 -58 43 -28 37 -40 39 -93 11 -74 -40 -259
43 -293 131 -40 104 -138 182 -252 200 -70 11 -114 8 -119 -9 -20 -58 -86 -27
-70 34 16 67 -24 95 -105 73 -35 -8 -60 4 -78 39 -27 50 -361 228 -428 228
-18 0 -58 23 -89 52 -30 29 -101 58 -158 66 -202 27 -88 75 142 59 45 -3 81 6
81 21 0 15 -36 27 -79 27 -44 0 -101 19 -127 43 -38 34 -60 37 -119 15 -58
-22 -79 -21 -102 7 -22 26 -38 28 -63 8 -34 -28 -85 -12 -85 27 0 30 -112 150
-140 150 -33 0 -532 250 -547 273 -32 52 124 56 159 4 43 -65 78 -67 78 -3 0
69 -153 140 -221 103 -60 -32 -165 0 -187 57 -14 37 -425 252 -483 253 -16 1
-51 21 -77 45 -27 23 -57 43 -68 43 -11 0 -53 28 -94 63 -40 34 -87 62 -103
62 -16 0 -69 45 -117 100 -48 55 -102 100 -119 100 -17 0 -51 10 -75 22 -173
87 -233 103 -247 65 -21 -53 -59 -46 -59 12 0 65 -38 84 -97 47 -38 -24 -64
-24 -115 -1 -36 17 -137 30 -224 30 -119 0 -162 10 -173 38 -17 44 65 215 157
328 475 583 509 622 773 895 242 250 774 711 1029 892 76 53 166 119 200 145
417 319 1576 870 2288 1086 744 226 1193 314 1567 307 121 -2 205 -16 225 -37z
m-8110 -2048 c-4 -24 -25 -43 -45 -43 -20 0 -41 19 -45 43 -6 31 7 44 45 44
38 0 51 -13 45 -44z"/>
<path d="M17576 31751 c-32 -20 -31 -26 6 -40 54 -21 126 6 106 39 -20 31 -64
32 -112 1z"/>
<path d="M16682 24793 c31 -31 63 -46 72 -33 29 41 -8 90 -68 90 l-59 0 55
-57z"/>
<path d="M25518 32210 c-29 -30 8 -60 73 -60 39 0 59 12 53 31 -12 35 -99 55
-126 29z"/>
<path d="M8663 27469 c-20 -65 -87 -441 -126 -706 -22 -152 -63 -388 -92 -525
-37 -182 -54 -368 -59 -675 -5 -234 -11 -454 -15 -488 -3 -34 2 -200 13 -369
17 -269 14 -306 -20 -306 -21 0 -39 -12 -39 -28 0 -15 17 -21 38 -13 25 10 37
-1 37 -32 0 -25 -22 -52 -50 -59 -59 -16 -64 -85 -12 -154 45 -59 47 -148 6
-216 -26 -42 -25 -56 6 -81 50 -40 59 -244 10 -225 -22 8 -35 -3 -35 -31 0
-25 -18 -65 -41 -90 -35 -38 -36 -56 -9 -120 22 -54 23 -85 5 -108 -50 -60
-67 -577 -21 -615 51 -43 53 -112 4 -153 -54 -44 -47 -119 14 -151 39 -21 50
-45 41 -93 -7 -36 -1 -91 13 -122 19 -42 18 -68 -4 -94 -16 -20 -27 -92 -24
-163 3 -69 -1 -134 -10 -142 -9 -9 1 -50 23 -91 28 -54 34 -117 25 -228 -20
-221 -17 -322 9 -354 13 -15 23 -100 22 -189 -1 -88 0 -243 2 -344 2 -120 -10
-209 -36 -260 -47 -95 -47 -117 -3 -167 59 -67 68 -773 9 -758 -55 15 -56 -14
-3 -72 56 -63 26 -343 -46 -435 -50 -64 -50 -65 -3 -78 44 -11 47 -34 41 -292
-8 -318 31 -723 79 -817 17 -34 40 -175 50 -312 10 -138 41 -374 68 -525 28
-152 58 -326 69 -388 29 -174 80 -350 101 -350 11 0 27 39 36 87 22 121 24
10985 1 11194 -16 155 -49 215 -74 138z"/>
<path d="M31258 27412 c-27 -129 -27 -11068 0 -11197 12 -55 30 -87 42 -75 33
34 125 514 125 653 0 69 16 144 37 171 21 28 37 105 37 186 1 76 18 192 38
258 20 66 42 212 49 323 7 112 24 210 37 218 43 26 76 318 52 461 -12 74 -15
159 -8 187 9 34 0 58 -27 68 -50 19 -52 60 -2 60 31 0 38 54 41 319 3 175 8
515 11 756 3 241 7 470 9 510 1 42 -19 96 -48 127 -62 66 -65 110 -7 152 57
42 51 436 -8 468 -46 26 -47 68 -1 68 34 0 69 116 65 213 -2 27 -1 100 2 162
2 62 3 143 0 181 -10 195 -12 323 -9 782 2 275 3 663 2 862 -1 199 0 424 2
500 2 76 4 174 4 219 -1 44 -1 112 -1 150 -2 246 -31 456 -64 456 -51 0 -49
190 2 209 42 16 54 241 12 241 -14 0 -25 -17 -25 -37 0 -21 -11 -38 -25 -38
-44 0 -27 71 29 124 53 48 48 89 -10 89 -35 0 -48 349 -17 431 15 38 10 108
-13 201 -34 137 -72 385 -112 730 -10 89 -31 213 -46 275 -15 62 -47 214 -71
338 -55 289 -75 327 -102 199z m374 -7686 c7 -27 -3 -62 -22 -78 -29 -24 -35
-15 -35 49 0 87 37 105 57 29z"/>
<path d="M30100 27123 c-34 -28 -81 -65 -103 -83 -22 -19 -202 -129 -400 -246
-198 -117 -414 -245 -480 -284 -164 -98 -317 -186 -438 -253 -55 -31 -108 -68
-116 -82 -9 -14 -31 -25 -50 -25 -18 0 -110 -51 -204 -112 -95 -62 -181 -113
-192 -113 -11 0 -57 -28 -102 -62 -45 -34 -134 -90 -199 -125 -64 -34 -182
-104 -260 -155 -79 -52 -217 -132 -306 -178 -89 -46 -180 -100 -202 -120 -22
-19 -47 -35 -57 -35 -10 0 -127 -66 -261 -146 -133 -81 -299 -178 -367 -216
-69 -38 -231 -132 -360 -210 -249 -149 -250 -150 -715 -419 -477 -275 -1620
-949 -2574 -1518 -270 -161 -274 -163 -314 -182 -21 -10 -82 -47 -137 -82 -55
-35 -145 -87 -200 -115 -91 -46 -222 -123 -351 -206 -27 -17 -66 -39 -87 -48
-21 -10 -81 -49 -135 -88 -54 -38 -106 -70 -117 -70 -11 0 -63 -25 -114 -56
-52 -31 -135 -68 -183 -82 -70 -21 -88 -39 -88 -88 0 -52 33 -79 214 -174 185
-97 448 -247 573 -326 86 -54 427 -249 437 -249 6 0 59 -32 118 -72 59 -39
171 -106 248 -148 77 -43 235 -136 350 -206 115 -71 241 -147 280 -170 39 -23
172 -101 295 -173 123 -72 229 -131 235 -131 6 0 89 -51 184 -112 96 -62 181
-113 189 -113 8 0 98 -51 200 -112 102 -62 194 -113 204 -113 10 0 36 -15 58
-34 22 -19 107 -71 190 -116 82 -45 198 -114 257 -153 59 -40 113 -72 119 -72
7 0 60 -30 118 -67 99 -64 232 -139 407 -232 42 -22 109 -63 150 -90 102 -67
154 -98 299 -175 68 -37 130 -76 137 -86 7 -10 91 -61 188 -113 96 -52 191
-107 212 -124 42 -34 498 -298 688 -398 68 -37 170 -99 225 -139 55 -40 128
-80 162 -89 34 -9 68 -24 75 -35 18 -27 299 -212 388 -256 41 -20 213 -120
383 -222 170 -103 327 -198 351 -211 514 -304 1014 -618 1128 -710 189 -152
253 -99 221 185 -27 247 -15 10479 13 10552 14 36 7 65 -21 94 -54 53 -86 51
-163 -11z m-384 -710 c8 -21 41 -38 73 -38 77 0 105 -50 50 -90 -41 -30 -41
-33 5 -62 43 -27 48 -51 37 -191 -8 -96 -1 -198 18 -255 24 -73 25 -107 2
-149 -26 -50 -52 -250 -52 -397 0 -31 -14 -56 -32 -56 -54 0 -157 -121 -114
-134 125 -39 122 -34 122 -198 0 -87 -13 -171 -28 -186 -44 -44 -47 -262 -5
-311 55 -62 78 -496 27 -496 -78 0 -104 -69 -53 -144 95 -140 131 -379 109
-712 -1 -17 -14 -268 -27 -556 -24 -507 -27 -527 -87 -589 -79 -83 -77 -119 8
-129 57 -6 67 -18 61 -70 -68 -602 -74 -760 -31 -811 19 -23 39 -116 43 -208
5 -92 21 -174 36 -183 17 -10 8 -49 -24 -110 -50 -92 -50 -95 -4 -181 37 -69
41 -100 20 -146 -20 -44 -19 -69 2 -95 24 -28 14 -51 -46 -111 -86 -86 -96
-141 -33 -176 32 -18 35 -32 14 -58 -42 -51 -66 -212 -34 -232 15 -9 27 -51
27 -92 0 -41 12 -97 26 -123 19 -37 14 -59 -22 -95 -54 -54 -54 -331 0 -396
22 -27 17 -46 -25 -85 -68 -63 -68 -86 -1 -132 59 -41 116 -413 68 -443 -12
-8 -15 -61 -6 -119 14 -86 9 -104 -24 -104 -32 0 -41 -25 -41 -112 0 -62 9
-113 21 -113 37 0 86 -118 63 -154 -12 -18 -21 -56 -21 -83 0 -117 -594 -67
-639 53 -23 60 -155 134 -239 134 -52 0 -258 129 -259 163 -1 13 -60 69 -132
123 -127 95 -138 98 -338 100 -113 1 -206 10 -206 20 0 31 -112 21 -147 -12
-25 -25 -30 -15 -24 56 7 66 25 95 77 120 93 44 95 143 5 166 -56 14 -63 27
-56 109 7 88 12 93 95 93 61 0 88 11 88 37 0 28 -37 39 -147 45 -176 9 -229
-28 -254 -174 -14 -81 -31 -105 -90 -126 -45 -16 -72 -42 -72 -72 0 -27 -12
-48 -27 -48 -14 0 -23 20 -19 44 9 60 -48 156 -93 156 -20 0 -56 39 -79 88
-22 48 -55 87 -72 87 -18 0 -57 35 -87 78 -30 43 -90 93 -133 113 -43 19 -94
45 -115 58 -21 12 -57 28 -81 36 -54 16 -58 104 -6 124 66 25 43 91 -32 91
-104 -1 -148 -36 -108 -86 20 -23 22 -39 7 -39 -14 0 -41 -6 -59 -12 -56 -21
-110 27 -77 68 50 60 -82 219 -182 219 -45 0 -94 16 -111 36 -24 29 -40 31
-77 8 -39 -25 -57 -20 -106 26 -32 30 -75 55 -95 55 -20 0 -61 17 -90 37 -30
21 -72 31 -93 23 -24 -9 -46 1 -55 26 -9 22 -54 57 -101 76 -84 36 -106 72
-59 101 51 31 22 62 -60 62 -63 0 -87 12 -97 50 -11 40 -28 47 -85 35 -55 -11
-95 5 -183 71 -62 47 -166 106 -232 131 -66 25 -132 68 -147 96 -66 122 -179
217 -260 217 -59 0 -84 13 -93 50 -8 30 -34 50 -66 50 -28 0 -52 10 -52 23 0
12 -51 47 -112 77 -62 30 -113 64 -113 76 0 44 -101 79 -138 49 -42 -36 -142
-23 -156 19 -6 19 21 38 67 47 90 18 98 46 25 85 -41 22 -61 20 -95 -11 -37
-33 -67 -35 -198 -12 -193 34 -209 87 -26 86 81 -1 133 10 139 30 8 22 -25 31
-116 31 -70 0 -127 11 -127 25 0 15 -26 19 -60 11 -48 -12 -72 1 -117 62 -48
64 -75 77 -158 77 -140 0 -265 119 -265 254 l0 94 -62 -58 c-35 -32 -63 -71
-63 -87 0 -31 -27 -35 -85 -13 -58 22 -49 77 16 94 52 14 53 17 15 56 -42 42
-70 38 -151 -20 -53 -38 -88 -9 -47 40 25 30 16 44 -51 79 -77 40 -79 44 -35
76 26 19 40 42 31 51 -9 9 -34 2 -55 -15 -56 -47 -136 -14 -270 110 -146 135
-143 207 13 305 55 35 105 85 112 111 15 57 57 64 57 11 0 -78 108 -34 136 56
20 66 116 76 164 19 17 -21 41 -38 53 -38 39 0 23 81 -22 116 -55 42 19 108
194 173 62 23 124 56 138 72 31 37 184 114 227 114 18 0 54 23 80 51 29 31 64
44 89 34 40 -15 53 10 42 86 -5 40 90 17 151 -36 52 -46 64 -44 123 15 28 28
78 50 113 50 34 0 62 11 62 25 0 14 -67 25 -150 25 -83 0 -150 11 -150 25 0
14 38 25 84 25 47 0 100 18 118 39 46 57 195 126 303 143 59 9 122 44 170 93
44 45 93 73 113 66 21 -8 48 7 62 35 34 63 66 62 82 -1 9 -34 34 -50 78 -50
78 0 86 40 14 63 -83 26 -42 73 84 97 76 15 117 36 117 60 0 72 363 355 455
355 32 0 91 23 133 50 41 28 114 61 162 75 107 29 271 160 301 241 15 38 43
59 80 60 31 0 85 17 119 37 34 19 86 36 114 36 29 1 85 40 125 89 62 74 89 87
178 87 115 0 154 32 107 89 -48 58 -7 74 108 43 63 -17 109 -19 114 -5 4 12
34 23 66 23 33 0 74 26 98 63 23 34 58 62 78 62 20 0 37 17 37 38 0 21 29 49
65 63 36 13 71 47 78 74 7 28 22 50 33 50 11 0 46 42 77 94 31 51 72 103 90
114 20 12 28 41 19 69 -12 36 1 54 49 72 35 14 64 42 64 63 0 63 37 44 122
-62 117 -146 228 -132 228 29 0 27 11 42 26 33 14 -9 20 -35 13 -58 -28 -92
109 -160 195 -97 39 28 42 44 19 87 -15 29 -28 92 -28 140 0 49 -11 95 -25
104 -14 8 -25 47 -25 85 0 59 13 73 80 87 51 10 86 5 98 -15 15 -24 48 -21
144 14 70 25 149 38 177 29 74 -24 201 9 201 51 0 20 -22 36 -49 36 -62 0 -87
40 -36 60 62 24 85 18 85 -22 0 -53 77 -47 91 6 15 58 266 193 345 187 60 -5
164 92 164 154 1 48 183 136 254 123 69 -13 171 27 171 68 0 13 -34 24 -75 24
-76 0 -102 35 -44 58 59 24 96 17 110 -20z m-2878 -1688 c16 -26 -110 -86
-133 -63 -14 14 69 86 100 87 9 1 24 -10 33 -24z m-441 -5698 c28 -17 24 -27
-17 -49 -55 -30 -97 0 -67 47 18 30 39 31 84 2z m2093 -1321 c55 -72 40 -77
-65 -25 -55 27 -100 54 -100 59 0 31 137 3 165 -34z m1385 -568 c0 -21 -21
-38 -47 -38 -26 0 -61 -17 -78 -37 -42 -51 -84 -48 -137 11 -51 57 -36 67 112
84 48 5 102 11 119 13 17 2 31 -13 31 -33z"/>
<path d="M27742 25108 c-26 -26 -20 -153 8 -170 14 -9 25 -42 25 -75 0 -60
126 -188 186 -188 74 0 91 -66 24 -97 -89 -40 -66 -196 78 -515 19 -42 39
-126 46 -188 6 -62 30 -186 53 -275 23 -89 53 -230 67 -312 14 -82 47 -176 73
-209 26 -33 41 -70 34 -82 -8 -12 3 -29 23 -37 49 -18 183 81 201 149 10 41
20 46 44 22 23 -23 23 -44 0 -94 -44 -97 -37 -112 56 -112 54 0 90 14 100 40
22 58 18 210 -6 210 -12 0 -34 28 -49 62 -19 41 -42 57 -67 47 -53 -20 -163
57 -163 115 0 61 46 90 82 54 45 -45 72 -32 63 28 -6 46 -23 57 -95 57 -48 0
-102 9 -119 20 -37 24 -41 133 -6 155 14 8 25 49 25 91 0 41 23 104 50 140 48
60 48 66 8 111 -41 45 -43 44 -74 -29 -20 -49 -50 -76 -81 -76 -70 0 -90 45
-43 97 61 68 49 97 -66 156 -130 66 -149 92 -128 172 9 34 14 93 12 131 -2 38
5 69 15 69 28 0 179 -177 196 -229 18 -57 41 -58 108 -2 102 83 -21 306 -168
306 -49 0 -179 170 -179 233 0 19 -27 46 -61 62 -33 15 -86 62 -117 104 -53
72 -118 97 -155 59z"/>
<path d="M28683 22677 c-46 -54 -145 -68 -207 -28 -110 70 -158 -111 -103
-394 25 -131 34 -140 113 -120 50 12 64 32 64 87 0 39 22 91 50 116 27 24 50
60 50 78 0 18 34 57 75 88 81 60 98 146 39 195 -29 24 -45 19 -81 -22z"/>
<path d="M28713 22280 c-10 -51 -30 -108 -46 -126 -49 -61 49 -111 122 -63
109 71 109 204 0 254 -55 25 -60 21 -76 -65z"/>
<path d="M28552 22004 c-14 -26 -20 -108 -14 -184 9 -126 4 -143 -64 -208
-138 -133 -84 -248 77 -164 124 64 137 55 160 -104 19 -136 -30 -169 -82 -55
-56 122 -232 22 -272 -155 -32 -139 -25 -159 54 -159 63 0 112 47 153 147 l27
66 41 -75 c22 -42 52 -102 67 -134 36 -80 101 -29 101 78 0 42 18 97 40 121
35 39 36 63 10 189 -17 80 -32 190 -33 243 -1 54 -6 85 -11 69 -14 -42 -80
-36 -97 9 -8 21 0 55 17 76 26 31 20 49 -35 107 -36 38 -66 88 -66 110 0 62
-44 76 -73 23z"/>
<path d="M28785 21960 c8 -21 15 -57 15 -80 0 -37 4 -37 38 -2 45 44 25 122
-31 122 -24 0 -32 -14 -22 -40z"/>
<path d="M22550 21388 c0 -29 18 -39 56 -33 31 4 57 19 57 33 0 13 -26 28 -57
32 -38 6 -56 -4 -56 -32z"/>
<path d="M28543 20970 c-6 -18 -2 -51 10 -74 16 -30 4 -64 -41 -117 -34 -40
-62 -96 -62 -124 0 -36 -22 -54 -84 -65 -81 -15 -85 -22 -98 -147 -7 -72 -3
-147 9 -168 14 -25 22 -1 23 75 1 153 34 205 87 137 67 -86 167 -310 150 -337
-23 -38 -62 -5 -62 51 0 53 -73 69 -78 18 -10 -99 13 -284 37 -300 61 -39 121
-18 147 52 15 39 50 81 79 93 107 47 152 478 67 644 -26 52 -59 108 -72 124
-14 17 -29 58 -34 91 -9 67 -60 98 -78 47z"/>
<path d="M28338 20876 c-9 -14 -8 -79 1 -143 l18 -116 35 68 c57 108 6 288
-54 191z"/>
<path d="M28177 19919 c-17 -59 -42 -143 -55 -188 -14 -44 -18 -92 -9 -106 8
-14 -8 -58 -36 -98 -99 -138 -69 -221 100 -279 146 -49 223 -22 223 80 0 74
-53 104 -161 90 -98 -11 -95 161 3 266 116 122 137 187 87 272 -59 102 -116
88 -152 -37z"/>
<path d="M28431 19607 c-53 -10 -59 -82 -14 -163 22 -39 105 -17 121 31 17 54
-5 152 -33 147 -10 -2 -43 -9 -74 -15z"/>
<path d="M25693 19459 c-40 -39 -16 -87 38 -79 31 4 57 24 57 45 0 39 -66 63
-95 34z"/>
<path d="M28201 19001 c-28 -54 -51 -121 -51 -147 0 -76 -68 -83 -141 -16 -36
34 -76 62 -88 62 -40 0 -78 -120 -60 -189 15 -62 24 -66 109 -52 76 12 100 5
133 -38 58 -77 102 -36 93 88 -7 92 1 108 72 153 79 50 100 112 67 198 -26 69
-82 44 -134 -59z"/>
<path d="M27917 19034 c-34 -34 -16 -88 27 -79 24 4 44 24 44 43 0 40 -45 62
-71 36z"/>
<path d="M9736 27123 c-9 -15 -3 -135 13 -269 34 -275 24 -10355 -10 -10496
-45 -184 149 -133 410 108 35 33 74 59 88 59 14 0 76 35 138 77 62 42 135 87
163 99 27 13 66 35 87 48 31 20 587 348 917 542 44 26 186 111 317 190 130 79
249 144 263 144 84 0 157 62 144 124 -14 63 -61 263 -113 476 -78 315 -214
910 -265 1163 -9 41 -31 142 -50 225 -103 452 -236 1079 -274 1287 -23 131
-59 295 -78 365 -20 70 -36 158 -36 196 0 38 -16 133 -34 210 -19 78 -54 254
-77 392 -23 137 -51 289 -63 337 -12 48 -29 149 -38 225 -9 76 -50 271 -90
434 -40 163 -73 316 -73 340 0 23 -23 113 -51 199 -67 203 -51 252 80 252 118
0 124 58 7 70 -41 5 -87 26 -104 48 -55 71 -138 -32 -196 -243 -18 -62 -33
-89 -34 -60 -3 76 -30 90 -81 44 -53 -48 -66 -304 -19 -351 16 -16 32 -116 38
-224 9 -177 17 -201 74 -244 36 -26 75 -74 88 -107 27 -73 95 -103 125 -55 16
25 23 18 24 -28 8 -362 81 -1554 108 -1787 84 -720 305 -1657 511 -2163 14
-34 48 -136 76 -225 28 -89 91 -258 139 -375 133 -324 146 -523 26 -424 -20
17 -72 25 -117 18 -45 -7 -104 -4 -131 6 -68 25 -113 4 -113 -51 0 -60 -43
-86 -86 -50 -40 33 -71 -1 -51 -55 11 -27 -4 -33 -63 -24 -58 8 -94 -4 -140
-47 -52 -50 -70 -54 -111 -28 -42 26 -50 22 -64 -33 -8 -34 -23 -63 -31 -64
-128 -16 -174 -35 -212 -87 -26 -33 -62 -61 -82 -61 -20 0 -43 -17 -51 -37
-17 -44 -197 -53 -222 -12 -9 14 -56 22 -104 19 -156 -13 -184 144 -33 180 56
13 54 18 -49 106 -87 74 -104 103 -91 149 9 32 22 153 30 269 7 116 25 232 38
257 17 31 16 74 -3 131 -15 47 -25 100 -22 118 2 18 -4 52 -14 77 -14 30 1 75
47 141 65 93 66 101 28 173 -42 82 -52 193 -19 213 25 16 12 516 -17 662 -17
81 -13 127 15 182 28 56 30 82 8 108 -16 20 -34 117 -40 217 -6 100 -22 193
-36 207 -36 36 -31 104 12 140 21 17 31 41 23 54 -13 22 -44 524 -39 634 2 27
8 247 13 488 6 241 24 485 39 541 17 65 19 125 5 162 -12 33 -18 143 -13 246
5 103 13 361 19 572 l11 385 78 61 c92 73 104 139 21 120 -101 -24 -123 14
-94 153 19 84 19 146 2 191 -16 43 -16 117 1 222 23 147 22 159 -31 198 -54
41 -55 49 -31 276 13 129 21 392 16 585 -8 360 -8 533 0 559 3 9 -11 53 -30
100 -28 65 -29 94 -6 131 16 25 29 63 29 84 0 21 11 38 25 38 14 0 25 -23 25
-51 0 -69 61 -87 129 -39 81 57 121 49 121 -22 0 -66 45 -83 93 -35 20 20 43
17 85 -13 32 -22 78 -40 102 -40 69 0 127 -110 107 -202 -13 -61 -9 -76 17
-68 18 6 37 41 41 78 12 96 65 84 196 -45 124 -122 137 -127 206 -84 26 16 67
21 93 10 45 -18 44 -21 -9 -46 -64 -29 -62 -76 2 -89 25 -4 42 8 42 32 0 54
116 51 147 -4 21 -38 35 -40 109 -13 110 40 206 39 240 -1 37 -45 -72 -406
-236 -780 -85 -193 -215 -554 -246 -683 -33 -137 -108 -318 -171 -413 -26 -40
-17 -57 67 -131 121 -106 399 -261 467 -261 27 0 56 -15 63 -34 7 -19 54 -56
105 -81 51 -26 109 -60 130 -76 33 -26 303 -172 580 -315 134 -69 155 -106
174 -304 27 -270 117 -840 172 -1090 14 -62 36 -197 49 -300 13 -103 40 -283
60 -400 20 -117 53 -314 73 -437 37 -228 69 -410 120 -694 34 -186 58 -379 96
-769 42 -431 70 -550 127 -550 63 0 94 65 138 282 19 99 53 254 74 343 21 89
49 213 63 275 13 62 34 141 46 175 21 58 54 178 144 525 45 171 105 381 145
513 17 55 51 167 74 250 24 82 54 183 68 225 14 41 54 187 88 325 121 484 132
512 195 512 31 0 84 -20 117 -44 33 -24 82 -57 110 -74 378 -233 1054 -643
1194 -724 217 -125 234 -159 271 -528 38 -377 52 -388 272 -215 81 63 181 133
223 156 42 23 170 97 283 164 114 67 254 148 312 180 323 177 648 369 1070
630 27 17 145 77 262 133 332 161 384 239 206 314 -141 59 -190 81 -231 104
-21 12 -60 34 -87 49 -55 30 -254 148 -803 472 -193 114 -358 208 -365 208 -7
0 -147 80 -310 179 -313 188 -663 394 -810 477 -48 27 -214 124 -368 215 -155
92 -324 192 -375 222 -52 31 -117 67 -144 81 -56 29 -99 55 -255 157 -57 38
-111 69 -119 69 -8 0 -57 27 -108 59 -181 115 -1263 752 -1769 1041 -60 34
-175 102 -254 151 -80 49 -199 111 -264 138 -65 27 -119 56 -119 66 0 27 -459
295 -506 295 -23 0 -48 11 -57 25 -20 33 -279 209 -417 283 -59 32 -173 97
-254 144 -195 114 -338 196 -428 246 -42 23 -120 70 -175 105 -120 77 -276
168 -463 272 -138 77 -277 172 -352 239 -46 42 -138 47 -162 9z m2877 -1863
c41 -63 87 -136 103 -164 15 -27 57 -79 92 -116 35 -37 76 -98 90 -136 27 -73
280 -208 344 -183 43 16 70 -34 36 -68 -15 -15 -28 -43 -28 -60 0 -46 123 -41
141 5 16 41 98 50 121 13 8 -13 -8 -36 -36 -51 -28 -15 -51 -38 -51 -51 0 -34
134 -30 168 4 43 43 121 6 83 -39 -38 -46 83 -114 201 -114 61 0 104 -26 188
-114 76 -79 137 -118 197 -128 49 -8 88 -24 88 -36 0 -12 28 -22 63 -22 41 0
62 -14 62 -42 0 -47 70 -133 108 -133 50 0 282 -123 328 -173 26 -29 76 -52
112 -52 35 0 120 -39 188 -87 67 -49 143 -88 167 -88 59 0 81 -41 32 -60 -71
-27 -178 -16 -210 23 -17 20 -60 37 -96 37 l-65 0 54 -54 c43 -43 88 -55 219
-59 108 -4 179 -19 208 -45 23 -21 71 -51 105 -65 108 -46 228 -132 309 -221
28 -32 67 -51 87 -44 19 8 50 -6 68 -30 31 -42 35 -42 70 5 37 50 37 50 108
-1 39 -29 90 -59 114 -68 67 -25 52 -68 -29 -84 -112 -22 -134 -134 -26 -134
26 0 59 23 74 50 34 64 112 64 158 -1 30 -42 52 -48 139 -34 l103 16 1 -84 c1
-129 59 -194 121 -137 31 28 54 34 64 17 10 -15 40 -27 67 -27 67 0 126 -61
107 -111 -15 -38 61 -55 198 -43 24 2 78 -13 118 -34 88 -45 101 -101 18 -76
-101 31 -129 27 -139 -17 -7 -35 9 -44 79 -44 48 0 92 -14 97 -31 9 -25 19
-25 49 0 64 53 270 -65 270 -154 0 -45 86 -119 128 -110 37 8 43 -56 13 -147
-16 -48 -8 -56 64 -63 116 -11 79 -57 -45 -57 -89 0 -117 -16 -218 -120 -115
-118 -117 -119 -160 -69 -45 53 -157 70 -157 25 0 -15 28 -53 63 -85 55 -51
58 -60 21 -74 -23 -9 -54 -5 -68 9 -38 38 -141 32 -141 -9 0 -35 -142 -115
-204 -115 -18 0 -69 -34 -113 -75 -44 -41 -101 -75 -127 -75 -25 0 -58 -12
-74 -28 -20 -20 -32 -13 -44 25 -18 58 -61 72 -66 22 -1 -17 -4 -54 -6 -81 -6
-89 -77 -58 -91 39 -13 94 -157 248 -232 248 -21 0 -44 17 -52 38 -8 21 -43
49 -78 62 -78 29 -81 64 -7 84 44 11 49 21 25 45 -23 23 -44 22 -96 -5 -57
-31 -69 -30 -94 4 -16 21 -118 81 -228 133 -110 52 -209 110 -220 129 -11 19
-42 35 -67 35 -71 0 -201 121 -201 187 0 61 -42 88 -139 88 -48 0 -59 12 -54
56 4 43 -7 55 -43 52 -27 -2 -82 13 -123 34 -65 34 -163 51 -325 59 -26 1 -72
-21 -102 -50 -30 -28 -75 -51 -100 -51 -30 0 -40 -13 -29 -40 10 -26 -1 -44
-34 -52 -27 -7 -66 -40 -88 -73 -21 -33 -56 -60 -76 -60 -20 0 -37 -15 -37
-34 0 -19 -22 -63 -50 -98 -27 -35 -50 -98 -50 -141 0 -88 -17 -96 -68 -33
-32 39 -34 31 -22 -74 13 -109 8 -121 -60 -170 -64 -46 -70 -59 -43 -102 34
-55 -4 -97 -88 -98 -58 0 -79 -97 -46 -216 33 -120 33 -134 2 -134 -14 0 -25
17 -25 38 0 20 -22 37 -50 37 -27 0 -50 16 -50 35 0 19 -17 41 -37 49 -21 8
-38 42 -38 76 0 34 -11 69 -25 78 -46 28 -26 62 38 62 38 0 62 14 62 38 0 20
-10 37 -22 37 -12 0 -21 55 -20 122 1 110 -8 131 -91 209 -66 63 -92 108 -92
162 0 41 -19 112 -42 158 -27 54 -41 140 -39 241 1 87 -7 163 -19 171 -12 7
-30 92 -39 188 -10 96 -27 181 -38 187 -11 7 -27 74 -37 150 -11 90 -28 137
-51 137 -18 0 -51 34 -72 75 -22 42 -59 75 -86 75 -47 0 -123 137 -92 168 24
25 -164 207 -214 207 -23 0 -50 11 -58 25 -9 14 -49 25 -89 25 -56 0 -74 12
-74 48 0 66 -92 92 -148 42 -52 -48 -87 -50 -151 -10 -37 24 -68 24 -131 2
-158 -54 -206 -34 -215 90 -5 60 4 122 18 136 15 15 27 57 27 93 0 36 55 233
123 439 189 570 230 672 397 976 49 88 109 71 193 -56z m1209 -4593 c20 -25
19 -45 -5 -77 -30 -41 -35 -41 -93 8 -52 43 -56 55 -24 76 51 34 89 32 122 -7z
m-3378 -3566 c65 -54 71 -76 20 -76 -36 0 -214 96 -214 115 0 30 146 1 194
-39z"/>
<path d="M16167 22834 c-26 -26 7 -59 59 -59 27 0 49 17 49 38 0 37 -77 52
-108 21z"/>
<path d="M14989 22577 c-18 -29 10 -102 39 -102 12 0 22 28 22 63 0 61 -34 83
-61 39z"/>
<path d="M15500 21852 c0 -36 16 -52 52 -52 36 0 49 13 43 43 -12 66 -95 73
-95 9z"/>
<path d="M19285 20741 c-82 -60 -233 -156 -336 -214 -103 -58 -248 -143 -324
-188 -134 -80 -576 -337 -700 -407 -34 -19 -96 -57 -137 -83 -42 -27 -92 -56
-113 -66 -21 -10 -81 -49 -135 -88 -54 -38 -113 -70 -131 -70 -19 0 -34 -9
-34 -20 0 -11 -59 -50 -131 -87 -72 -37 -261 -145 -419 -240 l-287 -173 4
-100 c2 -55 22 -153 44 -216 21 -64 39 -171 39 -238 0 -68 10 -129 22 -136 12
-8 29 -84 38 -171 17 -153 67 -438 118 -674 14 -65 36 -211 47 -325 12 -114
34 -286 49 -382 16 -97 26 -240 23 -319 -4 -122 3 -151 53 -194 75 -65 116
-32 132 107 29 259 142 777 243 1118 27 89 77 269 112 400 79 294 129 476 175
638 19 68 54 198 76 287 48 188 94 359 149 542 21 72 38 143 38 159 0 63 83
199 122 198 47 0 197 -70 341 -159 55 -34 156 -92 225 -129 154 -84 682 -430
749 -492 62 -57 159 -83 191 -51 16 16 15 98 -2 234 -31 250 -32 1104 -2 1386
19 171 16 204 -18 231 -56 43 -53 44 -221 -78z m-210 -778 c0 -50 -13 -63 -61
-63 -34 0 -68 -11 -77 -25 -22 -36 -62 -6 -62 48 0 46 80 97 156 100 31 1 44
-17 44 -60z m-1930 -1243 c-4 -29 -22 -58 -39 -64 -40 -13 -104 135 -87 200
12 45 17 44 74 -17 34 -37 57 -88 52 -119z"/>
<path d="M20457 20819 c-16 -19 -18 -90 -6 -181 11 -83 21 -1669 22 -3525 2
-2211 11 -3431 28 -3536 19 -115 19 -180 -1 -227 -19 -46 -20 -112 -3 -217 14
-90 16 -221 3 -323 -12 -95 -24 -774 -28 -1510 -7 -1188 -3 -1338 31 -1345 21
-4 141 61 266 144 126 83 234 151 240 151 7 0 78 43 158 96 80 52 196 123 258
156 62 33 156 91 210 129 54 38 107 69 119 69 12 0 92 43 178 95 85 53 257
155 381 227 123 72 241 141 262 153 21 13 111 65 200 116 89 51 272 158 407
238 134 80 249 146 255 146 6 0 121 66 256 146 134 80 380 224 545 321 165 96
435 255 600 352 165 97 361 211 437 254 197 112 491 281 588 340 79 47 429
252 735 431 77 44 162 91 190 103 27 13 92 52 144 88 53 36 101 65 107 65 7 0
125 68 262 151 375 226 402 242 535 312 121 63 169 91 635 372 128 77 237 140
242 140 5 0 60 34 121 75 61 41 117 75 125 75 7 0 64 34 125 75 130 88 540
300 581 300 43 0 117 94 104 130 -7 18 -118 88 -247 155 -129 68 -305 166
-391 219 -86 53 -166 96 -178 96 -11 0 -67 34 -124 75 -57 41 -111 75 -119 75
-9 0 -113 59 -231 131 -119 72 -244 144 -279 159 -34 15 -137 73 -227 129 -91
55 -254 148 -363 206 -109 57 -215 125 -237 149 -38 44 -97 80 -395 239 -78
41 -223 125 -323 187 -100 62 -229 139 -287 171 -58 32 -214 125 -346 206
-132 81 -246 148 -255 148 -8 0 -174 96 -368 214 -195 118 -373 222 -395 230
-23 9 -86 46 -141 83 -55 37 -140 88 -188 115 -80 43 -217 125 -338 201 -27
18 -91 54 -142 82 -51 27 -291 168 -534 312 -243 145 -445 263 -450 263 -5 0
-59 34 -120 75 -61 41 -118 75 -126 75 -9 0 -64 31 -122 68 -149 96 -200 127
-243 148 -21 9 -172 98 -337 197 -165 99 -379 222 -475 274 -97 52 -211 121
-255 154 -44 32 -88 59 -99 59 -10 0 -93 49 -183 109 -90 61 -222 141 -294
180 -72 39 -188 113 -257 166 -131 99 -201 117 -243 64z m731 -844 c8 -14 41
-25 73 -25 32 0 72 -17 89 -37 17 -21 41 -38 54 -38 83 0 191 -74 179 -123 -8
-29 -29 -52 -48 -52 -19 0 -35 -11 -35 -25 0 -43 62 -27 94 25 17 28 54 50 81
50 66 0 63 -20 -12 -79 -103 -81 -83 -127 47 -108 146 22 203 1 241 -91 25
-61 42 -73 84 -59 113 35 150 25 187 -50 45 -94 71 -112 166 -113 90 -1 187
-25 187 -47 0 -25 -278 -46 -350 -26 -21 6 -37 -6 -37 -27 0 -28 23 -35 95
-29 53 5 129 -5 170 -22 62 -26 80 -24 118 10 49 44 129 55 129 18 0 -13 -13
-27 -29 -33 -42 -14 -2 -69 50 -69 24 0 62 -23 86 -50 30 -35 61 -46 100 -37
39 10 82 -4 130 -43 40 -32 123 -69 184 -82 95 -22 114 -37 138 -112 22 -66
47 -90 109 -106 45 -12 93 -43 107 -70 20 -37 43 -45 98 -34 57 11 78 3 101
-38 15 -29 49 -53 74 -53 26 0 53 -17 61 -37 8 -21 39 -38 70 -38 100 0 246
-83 231 -131 -10 -34 1 -44 48 -44 38 0 66 -17 73 -46 7 -25 67 -74 134 -109
76 -40 128 -86 138 -123 17 -59 17 -59 20 -3 1 31 14 56 28 56 46 0 149 -80
149 -115 0 -20 25 -35 58 -35 39 0 69 -22 87 -62 22 -48 48 -63 107 -63 57 0
81 -13 91 -50 13 -50 107 -72 107 -25 0 44 122 27 148 -21 13 -25 70 -59 126
-76 119 -35 132 -91 26 -112 -108 -21 -92 -66 24 -66 75 0 106 -13 127 -52 15
-29 43 -46 62 -39 18 7 79 -9 134 -35 55 -27 117 -49 137 -49 19 0 42 -16 49
-35 8 -20 68 -42 140 -52 78 -11 136 -34 150 -59 21 -37 27 -36 74 6 38 34 69
41 121 27 38 -11 102 -17 141 -14 68 6 70 3 53 -77 -10 -46 -40 -112 -67 -146
-27 -34 -99 -130 -161 -212 -158 -212 -612 -706 -667 -726 -26 -9 -58 -49 -72
-89 -13 -40 -35 -73 -47 -73 -12 0 -149 -115 -304 -255 -238 -216 -283 -268
-289 -338 -8 -81 -11 -83 -95 -67 -68 12 -100 5 -143 -34 -30 -27 -106 -79
-170 -115 -63 -37 -135 -89 -160 -116 -24 -28 -57 -50 -72 -50 -15 -1 -111
-57 -214 -125 -102 -69 -200 -125 -218 -125 -69 0 -100 -117 -49 -187 33 -45
36 -45 104 8 38 30 95 54 126 54 32 0 65 11 73 24 8 13 67 59 132 104 166 112
477 328 535 369 39 29 60 30 116 3 l68 -32 -82 -34 c-44 -19 -81 -45 -81 -58
0 -13 -34 -43 -75 -67 -41 -25 -75 -59 -75 -77 0 -43 37 -40 75 6 17 20 55 37
84 37 119 0 210 88 228 220 15 109 29 132 128 202 125 88 140 91 212 47 43
-26 56 -25 82 10 17 23 58 45 92 50 41 6 64 27 69 65 5 35 31 62 68 71 33 8
103 71 155 139 52 68 148 157 213 197 66 41 119 84 119 96 0 12 42 67 94 122
51 55 195 211 319 346 512 560 501 554 590 348 51 -118 69 -137 128 -138 38 0
69 -11 69 -25 0 -14 -17 -25 -37 -25 -21 0 -38 -10 -38 -23 0 -61 36 -102 90
-102 33 0 60 -12 60 -26 0 -15 38 -42 84 -62 46 -19 101 -62 123 -94 41 -63
104 -93 298 -144 71 -18 133 -52 155 -86 20 -30 120 -97 223 -148 103 -51 201
-109 218 -129 17 -20 46 -36 65 -36 54 0 39 -42 -22 -62 -48 -16 -50 -20 -13
-30 63 -17 57 -108 -6 -108 -33 0 -50 -17 -50 -50 0 -36 -17 -50 -60 -50 -33
0 -66 -17 -74 -37 -8 -21 -43 -38 -78 -38 -36 0 -71 -17 -79 -37 -8 -21 -31
-38 -52 -38 -20 0 -67 -21 -104 -48 -36 -26 -126 -67 -198 -90 -143 -47 -176
-76 -133 -119 38 -38 35 -60 -9 -77 -68 -26 -114 9 -98 74 14 54 7 60 -63 60
-77 0 -79 -2 -63 -88 11 -55 5 -101 -14 -125 -44 -52 -70 -46 -80 19 -11 80
-81 72 -90 -10 -10 -85 -113 -156 -195 -135 -42 10 -66 3 -76 -23 -8 -21 -29
-38 -47 -38 -19 0 -58 -31 -88 -69 -29 -38 -78 -68 -108 -68 -36 0 -56 -18
-61 -57 -6 -42 -25 -56 -75 -56 -101 -1 -324 -66 -280 -82 21 -8 83 -22 138
-31 94 -17 96 -19 38 -41 -34 -13 -86 -20 -117 -16 -33 4 -84 -19 -126 -58
-39 -36 -101 -73 -139 -82 -37 -8 -107 -55 -155 -102 -71 -72 -112 -90 -228
-104 -82 -10 -146 -30 -153 -50 -8 -19 -33 -34 -57 -34 -50 0 -104 -58 -145
-156 -40 -93 -147 -119 -197 -47 -49 71 -84 46 -84 -60 0 -75 -13 -93 -99
-136 -54 -28 -121 -51 -147 -51 -26 0 -62 -17 -79 -37 -17 -21 -68 -38 -113
-38 -50 0 -87 -15 -96 -37 -8 -21 -42 -38 -76 -38 -34 0 -77 -20 -95 -45 -18
-25 -52 -53 -77 -62 -24 -9 -54 -45 -67 -79 -15 -38 -52 -69 -94 -79 -38 -10
-98 -37 -134 -62 -35 -25 -97 -53 -137 -62 -40 -10 -94 -36 -120 -58 -26 -22
-81 -40 -124 -40 -61 0 -80 -13 -92 -63 -11 -48 -33 -64 -95 -70 -93 -9 -105
-60 -24 -99 52 -26 50 -28 -31 -29 -60 -1 -98 -18 -119 -52 -20 -31 -58 -50
-102 -50 -117 0 -315 -86 -404 -175 -22 -22 -110 -74 -166 -99 -30 -12 -62
-35 -71 -50 -10 -16 -39 -21 -65 -13 -39 12 -47 4 -42 -43 7 -59 2 -60 -109
-33 -55 14 -64 8 -62 -41 2 -44 -24 -69 -116 -114 -66 -31 -119 -72 -119 -92
0 -37 -52 -65 -124 -65 -25 0 -59 -17 -76 -37 -17 -21 -57 -38 -89 -38 -32 0
-64 -10 -72 -23 -8 -13 -48 -31 -89 -39 -87 -20 -117 -56 -78 -95 41 -41 35
-57 -36 -89 -88 -40 -137 -37 -120 9 9 24 -1 37 -28 37 -27 0 -38 -13 -30 -35
20 -53 -321 -247 -432 -246 -50 1 -98 -15 -115 -38 -20 -27 -34 -30 -46 -10
-10 16 12 57 51 92 l68 64 -54 54 c-54 54 -55 54 -90 5 -36 -48 -37 -48 -55 0
-12 30 -8 52 11 58 42 15 36 81 -8 81 -21 0 -38 12 -38 26 0 14 17 32 38 40
41 16 51 147 13 171 -13 8 -25 56 -27 107 -6 176 -7 419 0 615 3 117 -5 207
-22 224 -43 43 -32 85 29 104 l57 17 -63 18 c-41 12 -65 38 -70 79 -5 34 -43
90 -85 126 -95 80 -81 147 45 207 89 42 89 43 72 167 -15 110 -12 124 30 124
62 0 183 -115 183 -175 0 -26 13 -55 28 -64 29 -18 251 21 385 68 41 14 147
31 235 36 186 12 204 22 138 72 -47 35 -47 36 8 37 31 1 56 -11 56 -26 0 -18
57 -23 169 -15 325 22 606 117 606 204 0 80 75 135 208 154 134 18 145 36 48
79 -133 59 -192 103 -212 157 -17 48 -32 52 -123 38 -138 -22 -146 -29 -146
-128 0 -60 -15 -93 -50 -112 -27 -15 -50 -49 -50 -77 0 -116 -197 -268 -316
-243 -92 19 49 271 173 309 73 22 145 87 128 114 -17 29 -198 28 -254 0 -58
-29 -242 -77 -381 -100 -62 -9 -129 -28 -149 -40 -20 -12 -74 -20 -120 -17
-46 3 -153 -7 -238 -22 -192 -35 -538 -39 -571 -6 -24 24 10 98 165 348 71
115 74 133 70 374 -4 225 1 254 38 251 57 -5 73 190 23 267 -51 77 -82 433
-42 481 19 23 25 72 14 136 -10 63 -4 118 16 151 26 42 25 55 -5 73 -40 25
-40 245 1 287 13 13 23 49 23 81 0 31 23 68 52 84 51 27 51 28 -13 87 -54 51
-65 83 -69 217 -2 87 -9 242 -15 345 -19 360 -11 502 34 552 39 42 39 57 5
160 -31 96 -32 117 -2 141 29 25 29 35 -3 70 -20 23 -37 69 -37 103 -1 34 -2
82 -3 108 -1 26 15 65 36 88 50 55 29 504 -25 535 -30 18 -30 30 0 88 19 38
34 142 34 238 0 136 11 186 54 244 l53 73 -74 0 c-94 0 -119 40 -63 101 36 41
38 54 9 88 -19 24 -31 93 -29 170 2 70 4 157 4 191 0 219 4 268 24 313 13 27
30 69 37 93 16 49 201 64 229 19z m2356 -1294 c6 -18 -11 -31 -42 -31 -31 0
-52 16 -52 39 0 46 78 40 94 -8z m2619 -2857 c9 -28 5 -65 -8 -81 -14 -17 -38
-79 -54 -138 -34 -129 -85 -127 -96 3 -6 66 3 97 31 107 21 9 39 40 39 71 0
97 61 123 88 38z m-314 -480 c-1 -124 -169 -227 -260 -160 -54 39 -33 91 36
91 25 0 72 33 104 74 78 98 121 96 120 -5z m-3211 -1771 c0 -19 -20 -39 -44
-43 -43 -9 -61 45 -27 79 26 26 71 4 71 -36z"/>
<path d="M25300 17451 c-28 -18 -30 -31 -8 -53 36 -36 116 -10 102 32 -13 41
-49 49 -94 21z"/>
<path d="M28184 15763 c-9 -23 -3 -54 12 -69 33 -33 46 -24 58 41 11 60 -48
83 -70 28z"/>
<path d="M28300 15554 c0 -29 61 -54 129 -54 29 0 46 13 40 31 -12 37 -169 58
-169 23z"/>
<path d="M23683 14186 c-8 -22 -3 -51 11 -65 33 -33 131 17 131 67 0 50 -122
48 -142 -2z"/>
<path d="M24119 14161 c-38 -21 -75 -65 -84 -99 -16 -65 -46 -80 -73 -37 -23
37 -62 5 -62 -51 0 -67 86 -109 125 -61 17 20 61 37 97 37 138 0 230 138 148
220 -38 38 -67 37 -151 -9z"/>
<path d="M23360 14038 c-23 -36 -65 -63 -95 -63 -117 0 -155 -120 -56 -173 88
-47 291 101 291 212 0 75 -95 91 -140 24z"/>
<path d="M22911 13822 c-50 -96 -20 -134 87 -110 128 28 140 188 14 188 -43 0
-73 -23 -101 -78z"/>
<path d="M23513 13825 c-25 -27 -61 -50 -80 -50 -48 0 -99 -119 -66 -152 53
-53 284 2 311 74 54 140 -69 235 -165 128z"/>
<path d="M25187 13424 c-22 -35 7 -149 37 -149 39 0 53 44 37 111 -17 67 -47
82 -74 38z"/>
<path d="M22363 11727 c-49 -19 -49 -20 6 -37 59 -19 106 -3 106 36 0 28 -43
28 -112 1z"/>
<path d="M15231 18669 c-14 -17 -33 -71 -42 -119 -9 -48 -27 -110 -38 -137
-12 -28 -58 -163 -102 -300 -44 -138 -96 -295 -114 -350 -18 -55 -56 -190 -85
-300 -28 -110 -62 -220 -76 -244 -13 -24 -24 -66 -24 -93 0 -28 -16 -92 -35
-144 -32 -88 -70 -223 -158 -557 -19 -76 -50 -194 -69 -262 -96 -362 -114
-538 -57 -538 46 1 83 30 115 92 16 30 54 58 85 63 44 6 57 24 57 83 0 50 12
75 37 75 24 0 35 -21 32 -57 -11 -100 31 -59 64 63 55 210 85 291 122 327 19
20 32 66 28 103 -5 49 14 87 66 136 61 57 69 75 45 114 -37 58 -18 76 78 76
116 -1 149 -31 89 -82 -61 -53 -63 -106 -3 -148 81 -57 104 -137 116 -400 13
-299 41 -403 193 -713 21 -41 20 -65 -4 -94 -27 -32 -24 -38 19 -38 37 0 56
-22 68 -78 9 -42 39 -99 67 -127 27 -27 88 -125 135 -217 58 -115 118 -192
188 -242 56 -40 142 -109 190 -152 48 -43 119 -85 159 -93 40 -8 73 -25 73
-38 0 -49 -80 -49 -169 -1 -52 28 -143 79 -204 112 -60 34 -121 61 -134 61
-77 0 -916 566 -1266 852 -77 64 -170 123 -208 132 -43 11 -74 38 -83 76 -12
49 -30 58 -107 56 -72 -2 -139 29 -316 147 -124 82 -237 155 -250 162 -28 14
-178 110 -375 239 -69 45 -195 120 -279 165 -227 123 -461 268 -542 336 -106
90 -147 76 -497 -168 -37 -26 -78 -47 -91 -47 -13 0 -37 -17 -54 -37 -17 -21
-47 -38 -67 -38 -20 0 -72 -27 -116 -60 -44 -33 -130 -88 -192 -121 -62 -33
-177 -102 -256 -152 -78 -51 -168 -104 -200 -117 -58 -26 -103 -52 -231 -137
-42 -28 -179 -102 -307 -166 -374 -187 -374 -187 -34 -350 118 -57 232 -118
253 -135 21 -17 116 -74 213 -126 96 -52 319 -184 497 -292 177 -109 345 -209
375 -222 58 -27 100 -52 258 -154 58 -37 115 -68 126 -68 11 0 79 -39 153 -87
73 -49 140 -88 150 -88 10 0 87 -45 171 -99 84 -55 201 -124 261 -154 60 -30
144 -81 188 -114 44 -32 86 -58 95 -58 12 0 442 -249 563 -326 21 -13 60 -34
88 -47 27 -12 92 -51 144 -87 53 -36 101 -65 108 -65 7 0 125 -68 262 -150
137 -82 256 -150 264 -150 7 0 44 -21 80 -47 37 -26 123 -78 192 -116 68 -38
173 -101 232 -140 59 -40 112 -72 118 -72 11 0 369 -205 437 -250 21 -14 64
-36 95 -50 32 -14 94 -52 138 -84 44 -32 96 -66 117 -75 21 -9 82 -43 138 -75
55 -32 280 -163 500 -290 220 -127 417 -247 439 -266 22 -19 47 -35 56 -35 21
0 337 -182 877 -504 216 -128 442 -262 503 -296 179 -101 564 -345 712 -451
228 -162 306 -127 252 114 -65 292 -31 7654 36 7762 7 13 6 52 -3 88 -22 88
-138 79 -164 -13 -10 -34 -37 -130 -60 -212 -142 -507 -502 -1601 -575 -1746
-20 -39 -36 -92 -36 -118 0 -41 -46 -177 -122 -361 -46 -113 -84 -231 -102
-319 -11 -51 -30 -107 -42 -125 -13 -17 -44 -99 -69 -181 -25 -83 -61 -187
-80 -233 -19 -45 -35 -107 -35 -137 0 -31 -17 -88 -38 -127 -20 -39 -37 -97
-37 -128 0 -31 -17 -71 -37 -88 -21 -17 -38 -56 -38 -87 0 -31 -17 -105 -37
-163 -21 -58 -38 -159 -38 -223 0 -101 -12 -129 -87 -201 l-87 -85 -132 72
c-72 39 -160 89 -194 112 -34 23 -124 81 -200 129 -76 48 -170 109 -209 136
-40 26 -102 64 -139 85 -218 124 -552 334 -597 375 -29 27 -98 73 -154 102
-157 82 -259 188 -243 252 8 30 -1 133 -19 231 -37 195 -82 471 -115 703 -11
82 -40 245 -62 362 -39 197 -67 346 -136 738 -15 82 -44 240 -66 350 -68 353
-84 445 -124 687 -39 235 -79 535 -101 747 -6 60 -17 119 -24 131 -20 33 -101
27 -130 -9z m-2593 -2594 c18 -83 28 -87 126 -49 53 20 73 17 96 -14 24 -33
48 -35 139 -15 135 30 168 8 614 -421 317 -305 887 -791 997 -849 54 -29 76
-30 125 -3 76 41 115 17 115 -71 0 -101 252 -310 588 -488 68 -36 147 -79 175
-96 27 -17 117 -72 200 -122 82 -51 189 -100 237 -110 48 -10 121 -42 161 -70
128 -91 247 -142 328 -142 44 0 108 -22 143 -50 35 -27 81 -50 102 -50 21 0
68 -30 105 -66 59 -59 78 -64 201 -52 103 11 135 6 135 -19 0 -39 127 -88 227
-88 39 0 77 -11 86 -25 8 -14 56 -25 106 -25 58 0 111 -19 148 -55 42 -39 92
-55 177 -57 75 -2 151 -23 206 -58 48 -30 118 -55 155 -55 37 0 96 -11 133
-25 80 -31 162 6 162 73 0 103 124 123 175 28 16 -30 10 -61 -17 -101 l-41
-57 123 17 c67 9 165 23 216 30 80 12 94 7 94 -32 0 -25 36 -77 81 -114 76
-64 78 -72 38 -103 -24 -19 -44 -58 -44 -87 0 -29 -22 -64 -50 -79 -27 -15
-50 -49 -50 -77 0 -28 -17 -82 -37 -121 -24 -48 -31 -103 -20 -168 15 -83 18
-312 8 -453 -6 -67 40 -421 57 -449 9 -14 -6 -45 -34 -70 -27 -25 -49 -74 -49
-110 -1 -207 -64 -302 -199 -302 -48 0 -203 91 -243 142 -27 34 -39 34 -111
-2 -53 -27 -90 -32 -106 -16 -16 16 -10 30 17 40 85 33 48 92 -50 81 -56 -7
-107 2 -131 23 -22 19 -68 56 -102 81 l-62 47 57 22 57 21 -62 59 c-45 42 -81
55 -131 45 -95 -18 -161 12 -260 117 -48 51 -109 90 -141 90 -30 0 -62 11 -70
25 -9 14 -43 25 -75 25 -33 0 -67 11 -75 25 -9 14 -37 25 -63 25 -26 0 -54 22
-62 49 -9 27 -36 55 -62 63 -25 8 -52 38 -59 66 -8 30 -25 45 -42 35 -50 -31
-146 10 -254 110 -90 83 -113 93 -161 71 -60 -27 -135 -12 -135 28 0 12 28 30
63 38 40 10 62 33 62 66 0 77 -74 92 -125 24 -35 -46 -57 -54 -115 -39 -40 10
-109 24 -154 31 -68 11 -81 24 -80 79 1 61 4 63 34 23 33 -44 126 -57 200 -29
76 29 39 60 -71 60 -61 0 -118 11 -126 25 -9 14 -35 25 -59 25 -69 0 -226 90
-282 161 -29 36 -118 99 -199 140 -80 40 -159 97 -174 126 -29 54 -51 55 -261
11 -71 -15 -73 -14 -28 22 56 46 22 107 -68 120 -36 5 -52 22 -47 51 5 34 -10
44 -67 44 -41 0 -82 12 -92 27 -9 14 -30 21 -48 14 -64 -24 -272 106 -416 260
-139 149 -149 155 -192 116 -54 -49 -141 -57 -123 -11 50 122 52 117 -40 102
-72 -11 -92 -4 -115 39 -16 29 -44 53 -63 53 -18 0 -40 17 -48 38 -8 20 -35
37 -61 37 -26 0 -60 29 -77 66 -28 61 -33 62 -75 25 -60 -55 -75 -52 -103 21
-13 35 -61 77 -110 98 -57 24 -89 55 -94 94 -10 71 -185 130 -220 73 -30 -49
-112 -21 -121 42 -5 30 -39 78 -75 106 -165 124 -216 165 -251 199 -43 44
-244 63 -266 26 -20 -32 -63 -32 -63 0 0 14 17 25 38 25 25 0 37 25 37 75 0
85 -92 108 -151 37 -28 -34 -38 -33 -86 12 -29 28 -84 51 -122 51 -59 0 -67 9
-61 69 7 65 3 68 -86 61 -52 -4 -94 4 -94 17 0 14 -53 51 -119 82 -65 32 -133
78 -151 102 -18 24 -50 44 -71 44 -22 0 -70 31 -108 69 -90 88 -128 117 -184
139 -69 26 -37 78 54 87 43 5 79 19 79 33 0 13 -41 21 -90 17 -76 -6 -94 2
-113 52 -21 55 -18 57 47 40 117 -32 166 -27 176 19 5 27 -6 44 -29 44 -21 0
-46 13 -56 29 -12 20 4 24 54 15 55 -11 85 0 128 46 31 33 84 60 119 60 35 0
64 10 64 22 0 28 330 187 472 226 70 20 113 48 121 79 7 26 27 48 45 48 18 0
50 6 70 14 20 8 60 -10 88 -41 l52 -55 30 66 c39 86 64 83 85 -9z m-497 -12
c-31 -68 -54 -78 -79 -37 -20 32 32 99 76 99 25 0 26 -13 3 -62z m6819 -1427
c63 -62 116 -132 118 -156 1 -23 5 -116 9 -205 3 -89 25 -252 49 -362 23 -110
49 -232 56 -270 11 -54 24 -66 61 -55 34 11 43 5 32 -22 -7 -20 -2 -60 13 -88
42 -77 -29 -99 -248 -77 -144 15 -200 11 -243 -16 -64 -40 -132 -46 -132 -11
0 41 -152 106 -218 94 -37 -7 -119 17 -209 62 l-147 74 37 72 c21 40 63 86 94
102 84 46 185 163 204 239 10 37 33 79 51 94 19 15 45 77 58 139 14 62 26 87
27 56 5 -95 78 -69 78 28 0 47 17 99 37 116 24 19 32 53 23 90 -11 43 -5 60
22 60 21 0 50 34 64 75 33 95 27 96 164 -39z m-3017 -414 c34 -34 14 -97 -32
-97 -44 0 -69 43 -51 89 16 43 45 46 83 8z m1674 -837 c17 -44 -42 -95 -74
-63 -24 24 3 103 35 103 13 0 30 -18 39 -40z m834 15 c50 -27 42 -100 -11
-100 -46 0 -88 52 -73 91 16 41 22 41 84 9z m-2926 -619 c-2 -59 -45 -85 -97
-58 -76 41 -65 77 22 77 41 0 75 -8 75 -19z"/>
<path d="M18259 11212 c-25 -66 29 -101 105 -66 80 36 68 89 -22 99 -45 6 -73
-6 -83 -33z"/>
<path d="M30175 14439 c-62 -33 -129 -66 -150 -75 -21 -9 -105 -54 -187 -101
-83 -47 -201 -111 -263 -143 -62 -31 -118 -64 -125 -72 -7 -8 -97 -61 -200
-119 -103 -58 -204 -116 -225 -129 -21 -13 -127 -76 -237 -139 -111 -63 -217
-125 -238 -137 -21 -13 -122 -72 -225 -131 -103 -60 -412 -242 -687 -405 -275
-163 -562 -330 -638 -371 -76 -41 -206 -118 -290 -171 -84 -53 -161 -96 -170
-96 -9 0 -48 -21 -85 -46 -86 -59 -636 -383 -767 -452 -55 -29 -117 -63 -138
-77 -75 -48 -540 -320 -637 -372 -107 -57 -139 -76 -308 -184 -59 -38 -112
-69 -118 -69 -5 0 -178 -101 -384 -225 -206 -124 -382 -225 -392 -225 -9 0
-66 -34 -127 -75 -61 -41 -116 -75 -122 -75 -6 0 -114 -63 -241 -140 -127 -77
-254 -150 -282 -163 -28 -13 -99 -54 -157 -91 -150 -97 -472 -289 -619 -370
-409 -223 -1138 -682 -1138 -717 0 -33 41 -22 339 94 160 61 312 112 338 112
27 0 71 23 98 50 28 28 74 50 103 50 29 0 108 28 177 63 68 34 135 62 148 62
12 0 71 30 129 67 58 37 126 69 150 71 25 2 62 28 83 58 21 30 65 54 97 54 72
0 468 181 580 265 44 33 103 60 130 60 28 0 63 23 78 50 28 53 111 68 138 25
17 -29 112 -34 111 -6 0 10 -17 40 -37 67 -20 27 -37 58 -37 69 0 36 69 21 85
-19 19 -50 124 -38 135 16 4 22 -19 53 -50 69 -52 28 -49 29 34 19 73 -9 112
4 188 61 59 45 127 73 178 73 134 1 254 93 255 195 0 47 13 56 89 56 62 0 106
18 147 63 34 37 73 57 96 48 21 -8 85 15 142 51 65 41 122 60 152 50 37 -12
55 1 73 49 15 37 44 64 72 64 25 0 67 23 92 50 24 28 55 50 68 50 13 0 51 21
84 47 l60 48 -64 16 c-101 25 -44 72 67 54 102 -16 184 14 242 91 18 24 53 44
78 44 25 0 60 17 78 38 31 38 316 187 357 187 31 0 167 142 167 174 0 19 30
23 87 12 98 -18 144 34 88 102 -26 31 -21 37 33 37 35 0 71 -11 80 -25 37 -61
237 15 237 90 0 19 27 41 59 49 33 8 85 49 115 90 63 86 290 196 402 196 49 0
74 13 74 38 0 20 -17 37 -37 37 -21 0 -38 17 -38 38 0 20 18 37 39 37 22 0 56
-17 77 -37 46 -46 142 -51 128 -7 -6 17 -35 35 -65 39 -108 16 -21 105 103
105 40 0 70 21 90 66 26 56 41 63 111 52 70 -11 102 3 218 100 75 63 134 124
130 136 -3 11 40 21 96 21 111 0 264 123 238 191 -9 22 5 31 42 27 36 -4 63
14 80 51 18 41 46 56 105 56 44 0 90 15 101 34 11 18 46 47 77 64 48 25 53 37
27 68 -38 46 7 85 77 67 26 -7 74 19 120 65 43 42 84 77 93 77 37 0 188 133
188 165 0 19 16 35 37 35 20 0 56 20 81 45 84 86 348 305 367 305 23 0 165
155 165 181 0 25 4 27 -125 -42z"/>
<path d="M9725 14443 c0 -17 36 -59 79 -93 44 -34 104 -88 134 -118 101 -104
368 -307 403 -307 20 0 46 -28 59 -62 13 -35 42 -63 65 -63 23 0 67 -25 98
-56 110 -111 182 -169 208 -169 15 0 39 -22 53 -48 14 -26 60 -56 102 -65 49
-10 85 -38 99 -76 13 -32 70 -85 127 -116 155 -85 178 -101 260 -178 41 -39
106 -77 146 -85 39 -8 77 -30 85 -49 16 -42 211 -138 258 -128 18 4 49 -24 68
-63 34 -67 38 -69 82 -28 57 51 124 31 124 -38 0 -34 -16 -51 -49 -51 -69 0
-86 -43 -29 -74 52 -27 128 -11 128 27 0 12 37 22 81 21 l82 0 -88 -75 c-86
-73 -86 -75 -38 -113 42 -31 54 -32 75 -4 48 63 118 72 165 21 25 -26 60 -53
78 -59 26 -9 26 -18 1 -49 -48 -58 -12 -120 70 -120 39 0 78 -12 87 -26 9 -14
36 -20 61 -12 24 8 58 -3 76 -24 17 -21 57 -38 88 -38 32 0 62 -8 66 -19 12
-27 165 -131 192 -131 13 0 30 18 39 39 9 24 37 36 71 32 73 -11 73 -56 0 -66
-37 -6 -56 -26 -56 -59 0 -43 15 -49 106 -46 160 7 169 4 169 -50 0 -57 156
-134 228 -112 27 9 53 -3 68 -31 14 -26 79 -73 146 -106 66 -33 135 -75 154
-93 18 -18 48 -33 68 -33 19 0 59 -34 90 -75 53 -71 146 -103 146 -50 0 14 28
25 63 25 74 0 82 -40 12 -62 -76 -25 -38 -108 55 -122 18 -2 61 -24 94 -48 34
-24 73 -43 86 -43 14 0 56 -30 93 -66 64 -61 72 -63 111 -24 32 32 49 35 76
13 46 -38 45 -96 -2 -114 -21 -8 -38 -30 -38 -49 0 -39 40 -47 61 -13 7 12 54
30 103 39 105 20 170 -20 147 -90 -11 -36 -1 -46 46 -46 34 0 91 -23 127 -52
36 -28 76 -44 90 -36 13 8 70 -31 125 -86 60 -60 125 -101 159 -101 32 0 116
-28 187 -62 71 -35 164 -63 205 -63 86 0 100 -39 24 -63 -29 -9 -47 -29 -42
-45 12 -37 168 -54 168 -19 0 15 31 26 69 26 l69 -2 -57 -39 c-76 -53 -71 -74
24 -93 45 -9 109 -42 144 -75 38 -35 107 -64 172 -72 59 -8 128 -32 152 -53
24 -22 61 -40 82 -40 21 0 53 -16 69 -37 17 -20 55 -44 85 -53 29 -9 82 -37
117 -61 35 -25 96 -48 137 -53 60 -7 73 -19 69 -65 -7 -57 28 -76 55 -31 26
42 135 28 161 -21 13 -25 70 -59 127 -76 56 -17 154 -58 218 -92 63 -34 136
-61 162 -61 26 0 83 -18 127 -41 69 -36 156 -62 412 -126 112 -28 50 32 -184
180 -131 82 -319 201 -418 264 -99 63 -247 151 -329 196 -83 45 -227 129 -321
186 -94 57 -206 124 -250 149 -397 229 -654 379 -936 546 -182 108 -336 196
-342 196 -7 0 -62 34 -123 75 -61 41 -117 75 -125 75 -7 0 -64 34 -125 75 -61
41 -117 75 -125 75 -7 0 -64 34 -125 75 -61 41 -118 75 -127 75 -9 0 -47 21
-84 47 -37 25 -214 131 -392 235 -179 103 -365 211 -413 240 -48 29 -112 63
-143 77 -30 13 -126 68 -212 122 -164 102 -505 303 -570 336 -21 10 -71 40
-112 66 -42 26 -143 83 -225 127 -83 44 -207 115 -276 159 -69 43 -147 93
-175 110 -27 17 -72 41 -99 53 -28 12 -211 119 -408 238 -197 118 -363 215
-371 215 -7 0 -60 31 -117 69 -164 107 -202 130 -242 148 -21 9 -144 80 -275
159 -131 78 -279 161 -330 185 -51 24 -106 59 -122 79 -16 19 -40 35 -54 35
-14 0 -109 51 -210 113 -102 61 -202 112 -221 112 -19 0 -42 12 -51 27 -9 14
-41 37 -71 49 -29 13 -70 34 -91 46 -79 46 -245 128 -260 128 -8 0 -15 -14
-15 -32z"/>
<path d="M27950 12625 c0 -14 34 -25 76 -25 45 0 71 10 62 25 -9 14 -43 25
-77 25 -34 0 -61 -11 -61 -25z"/>
<path d="M10997 6680 c-25 -18 -94 -31 -153 -30 -182 4 -346 -17 -376 -47 -15
-15 -57 -28 -92 -28 -36 0 -91 -18 -123 -41 -32 -22 -93 -42 -136 -44 -64 -3
-79 -15 -79 -61 0 -35 -27 -73 -68 -98 -77 -47 -119 -27 -70 32 51 61 5 77
-51 16 -28 -30 -69 -54 -90 -54 -26 0 -34 -14 -24 -41 36 -93 -34 -110 -141
-33 -56 41 -125 74 -154 74 -32 0 -96 49 -162 124 -68 78 -129 124 -163 124
-29 -1 -289 -1 -577 -1 -688 1 -741 -10 -902 -189 -42 -47 -109 -93 -149 -104
-53 -14 -78 -40 -93 -101 -17 -64 -33 -79 -76 -73 -38 5 -57 -8 -64 -42 -11
-58 -51 -113 -82 -113 -12 0 -127 108 -257 241 -216 221 -242 240 -310 226
-63 -12 -73 -8 -63 30 30 114 -49 127 -729 126 -289 -1 -549 -1 -578 0 -53 1
-137 -77 -167 -155 -18 -48 -57 -56 -81 -18 -24 40 -59 5 -45 -46 16 -61 -55
-120 -101 -82 -18 15 -41 20 -50 11 -29 -29 -17 -58 23 -58 55 0 36 -110 -20
-120 -31 -6 -44 7 -44 43 0 29 -11 52 -25 52 -14 0 -25 -9 -25 -19 0 -10 -28
-50 -63 -87 -88 -95 -182 -79 -318 53 -58 56 -124 103 -147 103 -50 0 -105 62
-92 103 23 69 -147 187 -305 211 -78 13 -1064 12 -1152 0 -103 -14 -229 -88
-306 -179 -38 -47 -106 -94 -150 -105 -53 -14 -82 -38 -87 -73 -4 -29 -37 -85
-73 -123 -61 -65 -65 -87 -65 -301 0 -160 10 -243 34 -272 20 -23 35 -90 36
-148 0 -58 17 -125 37 -150 21 -24 37 -93 38 -152 0 -77 14 -119 48 -144 36
-26 43 -51 30 -104 -12 -48 -5 -83 24 -115 23 -26 42 -78 42 -116 0 -38 17
-89 38 -113 21 -24 38 -77 36 -118 -1 -42 9 -81 21 -89 56 -35 108 -192 78
-239 -24 -39 -20 -51 24 -75 42 -22 49 -43 37 -104 -11 -53 -3 -91 25 -122 23
-25 41 -77 41 -115 0 -38 16 -89 37 -112 21 -24 38 -75 38 -113 0 -38 17 -90
40 -115 24 -27 40 -91 41 -158 0 -83 13 -119 47 -138 36 -21 42 -44 30 -110
-13 -69 -6 -88 37 -112 44 -23 51 -43 38 -112 -13 -68 -6 -89 34 -111 39 -21
47 -44 37 -97 -11 -50 7 -106 66 -205 44 -75 80 -165 79 -199 -1 -75 380 -475
452 -475 25 0 72 -29 105 -64 32 -35 95 -69 140 -74 44 -6 98 -25 120 -43 59
-48 1080 -44 1138 4 22 18 71 33 109 33 38 0 92 24 122 53 116 117 180 166
215 166 20 0 98 66 174 146 75 80 149 153 164 163 38 23 106 -8 106 -49 0 -47
41 -44 60 4 9 24 37 36 71 31 57 -8 66 -43 32 -126 -16 -38 -8 -42 59 -28 83
16 107 -27 48 -86 -23 -23 -23 -37 1 -61 25 -25 41 -19 79 31 37 49 54 56 78
32 23 -23 23 -38 -2 -69 -47 -56 105 -210 204 -207 39 1 90 -14 114 -34 62
-51 1156 -49 1217 2 22 18 72 33 110 32 85 -3 243 147 220 207 -11 29 -3 38
28 33 66 -12 331 267 418 440 108 211 165 209 385 -13 91 -92 181 -182 200
-201 19 -19 99 -99 177 -178 78 -79 150 -144 159 -144 10 0 76 -29 148 -64 72
-36 164 -69 203 -74 39 -6 87 -23 106 -39 19 -16 104 -33 189 -38 84 -5 172
-25 194 -44 57 -50 623 -49 681 1 24 21 104 39 192 42 84 3 160 13 170 23 10
10 75 45 145 77 143 67 457 74 532 12 21 -18 72 -35 112 -37 40 -2 91 -20 115
-41 62 -54 851 -48 918 7 64 54 585 54 649 0 64 -53 930 -60 990 -9 22 19 89
36 150 38 84 4 127 21 181 75 39 39 89 71 111 71 75 0 134 75 92 117 -52 52
-46 73 40 134 63 44 82 48 114 22 33 -27 49 -20 101 47 71 91 145 103 184 30
15 -27 49 -50 77 -50 28 0 76 -28 108 -63 32 -34 76 -62 98 -62 24 0 35 -14
27 -35 -7 -19 -1 -42 13 -51 15 -10 27 1 27 22 0 45 64 53 90 10 10 -16 -1
-42 -23 -58 -37 -27 -35 -35 17 -85 34 -32 75 -48 98 -39 24 9 49 -4 66 -35
18 -35 51 -50 102 -49 41 2 95 -14 119 -35 58 -49 1079 -48 1139 1 20 17 69
35 108 40 39 5 105 27 147 49 105 56 229 52 261 -8 17 -32 51 -48 100 -47 41
2 93 -13 116 -32 57 -48 951 -52 990 -5 14 18 56 32 93 32 37 0 89 17 116 37
27 20 64 37 83 37 50 1 148 114 157 181 6 39 30 61 74 70 62 12 197 144 197
192 0 12 19 49 43 83 57 82 56 57 55 983 l0 820 64 135 c54 116 78 139 163
165 161 48 185 10 167 -264 -12 -191 -8 -233 28 -272 31 -35 41 -85 37 -194
-4 -116 3 -151 37 -170 29 -17 44 -56 44 -120 0 -85 7 -96 74 -108 89 -15 122
-100 40 -100 -60 0 -69 -38 -14 -59 20 -8 37 -37 37 -64 0 -28 23 -63 52 -78
33 -18 46 -42 37 -68 -10 -24 7 -64 41 -99 32 -33 83 -86 114 -117 31 -32 56
-72 56 -88 0 -41 407 -452 448 -452 32 0 101 -55 219 -174 51 -52 68 -57 109
-31 65 40 99 38 99 -7 0 -21 -12 -38 -26 -38 -15 0 -20 -11 -11 -25 8 -14 35
-25 60 -25 25 0 60 -17 77 -38 18 -21 52 -32 77 -24 30 10 54 -3 73 -38 23
-43 43 -50 102 -37 47 10 102 1 154 -26 45 -23 148 -46 229 -51 80 -6 163 -24
183 -41 52 -43 780 -45 834 -2 21 17 124 35 228 39 113 4 206 21 231 42 22 18
74 33 115 31 49 -1 83 15 100 47 14 26 46 48 70 48 81 0 240 95 311 186 39 49
58 89 44 89 -14 0 -26 11 -26 25 0 15 20 13 49 -5 41 -26 63 -24 123 12 40 24
89 43 108 43 19 0 106 75 194 166 148 152 157 168 116 198 -48 35 -35 86 23
86 19 0 45 -18 57 -41 21 -36 27 -35 58 10 19 28 57 54 85 59 33 7 52 34 58
80 10 91 66 73 67 -23 1 -48 16 -75 44 -80 24 -5 43 -28 43 -51 1 -46 305
-379 347 -379 14 0 38 -23 53 -50 15 -27 42 -50 61 -50 63 0 194 -86 298 -194
90 -93 112 -104 182 -91 64 12 85 5 107 -36 18 -34 51 -50 101 -49 41 2 92
-12 114 -31 24 -19 115 -35 227 -38 116 -3 203 -18 229 -39 58 -47 782 -48
838 -2 20 17 103 35 183 41 81 5 184 28 229 51 52 27 107 36 154 26 59 -13 79
-6 102 37 19 35 43 48 73 38 25 -8 59 3 77 24 17 21 52 38 77 38 25 0 51 10
59 22 7 12 47 28 88 37 81 16 105 66 32 66 -24 1 -60 12 -81 25 -52 35 9 74
115 75 46 0 96 21 124 52 30 33 68 48 105 41 39 -8 66 4 83 36 30 56 195 41
231 -21 11 -19 40 -29 64 -21 28 8 73 -17 128 -74 47 -49 105 -88 130 -88 27
0 45 -18 45 -46 0 -78 178 -250 257 -249 38 1 89 -15 113 -36 57 -50 927 -49
987 1 21 18 74 36 119 42 45 6 93 22 108 37 14 14 45 26 67 26 23 0 139 101
259 225 119 124 225 225 235 225 9 0 49 -40 88 -89 40 -49 99 -99 132 -112 33
-12 60 -41 60 -63 0 -27 14 -35 48 -24 34 11 53 1 64 -36 9 -28 26 -51 38 -51
12 0 53 -32 93 -72 44 -44 98 -72 140 -72 38 0 88 -16 112 -35 50 -43 915 -50
980 -9 71 46 211 113 233 113 12 0 125 105 251 233 205 209 238 233 316 231
83 -1 88 -7 95 -95 9 -103 41 -124 63 -41 8 29 28 47 47 41 48 -16 54 -88 7
-98 -35 -7 -33 -17 14 -66 51 -55 55 -56 87 -13 42 58 82 21 44 -40 -32 -51
47 -151 120 -153 19 0 57 -17 84 -37 27 -20 79 -37 116 -37 37 0 80 -15 95
-34 41 -50 848 -49 906 1 22 19 77 39 122 45 45 6 94 22 109 37 14 14 44 26
67 26 56 0 149 105 149 168 0 28 17 58 38 66 20 8 37 38 37 66 0 32 24 60 63
75 35 13 74 52 87 87 15 39 43 63 74 63 51 0 51 9 48 1544 -1 849 -8 1524 -14
1500 -14 -54 -83 -59 -83 -6 0 21 18 66 40 100 37 57 37 63 -1 77 -30 12 -38
35 -27 82 10 47 -3 85 -47 136 -37 42 -67 117 -77 191 -19 135 -94 236 -122
163 -22 -57 -71 -18 -52 42 10 33 -4 67 -43 105 -60 58 -86 94 -173 237 -42
70 -61 81 -112 68 -56 -14 -61 -9 -47 45 19 77 -29 108 -86 56 -25 -22 -58
-40 -74 -40 -43 0 -35 49 10 66 50 20 -49 134 -117 134 -24 0 -51 11 -59 25
-9 14 -41 25 -71 25 -30 0 -88 18 -129 41 -72 38 -217 61 -372 59 -40 -1 -88
12 -108 29 -20 16 -108 29 -195 29 -88 0 -176 -13 -196 -29 -20 -17 -68 -29
-108 -28 -143 5 -300 -32 -453 -105 -86 -41 -167 -67 -180 -59 -13 8 -46 -7
-73 -34 -31 -31 -56 -40 -73 -23 -16 16 -31 13 -44 -8 -12 -18 -7 -36 10 -41
16 -6 29 -38 29 -73 l0 -62 -84 52 c-95 59 -183 73 -110 17 48 -36 58 -103 20
-127 -13 -8 -35 8 -50 35 -14 27 -48 56 -76 64 -55 18 -68 78 -19 94 40 13
-296 171 -389 183 -40 5 -87 22 -105 37 -38 31 -166 56 -273 53 -40 -2 -88 10
-107 26 -46 38 -344 37 -390 -1 -20 -17 -68 -29 -108 -27 -107 4 -238 -21
-268 -51 -14 -14 -53 -26 -85 -26 -33 0 -84 -14 -114 -31 -98 -54 -398 -66
-457 -17 -18 15 -64 32 -103 37 -77 11 -990 13 -1069 2 -106 -14 -263 -101
-263 -145 0 -25 -31 -61 -69 -80 -38 -20 -128 -95 -200 -167 -173 -173 -319
-192 -446 -57 -43 45 -96 83 -117 83 -21 0 -71 34 -109 75 -45 47 -87 70 -113
61 -27 -8 -53 6 -70 38 -15 28 -48 51 -72 51 -24 0 -56 12 -70 26 -15 15 -62
31 -106 37 -43 5 -104 27 -134 48 -30 22 -84 39 -120 39 -35 0 -77 13 -92 28
-28 28 -186 49 -341 47 -40 -1 -87 11 -106 27 -46 38 -649 38 -696 -1 -19 -15
-83 -26 -143 -24 -134 5 -265 -16 -304 -48 -16 -14 -80 -30 -142 -37 -117 -13
-567 -223 -615 -288 -15 -20 -41 -28 -57 -19 -17 11 -74 -27 -140 -96 -61 -63
-129 -114 -152 -114 -46 0 -270 -215 -294 -281 -8 -24 -40 -44 -70 -44 -30 0
-69 -20 -86 -44 -31 -41 -35 -41 -76 -1 -33 33 -37 50 -14 77 16 19 21 43 12
52 -28 28 -58 17 -58 -21 0 -51 -91 -49 -110 2 -10 26 1 44 35 53 52 13 70 57
23 57 -14 0 -54 33 -87 73 -39 45 -78 68 -106 61 -31 -8 -78 27 -151 111 -81
95 -118 120 -162 112 -40 -8 -96 19 -181 86 -159 124 -344 210 -486 225 -62 6
-126 22 -142 36 -35 29 -166 53 -269 50 -40 -2 -87 9 -105 24 -45 37 -725 35
-770 -2 -19 -16 -83 -26 -143 -24 -134 5 -265 -16 -304 -48 -16 -14 -80 -30
-142 -37 -62 -7 -172 -42 -244 -77 -72 -36 -141 -65 -153 -65 -12 0 -36 -17
-53 -37 -17 -21 -52 -38 -77 -38 -26 0 -59 -23 -74 -51 -18 -35 -42 -47 -74
-36 -32 10 -56 -2 -74 -37 -33 -61 -88 -64 -188 -10 -42 22 -111 39 -154 37
-90 -5 -136 80 -64 120 36 20 33 29 -21 74 -34 28 -82 52 -106 52 -25 1 -72
30 -105 65 -65 71 -150 91 -375 88 -251 -3 -385 -18 -421 -48 -19 -16 -84 -31
-145 -32 -60 -2 -129 -21 -154 -42 -69 -61 -294 -69 -407 -15 -123 58 -118 58
-673 58 -530 1 -560 -2 -697 -60 -88 -37 -92 -44 -52 -73 30 -23 35 -38 15
-50 -16 -10 -47 0 -70 22 -51 52 -88 39 -129 -46 -40 -80 -80 -65 -80 31 0 69
-128 152 -262 169 -80 11 -1144 9 -1213 -2 -124 -19 -255 -90 -240 -129 8 -20
-2 -43 -22 -51 -20 -7 -43 -35 -51 -61 -18 -57 -112 -65 -112 -10 0 20 -11 37
-25 37 -14 0 -25 -10 -25 -21 0 -41 -178 -204 -222 -204 -24 0 -75 33 -113 73
-50 51 -94 72 -153 72 -112 0 -140 21 -122 94 18 70 -8 80 -52 20 -35 -48 -88
-26 -88 37 0 28 -44 65 -116 100 -111 54 -142 57 -706 54 -325 -1 -615 -5
-645 -9 -102 -12 -252 -96 -280 -156 -15 -33 -44 -60 -65 -60 -24 0 -38 -23
-38 -63 0 -74 -59 -106 -113 -61 -31 25 -46 23 -83 -10 -58 -53 -95 -52 -126
3 -24 41 -27 41 -60 -4 -51 -68 -128 -35 -112 48 10 51 2 62 -45 62 -32 0 -65
-11 -73 -25 -20 -31 -40 -31 -88 1 -33 22 -31 30 9 60 49 38 36 89 -23 89 -20
0 -59 11 -86 25 -28 14 -71 35 -96 48 -26 13 -102 31 -169 41 -67 9 -137 29
-154 43 -31 24 -193 45 -340 43 -40 -1 -86 11 -104 26 -50 41 -782 45 -840 4z
m893 -592 c67 -21 168 -38 224 -38 55 0 112 -9 125 -21 13 -12 102 -47 199
-78 96 -31 192 -72 214 -91 22 -19 50 -35 62 -35 41 0 386 -361 386 -404 0
-24 15 -53 34 -64 18 -11 40 -48 48 -82 8 -34 31 -113 52 -175 76 -223 91
-481 92 -1544 1 -879 7 -1080 37 -1131 19 -34 36 -88 36 -118 1 -31 26 -107
56 -170 95 -194 93 -195 -546 -189 -585 5 -684 21 -796 127 -50 47 -63 83 -63
177 0 157 -18 198 -88 198 -39 0 -65 -19 -76 -56 -54 -168 -348 -399 -586
-460 -398 -102 -1255 -37 -1427 108 -22 18 -57 33 -78 33 -48 0 -370 312 -370
359 0 19 -17 49 -37 66 -21 17 -38 58 -38 91 0 34 -18 88 -39 120 -49 75 -40
627 12 764 85 221 226 421 371 525 137 99 418 236 531 259 34 7 108 24 163 39
55 14 139 26 187 27 48 0 120 17 159 38 45 23 142 37 263 37 105 0 230 12 278
27 48 15 175 29 281 33 260 8 344 77 344 283 0 176 -121 407 -213 407 -16 0
-64 17 -107 39 -85 42 -317 34 -363 -12 -15 -15 -56 -27 -91 -27 -134 0 -351
-197 -351 -317 0 -102 -83 -197 -146 -166 -23 11 -306 21 -629 21 l-587 1 -8
79 c-13 128 140 570 212 614 18 11 33 36 33 55 0 43 271 313 315 313 18 0 42
15 53 33 27 46 326 186 429 201 47 7 97 25 111 39 15 15 84 28 153 28 70 1
160 17 202 36 109 50 812 51 977 1z m9305 -7 c24 -49 16 -1244 -10 -1284 -10
-17 -102 -21 -269 -10 -580 38 -944 -168 -1089 -617 -21 -66 -28 -387 -26
-1134 3 -847 -2 -1047 -30 -1072 -24 -21 -103 -26 -271 -16 -131 8 -417 9
-637 2 -467 -15 -508 0 -475 171 22 115 21 3370 -2 3645 -15 184 -12 206 30
225 51 24 1321 6 1345 -19 8 -8 3 -92 -12 -187 -58 -380 -60 -457 -11 -476 48
-19 137 67 137 131 0 126 338 517 473 547 42 9 83 27 91 40 8 13 78 23 156 23
78 1 193 17 255 36 163 52 318 49 345 -5z m2819 7 c27 -20 100 -37 162 -37 63
-1 125 -10 138 -22 13 -12 102 -47 199 -78 96 -31 192 -72 214 -91 22 -19 47
-35 56 -35 10 0 100 -61 201 -136 304 -224 567 -627 661 -1013 50 -206 72
-1089 30 -1238 -77 -277 -137 -454 -167 -490 -18 -22 -33 -49 -33 -60 0 -155
-687 -813 -850 -813 -15 0 -52 -16 -82 -35 -79 -49 -486 -148 -534 -130 -22 9
-105 -2 -184 -24 -145 -41 -194 -40 -637 9 -370 42 -849 216 -974 353 -25 29
-59 52 -73 52 -36 0 -341 304 -341 339 0 16 -21 47 -46 70 -66 60 -228 402
-274 579 -14 54 -38 146 -53 202 -42 159 -33 893 13 1073 21 82 47 183 58 225
10 41 31 97 45 125 15 27 53 104 86 170 59 121 359 517 392 517 10 0 53 31 95
69 134 119 445 283 602 317 45 10 88 28 96 41 8 13 72 23 144 24 74 0 150 16
178 37 38 29 134 37 439 37 305 0 401 -8 439 -37z m4611 0 c34 -20 115 -37
180 -37 64 -1 123 -11 131 -23 7 -12 53 -30 102 -39 194 -36 540 -247 746
-454 178 -180 416 -535 416 -622 0 -19 16 -66 36 -105 37 -74 67 -182 112
-404 71 -348 10 -1024 -113 -1258 -19 -36 -35 -90 -35 -119 0 -28 -9 -52 -20
-52 -11 0 -39 -42 -62 -94 -119 -267 -460 -604 -761 -752 -316 -155 -613 -246
-707 -217 -24 8 -94 -2 -154 -23 -139 -49 -385 -50 -520 -2 -59 21 -130 32
-160 24 -76 -19 -552 90 -599 137 -15 15 -51 27 -81 27 -30 0 -69 17 -86 37
-17 21 -43 38 -58 38 -49 0 -387 276 -483 395 -52 64 -108 130 -123 146 -25
27 -143 257 -190 372 -73 175 -121 361 -121 463 0 65 -17 158 -37 208 -45 106
-51 430 -10 533 15 39 37 155 49 258 21 180 34 225 113 383 19 39 35 87 35
106 0 33 128 235 194 306 17 18 31 43 31 54 0 28 240 255 375 355 144 107 357
210 514 248 68 16 134 40 147 51 13 12 75 22 138 23 62 0 142 17 176 37 46 26
155 35 413 35 257 0 366 -9 412 -35z m5014 0 c27 -20 90 -37 140 -37 81 -1
157 -28 296 -105 21 -12 60 -31 88 -44 85 -38 234 -210 306 -353 87 -173 137
-184 206 -49 68 133 312 374 439 433 54 26 130 62 169 82 39 19 113 35 164 35
52 0 115 17 142 37 66 50 474 50 561 1 34 -20 105 -37 157 -37 330 -3 769
-427 870 -838 16 -69 40 -144 51 -167 27 -52 30 -3073 4 -3097 -11 -9 -171 -8
-356 3 -185 10 -472 10 -638 -1 -171 -11 -311 -10 -325 3 -14 13 -24 495 -25
1253 0 976 -8 1254 -35 1343 -82 266 -119 308 -353 400 -129 51 -136 51 -260
9 -70 -25 -145 -59 -167 -77 -22 -17 -53 -32 -69 -32 -41 0 -193 -244 -226
-363 -18 -66 -28 -497 -28 -1276 0 -915 -7 -1186 -32 -1220 -29 -40 -92 -44
-678 -44 -355 0 -652 7 -660 14 -7 8 -15 585 -16 1283 -1 1264 -2 1269 -58
1383 -132 268 -406 426 -584 338 -44 -22 -91 -40 -105 -40 -39 0 -242 -175
-242 -209 0 -17 -13 -44 -29 -60 -15 -15 -50 -88 -76 -161 -45 -124 -47 -207
-42 -1326 4 -656 0 -1199 -8 -1207 -16 -17 -1370 -20 -1387 -4 -6 6 -10 915
-10 2020 l0 2010 660 6 c509 5 666 0 686 -25 18 -22 14 -99 -12 -251 -29 -172
-30 -227 -7 -256 45 -54 114 -6 171 120 75 162 317 393 413 393 19 0 49 17 66
38 19 22 73 37 136 37 57 0 126 17 153 37 68 51 482 52 550 1z m-19133 -81
l694 -11 217 -329 c119 -181 257 -405 306 -498 105 -199 177 -226 236 -88 19
45 75 142 125 215 50 74 91 139 91 145 0 7 64 109 143 229 79 120 155 240 170
268 25 47 60 50 700 66 371 9 703 21 737 25 110 15 95 -87 -33 -230 -62 -68
-153 -183 -203 -255 -199 -287 -255 -366 -425 -598 -704 -963 -664 -890 -551
-1011 34 -37 62 -74 62 -83 0 -9 31 -50 69 -92 38 -41 124 -159 192 -261 68
-103 172 -250 231 -328 59 -78 108 -149 108 -158 0 -8 83 -125 183 -258 101
-133 197 -268 213 -298 17 -31 85 -121 151 -201 134 -161 210 -291 185 -316
-9 -9 -130 -9 -268 0 -138 9 -482 18 -763 19 l-511 4 -146 212 c-80 117 -159
237 -176 267 -17 30 -87 149 -155 263 -69 114 -144 241 -166 282 -74 138 -138
105 -287 -149 -73 -124 -133 -239 -133 -256 -1 -16 -16 -39 -33 -50 -37 -23
-269 -361 -269 -390 0 -11 -29 -58 -63 -103 l-64 -83 -618 -5 c-339 -3 -662
-7 -717 -9 -75 -3 -101 6 -108 37 -7 35 138 263 251 395 17 20 43 56 57 80 13
24 98 148 187 275 89 128 167 243 172 256 6 14 73 111 150 217 77 106 191 264
253 351 62 86 155 214 206 283 130 174 124 215 -80 491 -96 129 -197 269 -226
311 -28 41 -105 148 -171 237 -66 89 -127 179 -137 200 -9 21 -62 99 -118 175
-56 76 -120 166 -144 200 -93 137 -252 340 -302 385 -91 82 -65 235 34 200 28
-10 363 -23 744 -28z m-10637 -20 c17 -6 31 -45 31 -86 0 -42 11 -76 25 -76
14 0 25 -48 26 -106 0 -59 17 -128 37 -155 20 -27 37 -75 37 -107 0 -32 10
-77 22 -101 21 -41 89 -343 120 -531 7 -48 26 -102 40 -120 27 -34 46 -117
105 -474 19 -113 43 -218 52 -233 9 -16 27 -97 40 -182 42 -284 52 -320 88
-334 75 -28 83 -2 208 643 12 62 39 174 61 249 21 75 39 162 39 192 0 31 11
63 25 72 14 8 25 45 26 82 0 37 17 96 37 130 19 34 36 98 36 142 1 44 11 86
23 94 13 7 28 56 34 108 11 102 83 400 124 519 15 41 32 114 39 162 7 48 25
96 40 106 16 10 313 18 661 19 580 0 633 -4 645 -44 7 -24 29 -75 49 -114 20
-39 36 -92 36 -119 0 -26 23 -123 52 -216 28 -93 63 -214 77 -269 15 -55 38
-129 52 -163 15 -34 35 -107 45 -162 11 -55 38 -168 61 -250 23 -83 53 -195
66 -250 14 -55 37 -134 51 -175 45 -132 74 -269 104 -496 41 -305 164 -395
201 -147 30 201 63 375 100 540 22 94 33 182 26 194 -8 13 4 50 25 84 22 33
40 90 40 125 0 36 13 90 30 120 16 30 38 100 48 155 51 273 97 465 121 509 14
27 26 85 26 128 0 42 16 108 35 145 19 37 42 137 52 222 12 103 30 159 56 169
75 29 1386 20 1416 -10 21 -21 17 -48 -15 -104 -24 -42 -44 -96 -44 -121 0
-25 -16 -58 -35 -74 -19 -16 -41 -65 -48 -109 -14 -90 -157 -532 -194 -599
-12 -24 -23 -69 -23 -101 0 -32 -11 -69 -25 -83 -23 -23 -62 -144 -128 -397
-15 -55 -35 -123 -45 -150 -66 -172 -92 -256 -163 -525 -22 -83 -51 -170 -64
-194 -14 -24 -25 -67 -25 -96 0 -29 -16 -83 -35 -119 -19 -37 -47 -111 -62
-166 -75 -283 -135 -483 -165 -550 -19 -42 -40 -104 -47 -138 -14 -67 -55
-224 -101 -387 l-27 -100 -734 -13 c-404 -7 -742 -7 -753 0 -41 27 -101 177
-102 255 -1 45 -17 128 -37 183 -20 55 -36 126 -37 157 0 32 -13 83 -29 113
-17 30 -38 94 -48 142 -10 48 -37 155 -60 238 -23 82 -53 195 -67 250 -13 54
-41 131 -60 170 -20 39 -36 107 -36 152 0 44 -10 91 -23 104 -12 13 -34 102
-48 199 -67 442 -78 473 -165 433 -52 -23 -63 -58 -99 -289 -23 -144 -58 -301
-78 -350 -20 -48 -37 -124 -37 -168 0 -43 -13 -92 -28 -107 -15 -15 -37 -71
-47 -124 -42 -203 -105 -447 -127 -489 -13 -24 -23 -62 -23 -84 0 -22 -17 -93
-37 -157 -64 -202 -113 -416 -113 -493 0 -135 -2 -135 -788 -135 -764 0 -787
3 -787 112 0 29 -34 157 -75 284 -41 127 -75 246 -75 265 0 18 -17 47 -37 64
-21 17 -38 58 -38 90 0 32 -15 101 -34 153 -19 52 -54 162 -78 245 -24 82 -58
189 -76 237 -18 48 -51 155 -74 238 -22 82 -57 186 -77 232 -20 45 -36 113
-36 151 0 38 -13 82 -28 97 -15 15 -37 71 -48 124 -32 156 -151 540 -189 612
-19 36 -35 95 -35 130 0 35 -9 69 -21 76 -11 7 -35 78 -54 158 -18 79 -42 155
-54 168 -12 13 -21 53 -21 89 0 36 -17 87 -37 114 -20 27 -37 72 -37 102 -1
29 -17 66 -35 81 -39 33 -71 161 -53 209 12 30 1343 36 1431 6z m13811 -1924
c0 -350 -15 -386 -115 -284 -161 164 -172 362 -29 534 125 150 144 118 144
-250z m-3537 170 c118 -132 117 -285 -3 -419 -128 -144 -146 -118 -144 206 1
154 2 286 3 293 4 38 73 0 144 -80z"/>
<path d="M11700 3725 c-76 -10 -177 -31 -225 -47 -48 -15 -137 -28 -198 -28
-524 0 -789 -400 -483 -728 197 -211 752 -165 971 81 116 131 210 402 210 607
0 159 15 153 -275 115z"/>
<path d="M23395 5012 c-10 -10 -46 -22 -80 -25 -129 -15 -303 -167 -412 -362
-174 -312 -158 -946 32 -1267 314 -528 1058 -507 1294 37 141 324 146 721 17
1149 -38 123 -201 315 -337 394 -121 71 -469 121 -514 74z m211 -1016 c0 -248
-16 -321 -62 -275 -19 19 -34 396 -21 518 1 8 20 11 43 7 34 -7 40 -47 40
-250z"/>
<path d="M27975 5003 c-165 -54 -331 -191 -429 -353 -175 -290 -170 -976 9
-1313 46 -87 228 -255 344 -318 120 -66 475 -61 618 8 112 55 333 260 333 311
0 16 19 68 43 114 55 110 78 738 33 917 -68 269 -220 484 -412 582 -111 57
-431 88 -539 52z m204 -777 c5 -14 5 -116 0 -227 -7 -173 -14 -201 -50 -194
-42 8 -76 327 -43 411 14 39 81 46 93 10z"/>
</g>
</svg>
